<svg xmlns="http://www.w3.org/2000/svg">
<defs>
<font id="OptimaLTPro-Roman" horiz-adv-x="500" >
  <font-face 
    font-family="OptimaLTPro-Roman"
    font-weight="400"
    font-stretch="normal"
    units-per-em="1000"
    panose-1="2 11 5 2 5 5 8 2 3 4"
    ascent="736"
    descent="-264"
    x-height="472.998"
    cap-height="685"
    bbox="-78 -300 1000 965"
    underline-thickness="50"
    underline-position="-50"
    unicode-range="U+000D-U+FB04"
  />
<missing-glyph horiz-adv-x="485" 
d="M263 111h-53v63h53v-63zM257 222l-46 -0.00390625v16c0 33.333 3.66699 58.5 11 75.5s22.666 35.5 45.999 55.5c18.667 18 31 32.667 37 44s9 23.333 9 36c0 22 -7 40.833 -21 56.5s-31 23.5 -51 23.5c-44.667 0 -70.334 -30 -77.001 -90
c-5.33301 1.33301 -13.333 2.83301 -24 4.5s-18.667 2.83398 -24 3.50098c4.66699 44 18.334 76.667 41.001 98s51.667 32 87 32c34.667 0 63 -11.333 85 -34s33 -52.667 33 -90c0 -21.333 -4.16699 -40.166 -12.5 -56.499s-24.166 -35.166 -47.499 -56.499
s-36.833 -37.166 -40.5 -47.499s-5.5 -33.833 -5.5 -70.5zM47 46.9961h391v585h-391v-585zM0 679.996h485v-680h-485v680z" />
    <glyph glyph-name="IJ" unicode="IJ" horiz-adv-x="522" 
d="M222 -144l-8 28c22.667 0 42 4.5 58 13.5s28.5 20.5 37.5 34.5s16 33.167 21 57.5s8.16699 48.333 9.5 72s2 53.5 2 89.5v275c0 58 -2.66699 144.333 -8 259c18.667 -3.33301 35 -5 49 -5s30.333 1.66699 49 5c-5.33301 -114.667 -8 -201 -8 -259
c0 -42 0.5 -104.333 1.5 -187s1.5 -139 1.5 -169c0 -60.667 -19 -111.5 -57 -152.5s-87.333 -61.5 -148 -61.5zM98 254v172c0 58 -2.66699 144.333 -8 259c18.667 -3.33301 35 -5 49 -5s30.333 1.66699 49 5c-5.33301 -114.667 -8 -201 -8 -259v-172
c0 -58 2.66699 -144.333 8 -259c-18.667 3.33301 -35 5 -49 5s-30.333 -1.66699 -49 -5c5.33301 114.667 8 201 8 259z" />
    <glyph glyph-name="ij" unicode="ij" horiz-adv-x="499" 
d="M102 182v104c0 74 -2.66699 136.333 -8 187c16.667 -3.33301 31.667 -5 45 -5s28.333 1.66699 45 5c-5.33301 -50.667 -8 -113 -8 -187v-104c0 -74 2.66699 -136.333 8 -187c-16.667 3.33301 -31.667 5 -45 5s-28.333 -1.66699 -45 -5c5.33301 50.667 8 113 8 187z
M88 647c0 14 5 26 15 36s22 15 36 15s26 -5 36 -15s15 -22 15 -36s-5 -26 -15 -36s-22 -15 -36 -15s-26 5 -36 15s-15 22 -15 36zM323 -51l-0.000976562 296.997c0 100.667 -2.66699 176.334 -8 227.001c16.667 -3.33301 31.667 -5 45 -5s28.333 1.66699 45 5
c-5.33301 -50.667 -8 -113 -8 -187v-104c0 -25.333 0.666992 -63.666 2 -114.999s2 -89.666 2 -114.999c0 -23.333 -0.5 -41.5 -1.5 -54.5s-3.83301 -28.167 -8.5 -45.5s-12 -33 -22 -47c-15.333 -22 -35.666 -40 -60.999 -54s-53.333 -21.333 -84 -22l-7 34
c6.66699 -1.33301 12 -2 16 -2c60 0 90 62.667 90 188zM308.999 646.997c0 14 5 26 15 36s22 15 36 15s26 -5 36 -15s15 -22 15 -36s-5 -26 -15 -36s-22 -15 -36 -15s-26 5 -36 15s-15 22 -15 36z" />
    <glyph glyph-name="napostrophe" unicode="&#x22;n" horiz-adv-x="556" 
d="M402 279c0 48 -9.83301 85.335 -29.5 112.002s-46.167 40 -79.5 40c-90 0 -135 -54.667 -135 -164v-85c0 -74 2.66699 -136.333 8 -187c-16.667 3.33301 -31.667 5 -45 5s-28.333 -1.66699 -45 -5c5.33301 50.667 8 113 8 187v104c0 74 -2.66699 136.333 -8 187
c16.667 -3.33301 31.667 -5 45 -5c10 0 23.333 1.66699 40 5c-2 -26.667 -3 -53.334 -3 -80.001h2c38.667 60 92 90 160 90c44 0 81.667 -13.333 113 -40s47 -71.334 47 -134.001c0 -18 -0.666992 -47.5 -2 -88.5s-2 -73.167 -2 -96.5c0 -57.333 0.666992 -100.333 2 -129
c-16.667 3.33301 -30.667 5 -42 5c-12 -0 -25.667 -1.66699 -41 -5c0 10.667 1.16699 43 3.5 97s3.5 96 3.5 126v61zM-1 551.002l41 156.001c8 26.667 22.333 40 43 40c8.66699 0 16.167 -2.66699 22.5 -8s9.5 -12.666 9.5 -21.999
c0 -8.66699 -5.16699 -22.834 -15.5 -42.501s-34.5 -61.834 -72.5 -126.501z" />
    <glyph glyph-name="f_f" unicode="ff" horiz-adv-x="578" 
d="M306 672l-5.99805 -3.00098c-16 10 -34.333 15 -55 15c-27.333 0 -47.833 -9.5 -61.5 -28.5s-20.5 -42.833 -20.5 -71.5c0 -23.333 4 -62.333 12 -117c11.333 0 28.5 0.166992 51.5 0.5s40.167 0.5 51.5 0.5c-1.33301 -9.33301 -2 -16 -2 -20
c0 -5.33301 0.666992 -12 2 -20c-68 2 -102.333 3 -103 3c0 -192.667 1.33301 -338 4 -436c-15.333 3.33301 -29.666 5 -42.999 5c-12.667 0 -27.334 -1.66699 -44.001 -5c6 98 9 243.333 9 436l-72 -3c1.33301 8 2 14.667 2 20c0 4 -0.666992 10.667 -2 20
c8 0 20.167 -0.166992 36.5 -0.5s28.166 -0.5 35.499 -0.5c0 40.667 8.16699 84.834 24.5 132.501s37.166 84.167 62.499 109.5c30.667 30.667 64.667 46 102 46c7.33301 0 14 -1 20 -3c0 -6 -0.666992 -18.333 -2 -37s-2 -33 -2 -43zM594.002 671.999l-5.99805 -3.00098
c-16 10 -34.333 15 -55 15c-27.333 0 -47.833 -9.5 -61.5 -28.5s-20.5 -42.833 -20.5 -71.5c0 -23.333 4 -62.333 12 -117c11.333 0 28.5 0.166992 51.5 0.5s40.167 0.5 51.5 0.5c-1.33301 -9.33301 -2 -16 -2 -20c0 -5.33301 0.666992 -12 2 -20c-68 2 -102.333 3 -103 3
c0 -192.667 1.33301 -338 4 -436c-15.333 3.33301 -29.666 5 -42.999 5c-12.667 0 -27.334 -1.66699 -44.001 -5c6 98 9 243.333 9 436l-72 -3c1.33301 8 2 14.667 2 20c0 4 -0.666992 10.667 -2 20c8 0 20.167 -0.166992 36.5 -0.5s28.166 -0.5 35.499 -0.5
c0 40.667 8.16699 84.834 24.5 132.501s37.166 84.167 62.499 109.5c30.667 30.667 64.667 46 102 46c7.33301 0 14 -1 20 -3c0 -6 -0.666992 -18.333 -2 -37s-2 -33 -2 -43z" />
    <glyph glyph-name="fi" unicode="fi" horiz-adv-x="556" 
d="M392 182v104c0 74 -2.66699 136.333 -8 187c16.667 -3.33301 31.667 -5 45 -5s28.333 1.66699 45 5c-5.33301 -50.667 -8 -113 -8 -187v-104c0 -74 2.66699 -136.333 8 -187c-16.667 3.33301 -31.667 5 -45 5s-28.333 -1.66699 -45 -5c5.33301 50.667 8 113 8 187z
M378 647c0 14 5 26 15 36s22 15 36 15s26 -5 36 -15s15 -22 15 -36s-5 -26 -15 -36s-22 -15 -36 -15s-26 5 -36 15s-15 22 -15 36zM306 672l-5.99805 -3.00098c-16 10 -34.333 15 -55 15c-27.333 0 -47.833 -9.5 -61.5 -28.5s-20.5 -42.833 -20.5 -71.5
c0 -23.333 4 -62.333 12 -117c11.333 0 28.5 0.166992 51.5 0.5s40.167 0.5 51.5 0.5c-1.33301 -9.33301 -2 -16 -2 -20c0 -5.33301 0.666992 -12 2 -20c-68 2 -102.333 3 -103 3c0 -192.667 1.33301 -338 4 -436c-15.333 3.33301 -29.666 5 -42.999 5
c-12.667 0 -27.334 -1.66699 -44.001 -5c6 98 9 243.333 9 436l-72 -3c1.33301 8 2 14.667 2 20c0 4 -0.666992 10.667 -2 20c8 0 20.167 -0.166992 36.5 -0.5s28.166 -0.5 35.499 -0.5c0 40.667 8.16699 84.834 24.5 132.501s37.166 84.167 62.499 109.5
c30.667 30.667 64.667 46 102 46c7.33301 0 14 -1 20 -3c0 -6 -0.666992 -18.333 -2 -37s-2 -33 -2 -43z" />
    <glyph glyph-name="fl" unicode="fl" horiz-adv-x="556" 
d="M306 672l-5.99805 -3.00098c-16 10 -34.333 15 -55 15c-27.333 0 -47.833 -9.5 -61.5 -28.5s-20.5 -42.833 -20.5 -71.5c0 -23.333 4 -62.333 12 -117c11.333 0 28.5 0.166992 51.5 0.5s40.167 0.5 51.5 0.5c-1.33301 -9.33301 -2 -16 -2 -20
c0 -5.33301 0.666992 -12 2 -20c-68 2 -102.333 3 -103 3c0 -192.667 1.33301 -338 4 -436c-15.333 3.33301 -29.666 5 -42.999 5c-12.667 0 -27.334 -1.66699 -44.001 -5c6 98 9 243.333 9 436l-72 -3c1.33301 8 2 14.667 2 20c0 4 -0.666992 10.667 -2 20
c8 0 20.167 -0.166992 36.5 -0.5s28.166 -0.5 35.499 -0.5c0 40.667 8.16699 84.834 24.5 132.501s37.166 84.167 62.499 109.5c30.667 30.667 64.667 46 102 46c7.33301 0 14 -1 20 -3c0 -6 -0.666992 -18.333 -2 -37s-2 -33 -2 -43zM398.002 282.999v181
c0 132.667 -2.66699 228.667 -8 288c16.667 -3.33301 31.667 -5 45 -5s28.333 1.66699 45 5c-5.33301 -59.333 -8 -155.333 -8 -288v-181c0 -132.667 2.66699 -228.667 8 -288c-16.667 3.33301 -31.667 5 -45 5s-28.333 -1.66699 -45 -5c5.33301 59.333 8 155.333 8 288z
" />
    <glyph glyph-name="f_f_i" unicode="ffi" horiz-adv-x="849" 
d="M306 672l-5.99805 -3.00098c-16 10 -34.333 15 -55 15c-27.333 0 -47.833 -9.5 -61.5 -28.5s-20.5 -42.833 -20.5 -71.5c0 -23.333 4 -62.333 12 -117c11.333 0 28.5 0.166992 51.5 0.5s40.167 0.5 51.5 0.5c-1.33301 -9.33301 -2 -16 -2 -20
c0 -5.33301 0.666992 -12 2 -20c-68 2 -102.333 3 -103 3c0 -192.667 1.33301 -338 4 -436c-15.333 3.33301 -29.666 5 -42.999 5c-12.667 0 -27.334 -1.66699 -44.001 -5c6 98 9 243.333 9 436l-72 -3c1.33301 8 2 14.667 2 20c0 4 -0.666992 10.667 -2 20
c8 0 20.167 -0.166992 36.5 -0.5s28.166 -0.5 35.499 -0.5c0 40.667 8.16699 84.834 24.5 132.501s37.166 84.167 62.499 109.5c30.667 30.667 64.667 46 102 46c7.33301 0 14 -1 20 -3c0 -6 -0.666992 -18.333 -2 -37s-2 -33 -2 -43zM594.002 671.999l-5.99805 -3.00098
c-16 10 -34.333 15 -55 15c-27.333 0 -47.833 -9.5 -61.5 -28.5s-20.5 -42.833 -20.5 -71.5c0 -23.333 4 -62.333 12 -117c11.333 0 28.5 0.166992 51.5 0.5s40.167 0.5 51.5 0.5c-1.33301 -9.33301 -2 -16 -2 -20c0 -5.33301 0.666992 -12 2 -20c-68 2 -102.333 3 -103 3
c0 -192.667 1.33301 -338 4 -436c-15.333 3.33301 -29.666 5 -42.999 5c-12.667 0 -27.334 -1.66699 -44.001 -5c6 98 9 243.333 9 436l-72 -3c1.33301 8 2 14.667 2 20c0 4 -0.666992 10.667 -2 20c8 0 20.167 -0.166992 36.5 -0.5s28.166 -0.5 35.499 -0.5
c0 40.667 8.16699 84.834 24.5 132.501s37.166 84.167 62.499 109.5c30.667 30.667 64.667 46 102 46c7.33301 0 14 -1 20 -3c0 -6 -0.666992 -18.333 -2 -37s-2 -33 -2 -43zM677.004 181.998v104c0 74 -2.66699 136.333 -8 187c16.667 -3.33301 31.667 -5 45 -5
s28.333 1.66699 45 5c-5.33301 -50.667 -8 -113 -8 -187v-104c0 -74 2.66699 -136.333 8 -187c-16.667 3.33301 -31.667 5 -45 5s-28.333 -1.66699 -45 -5c5.33301 50.667 8 113 8 187zM671.004 646.998c0 14 5 26 15 36s22 15 36 15s26 -5 36 -15s15 -22 15 -36
s-5 -26 -15 -36s-22 -15 -36 -15s-26 5 -36 15s-15 22 -15 36z" />
    <glyph glyph-name="f_f_l" unicode="ffl" horiz-adv-x="835" 
d="M306 672l-5.99805 -3.00098c-16 10 -34.333 15 -55 15c-27.333 0 -47.833 -9.5 -61.5 -28.5s-20.5 -42.833 -20.5 -71.5c0 -23.333 4 -62.333 12 -117c11.333 0 28.5 0.166992 51.5 0.5s40.167 0.5 51.5 0.5c-1.33301 -9.33301 -2 -16 -2 -20
c0 -5.33301 0.666992 -12 2 -20c-68 2 -102.333 3 -103 3c0 -192.667 1.33301 -338 4 -436c-15.333 3.33301 -29.666 5 -42.999 5c-12.667 0 -27.334 -1.66699 -44.001 -5c6 98 9 243.333 9 436l-72 -3c1.33301 8 2 14.667 2 20c0 4 -0.666992 10.667 -2 20
c8 0 20.167 -0.166992 36.5 -0.5s28.166 -0.5 35.499 -0.5c0 40.667 8.16699 84.834 24.5 132.501s37.166 84.167 62.499 109.5c30.667 30.667 64.667 46 102 46c7.33301 0 14 -1 20 -3c0 -6 -0.666992 -18.333 -2 -37s-2 -33 -2 -43zM594.002 671.999l-5.99805 -3.00098
c-16 10 -34.333 15 -55 15c-27.333 0 -47.833 -9.5 -61.5 -28.5s-20.5 -42.833 -20.5 -71.5c0 -23.333 4 -62.333 12 -117c11.333 0 28.5 0.166992 51.5 0.5s40.167 0.5 51.5 0.5c-1.33301 -9.33301 -2 -16 -2 -20c0 -5.33301 0.666992 -12 2 -20c-68 2 -102.333 3 -103 3
c0 -192.667 1.33301 -338 4 -436c-15.333 3.33301 -29.666 5 -42.999 5c-12.667 0 -27.334 -1.66699 -44.001 -5c6 98 9 243.333 9 436l-72 -3c1.33301 8 2 14.667 2 20c0 4 -0.666992 10.667 -2 20c8 0 20.167 -0.166992 36.5 -0.5s28.166 -0.5 35.499 -0.5
c0 40.667 8.16699 84.834 24.5 132.501s37.166 84.167 62.499 109.5c30.667 30.667 64.667 46 102 46c7.33301 0 14 -1 20 -3c0 -6 -0.666992 -18.333 -2 -37s-2 -33 -2 -43zM677.004 282.998v181c0 132.667 -2.66699 228.667 -8 288c16.667 -3.33301 31.667 -5 45 -5
s28.333 1.66699 45 5c-5.33301 -59.333 -8 -155.333 -8 -288v-181c0 -132.667 2.66699 -228.667 8 -288c-16.667 3.33301 -31.667 5 -45 5s-28.333 -1.66699 -45 -5c5.33301 59.333 8 155.333 8 288z" />
    <glyph glyph-name=".notdef" horiz-adv-x="485" 
d="M263 111h-53v63h53v-63zM257 222l-46 -0.00390625v16c0 33.333 3.66699 58.5 11 75.5s22.666 35.5 45.999 55.5c18.667 18 31 32.667 37 44s9 23.333 9 36c0 22 -7 40.833 -21 56.5s-31 23.5 -51 23.5c-44.667 0 -70.334 -30 -77.001 -90
c-5.33301 1.33301 -13.333 2.83301 -24 4.5s-18.667 2.83398 -24 3.50098c4.66699 44 18.334 76.667 41.001 98s51.667 32 87 32c34.667 0 63 -11.333 85 -34s33 -52.667 33 -90c0 -21.333 -4.16699 -40.166 -12.5 -56.499s-24.166 -35.166 -47.499 -56.499
s-36.833 -37.166 -40.5 -47.499s-5.5 -33.833 -5.5 -70.5zM47 46.9961h391v585h-391v-585zM0 679.996h485v-680h-485v680z" />
    <glyph glyph-name="CR" unicode="&#xd;" horiz-adv-x="0" 
 />
    <glyph glyph-name="space" unicode=" " horiz-adv-x="278" 
 />
    <glyph glyph-name="exclam" unicode="!" horiz-adv-x="333" 
d="M177 171h-20c-26 308.667 -39 468 -39 478c0 16.667 4.66699 29 14 37s21 12 35 12s25.667 -4 35 -12s14 -20.333 14 -37c0 -10 -13 -169.333 -39 -478zM110 45c0 15.333 5.66699 28.666 17 39.999s24.666 17 39.999 17s28.666 -5.66699 39.999 -17
s17 -24.666 17 -39.999s-5.66699 -28.666 -17 -39.999s-24.666 -17 -39.999 -17s-28.666 5.66699 -39.999 17s-17 24.666 -17 39.999z" />
    <glyph glyph-name="quotedbl" unicode="&#x22;" horiz-adv-x="333" 
d="M66 410v288h52v-288h-52zM215 410v288h52v-288h-52z" />
    <glyph glyph-name="numbersign" unicode="#" horiz-adv-x="556" 
d="M164 224l43.001 207.996h-75c12.667 26.667 19 54 19 82h73l29 145c7.33301 -2 14.333 -3 21 -3s13.667 1 21 3c-6 -12.667 -17.667 -61 -35 -145h114l29 145c7.33301 -2 14.333 -3 21 -3s13.667 1 21 3c-6 -12.667 -17.667 -61 -35 -145h74
c-12.667 -29.333 -19 -56.666 -19 -81.999h-73l-43 -208h75c-12.667 -29.333 -19 -56.666 -19 -81.999h-73c-18 -89.333 -27.667 -137.666 -29 -144.999l-21 3l-21 -3c5.33301 14 17 62.333 35 145h-114c-18.667 -89.333 -28.334 -137.666 -29.001 -144.999l-21 3l-21 -3
c5.33301 14 17 62.333 35 145h-74c12.667 26.667 19 54 19 82h73zM314.001 223.996l43 208h-115l-43 -208h115z" />
    <glyph glyph-name="dollar" unicode="$" horiz-adv-x="556" 
d="M302 290v-262.998c32 7.33301 57.167 23.666 75.5 48.999s27.5 54.666 27.5 87.999c0 25.333 -6.66699 47.5 -20 66.5s-41 38.833 -83 59.5zM265 393.002v240c-28.667 -4.66699 -52 -17.667 -70 -39s-27 -47 -27 -77c0 -58.667 32.333 -100 97 -124zM265 21.002v283
c-62.667 24 -107.5 49.333 -134.5 76s-40.5 63.334 -40.5 110.001c0 48.667 15.833 89.167 47.5 121.5s74.167 51.833 127.5 58.5c0 34.667 -2.66699 60.667 -8 78c10 -3.33301 18.667 -5 26 -5s16 1.66699 26 5c-4.66699 -18.667 -7 -44 -7 -76
c58.667 0 109.667 -15.333 153 -46c-10.667 -19.333 -19.667 -46 -27 -80h-12c-22 57.333 -60 87 -114 89v-256c63.333 -24.667 109.333 -49.5 138 -74.5s43 -59.833 43 -104.5c0 -51.333 -16.167 -96.5 -48.5 -135.5s-76.5 -63.833 -132.5 -74.5
c0 -46 2.33301 -83.333 7 -112c-10 3.33301 -18.667 5 -26 5s-16 -1.66699 -26 -5c5.33301 27.333 8 63 8 107c-8 -0.666992 -17 -1 -27 -1c-64 0 -119 18.333 -165 55c8.66699 21.333 15 49.666 19 84.999h12c38 -68.667 91.667 -103 161 -103z" />
    <glyph glyph-name="percent" unicode="%" horiz-adv-x="889" 
d="M42 506c0 48 14.833 87.667 44.5 119s68.5 47 116.5 47s86.833 -15.667 116.5 -47s44.5 -71 44.5 -119s-14.833 -87.667 -44.5 -119s-68.5 -47 -116.5 -47s-86.833 15.667 -116.5 47s-44.5 71 -44.5 119zM116 506c0 -40 7.33301 -73.667 22 -101s36.334 -41 65.001 -41
s50.334 13.667 65.001 41s22 61 22 101s-7.33301 73.667 -22 101s-36.334 41 -65.001 41s-50.334 -13.667 -65.001 -41s-22 -61 -22 -101zM525 150c0 48 14.833 87.667 44.5 119s68.5 47 116.5 47s86.833 -15.667 116.5 -47s44.5 -71 44.5 -119s-14.833 -87.667 -44.5 -119
s-68.5 -47 -116.5 -47s-86.833 15.667 -116.5 47s-44.5 71 -44.5 119zM599 150c0 -40 7.33301 -73.667 22 -101s36.334 -41 65.001 -41s50.334 13.667 65.001 41s22 61 22 101s-7.33301 73.667 -22 101s-36.334 41 -65.001 41s-50.334 -13.667 -65.001 -41s-22 -61 -22 -101
zM233 -39l373 734c8.66699 -3.33301 16.667 -5 24 -5c6.66699 0 14.334 1.66699 23.001 5l-373 -734c-8.66699 3.33301 -16.334 5 -23.001 5c-7.33301 0 -15.333 -1.66699 -24 -5z" />
    <glyph glyph-name="ampersand" unicode="&#x26;" horiz-adv-x="722" 
d="M421 561c0 24.667 -7.33398 44.667 -22.001 60s-34 23 -58 23c-25.333 0 -45.833 -8.83301 -61.5 -26.5s-23.5 -40.167 -23.5 -67.5c0 -19.333 6 -42.5 18 -69.5s27 -51.833 45 -74.5c32.667 20 57.834 44.167 75.501 72.5s26.5 55.833 26.5 82.5zM185.999 522
c0 42.667 14.5 78.333 43.5 107s65.833 43 110.5 43c40 0 72.167 -9.83301 96.5 -29.5s36.5 -47.167 36.5 -82.5c0 -34 -13.667 -66.167 -41 -96.5s-59.333 -56.5 -96 -78.5c85.333 -109.333 144 -182 176 -218c51.333 70 91 136 119 198
c6.66699 -14 19.334 -27.333 38.001 -40c-46 -72 -91 -134 -135 -186l128 -144c-34.667 3.33301 -56 5 -64 5s-27 -1.66699 -57 -5c-16 26 -37 54.333 -63 85c-32 -32 -64.833 -56.333 -98.5 -73s-72.834 -25 -117.501 -25c-54 0 -99.333 14.833 -136 44.5
s-55 71.167 -55 124.5c0 42.667 17.167 83.667 51.5 123s77.833 70 130.5 92c-44.667 62.667 -67 114.667 -67 156zM152.999 168.999c0 -37.333 13.999 -70 41.999 -98s63 -42 105 -42c57.333 0 110 24 158 72c-74 90 -136.667 170.333 -188 241
c-39.333 -24 -68.666 -49 -87.999 -75s-29 -58.667 -29 -98z" />
    <glyph glyph-name="quotesingle" unicode="'" horiz-adv-x="278" 
d="M113 410v288h52v-288h-52z" />
    <glyph glyph-name="parenleft" unicode="(" horiz-adv-x="278" 
d="M222 698l20.001 -18.001c-46.667 -60 -78.334 -120.5 -95.001 -181.5s-25 -133.5 -25 -217.5s8.33301 -156.5 25 -217.5s48.334 -121.5 95.001 -181.5l-20 -18c-52.667 56.667 -92.834 121 -120.501 193s-41.5 146.667 -41.5 224c0 74.667 14 148.834 42 222.501
s68 138.5 120 194.5z" />
    <glyph glyph-name="parenright" unicode=")" horiz-adv-x="278" 
d="M56 -136l-20.001 18.001c46.667 60 78.334 120.5 95.001 181.5s25 133.5 25 217.5s-8.33301 156.5 -25 217.5s-48.334 121.5 -95.001 181.5l20 18c52.667 -56.667 92.834 -121 120.501 -193s41.5 -146.667 41.5 -224c0 -74.667 -14 -148.834 -42 -222.501
s-68 -138.5 -120 -194.5z" />
    <glyph glyph-name="asterisk" unicode="*" horiz-adv-x="444" 
d="M208 529l-13.999 155c8 -2.66699 17.667 -4 29 -4s21 1.33301 29 4l-16 -155l125 92c3.33301 -23.333 13.333 -40.666 30 -51.999l-142 -64l141 -66c-16.667 -12.667 -26.334 -29.334 -29.001 -50.001l-126 88l17 -152c-12 2.66699 -21.667 4 -29 4s-17 -1.33301 -29 -4
l14 152l-122 -89c-3.33301 22.667 -13 39.667 -29 51l140 65l-144 65c19.333 16.667 29 34 29 52z" />
    <glyph glyph-name="plus" unicode="+" horiz-adv-x="606" 
d="M50 227v52h227v227h52v-227h227v-52h-227v-227h-52v227h-227z" />
    <glyph glyph-name="comma" unicode="," horiz-adv-x="278" 
d="M30 -168l77 243c7.33301 25.333 22 38 44 38c9.33301 0 17.833 -2.83301 25.5 -8.5s11.5 -14.167 11.5 -25.5c0 -9.33301 -5 -23.333 -15 -42l-125 -212z" />
    <glyph glyph-name="hyphen" unicode="-" horiz-adv-x="333" 
d="M42 200v62h249v-62h-249z" />
    <glyph glyph-name="period" unicode="." horiz-adv-x="278" 
d="M82 45c0 15.333 5.66699 28.666 17 39.999s24.666 17 39.999 17s28.666 -5.66699 39.999 -17s17 -24.666 17 -39.999s-5.66699 -28.666 -17 -39.999s-24.666 -17 -39.999 -17s-28.666 5.66699 -39.999 17s-17 24.666 -17 39.999z" />
    <glyph glyph-name="slash" unicode="/" horiz-adv-x="278" 
d="M-25 -23l276 726c10 -3.33301 18.667 -5 26 -5s16 1.66699 26 5l-276 -726c-10 3.33301 -18.667 5 -26 5s-16 -1.66699 -26 -5z" />
    <glyph glyph-name="zero" unicode="0" horiz-adv-x="556" 
d="M126 328c0 -208 50.667 -311.999 152 -311.999s152 104 152 312s-50.667 312 -152 312c-54.667 0 -93.667 -26.833 -117 -80.5s-35 -130.834 -35 -231.501zM44 328.001c0 49.333 4.16699 93.999 12.5 133.999s21.333 76 39 108s42 57 73 75s67.5 27 109.5 27
c46 0 85 -8.83301 117 -26.5s56.167 -43 72.5 -76s27.833 -68.833 34.5 -107.5s10 -83.334 10 -134.001c0 -63.333 -8 -120.166 -24 -170.499s-42 -91.833 -78 -124.5s-80 -49 -132 -49c-46 0 -85 8.83301 -117 26.5s-56.167 43 -72.5 76s-27.833 68.833 -34.5 107.5
s-10 83.334 -10 134.001z" />
    <glyph glyph-name="one" unicode="1" horiz-adv-x="556" 
d="M243 252v356l-119 -66c-6 12 -16 22.667 -30 32v7c78 32 154 66.667 228 104l7 -5c-5.33301 -92.667 -8 -179.667 -8 -261v-167c0 -80.667 2.66699 -166.334 8 -257.001c-18 3.33301 -33.667 5 -47 5s-29 -1.66699 -47 -5c5.33301 76.667 8 162.334 8 257.001z" />
    <glyph glyph-name="two" unicode="2" horiz-adv-x="556" 
d="M99 524l-34.999 48.999c40.667 66 101.667 99 183 99c56 0 101.667 -14.833 137 -44.5s53 -73.834 53 -132.501c0 -43.333 -9.66699 -82.333 -29 -117s-51.666 -75 -96.999 -121l-41.5 -42l-54.5 -55.5c-12 -12.333 -26.833 -28.5 -44.5 -48.5s-31.5 -36.667 -41.5 -50
h95c76.667 0 151.667 2.66699 225 8c-3.33301 -13.333 -5 -25.666 -5 -36.999s1.66699 -23.666 5 -36.999c-78.667 3.33301 -150 5 -214 5c-63.333 -0 -135 -1.66699 -215 -5v15c97.333 96 167.666 169.333 210.999 220s73.166 94.667 89.499 132s24.5 80 24.5 128
c0 47.333 -10.667 83.333 -32 108s-48 37 -80 37c-38 0 -67.5 -11.667 -88.5 -35s-33.833 -48 -38.5 -74z" />
    <glyph glyph-name="three" unicode="3" horiz-adv-x="556" 
d="M102 558l-23.002 53.999c41.333 40 90 60 146 60s101.833 -12.5 137.5 -37.5s53.5 -62.167 53.5 -111.5c0 -44 -13.833 -80.5 -41.5 -109.5s-58.834 -47.833 -93.501 -56.5v-6c18.667 -1.33301 36.834 -4.66602 54.501 -9.99902s35.5 -13.333 53.5 -24
s32.333 -26.5 43 -47.5s16 -45.5 16 -73.5c0 -61.333 -23.667 -112 -71 -152s-108.666 -60 -183.999 -60c-51.333 0 -101.666 11.667 -150.999 35c6.66699 14.667 10.667 34.667 12 60l6 4c38 -44.667 83 -67 135 -67c48.667 0 87.667 15.5 117 46.5s44 71.167 44 120.5
c0 99.333 -47 149 -141 149c-14 0 -29 -2 -45 -6c1.33301 9.33301 2 16.333 2 21s-0.666992 11.667 -2 21c18.667 -2.66699 33.667 -4 45 -4c22 0 41 4.66699 57 14s27.833 22 35.5 38s13 32.167 16 48.5s4.5 33.833 4.5 52.5c0 40 -10.5 70.5 -31.5 91.5
s-46.167 31.5 -75.5 31.5c-26 0 -49.333 -7.83301 -70 -23.5s-34.667 -34.5 -42 -56.5z" />
    <glyph glyph-name="four" unicode="4" horiz-adv-x="556" 
d="M21 179l0.00195312 18c170 238 279 394.333 327 469c12 -3.33301 23.333 -5 34 -5c10 0 20.667 1.66699 32 5c-4.66699 -90 -7 -232.667 -7 -428c34.667 0 67.334 2.66699 98.001 8c-3.33301 -12 -5 -23 -5 -33s1.66699 -21 5 -33c-22.667 4 -55.334 6 -98.001 6v-42
c0 -27.333 2 -77 6 -149c-16.667 3.33301 -31.334 5 -44.001 5s-27.334 -1.66699 -44.001 -5c5.33301 67.333 8 117 8 149v42c-77.333 0 -181.333 -2.33301 -312 -7zM333.002 238v336h-2c-117.333 -163.333 -194.333 -275.333 -231 -336h233z" />
    <glyph glyph-name="five" unicode="5" horiz-adv-x="556" 
d="M172 601l-14.001 -227c33.333 17.333 70.666 26 111.999 26c56.667 0 102.834 -18.333 138.501 -55s53.5 -81 53.5 -133c0 -64 -23.333 -118 -70 -162s-106.334 -66 -179.001 -66c-67.333 0 -120.666 13.333 -159.999 40v8c7.33301 18 12.333 37.333 15 58h7
c12 -23.333 31.5 -41.5 58.5 -54.5s54.833 -19.5 83.5 -19.5c42.667 0 78.834 16 108.501 48s44.5 77.667 44.5 137c0 52.667 -13.333 92 -40 118s-60 39 -100 39c-36 0 -70.333 -11 -103 -33l-11 7c6.66699 38.667 10 95 10 169c0 70 -2.66699 125 -8 165l9 6
c10.667 -2 29.334 -4 56.001 -6c29.333 -2 70 -3 122 -3c61.333 0 108 0.666992 140 2l5 -4c-4.66699 -16 -7 -34.667 -7 -56c0 -8 0.333008 -13.667 1 -17c-46.667 8.66699 -137.334 13 -272.001 13z" />
    <glyph glyph-name="six" unicode="6" horiz-adv-x="556" 
d="M403 669l14.998 -31.999l-5 -4c-16.667 4.66699 -34 7 -52 7c-36.667 0 -69.5 -11.667 -98.5 -35s-51.5 -53 -67.5 -89s-28.167 -72.667 -36.5 -110s-12.5 -72.333 -12.5 -105h2c37.333 64.667 91 97 161 97c20 0 40.333 -2.83301 61 -8.5s41.667 -14.834 63 -27.501
s38.833 -32.167 52.5 -58.5s20.5 -57.5 20.5 -93.5c0 -67.333 -20.167 -121.833 -60.5 -163.5s-94.166 -62.5 -161.499 -62.5c-63.333 0 -115.833 23.5 -157.5 70.5s-62.5 119.5 -62.5 217.5c-0.666992 75.333 10.333 143 33 203s56.834 108.167 102.501 144.5
s99.5 53.833 161.5 52.5c17.333 0 31.333 -1 42 -3zM417.998 189.001c0 52.667 -10.833 94.5 -32.5 125.5s-53.167 46.5 -94.5 46.5c-39.333 0 -72.333 -16.167 -99 -48.5s-40 -73.5 -40 -123.5c0 -50.667 12.667 -92.167 38 -124.5s57 -48.5 95 -48.5
c41.333 0 73.833 15.833 97.5 47.5s35.5 73.5 35.5 125.5z" />
    <glyph glyph-name="seven" unicode="7" horiz-adv-x="556" 
d="M507 657v-16c-150.667 -256.667 -270 -472 -358 -646c-13.333 3.33301 -26 5 -38 5c-10.667 -0 -22.667 -1.66699 -36 -5l354 592c-120 0 -236.333 -3.33301 -349 -10c2.66699 18.667 4 33.667 4 45c0 10.667 -1.33301 25.334 -4 44.001
c61.333 -4.66699 106.333 -7.33398 135 -8.00098c54.667 -1.33301 117.667 -2 189 -2c14 0 32 0.166992 54 0.5s38.333 0.5 49 0.5z" />
    <glyph glyph-name="eight" unicode="8" horiz-adv-x="556" 
d="M55 179c0 42.667 11.835 80.8301 35.502 114.497s60.167 58.5 109.5 74.5v7c-28.667 6.66699 -54.167 22.334 -76.5 47.001s-33.5 55 -33.5 91c0 43.333 17.5 80.666 52.5 111.999s80.167 47 135.5 47c62 0 109.333 -14.167 142 -42.5s49 -63.166 49 -104.499
c0 -32.667 -9.83301 -62.5 -29.5 -89.5s-47.167 -46.167 -82.5 -57.5v-7c14 -2.66699 28.167 -7.16699 42.5 -13.5s29.666 -15.666 45.999 -27.999s29.666 -29.5 39.999 -51.5s15.5 -47.333 15.5 -76c0 -64.667 -21.5 -117.167 -64.5 -157.5s-95.833 -60.5 -158.5 -60.5
c-64.667 0 -118 17.333 -160 52s-63 82.334 -63 143.001zM387.002 511.996c0 37.333 -9 68 -27 92s-45 36 -81 36c-35.333 0 -62 -12 -80 -36s-27 -54.667 -27 -92s9 -68 27 -92s44.667 -36 80 -36c36 0 63 12 81 36s27 54.667 27 92zM413.002 183.996
c0 49.333 -12.167 89.666 -36.5 120.999s-57.166 47 -98.499 47s-74.166 -15.667 -98.499 -47s-36.5 -71.666 -36.5 -120.999s12.167 -89.666 36.5 -120.999s57.166 -47 98.499 -47s74.166 15.667 98.499 47s36.5 71.666 36.5 120.999z" />
    <glyph glyph-name="nine" unicode="9" horiz-adv-x="556" 
d="M101 54l4.99512 3.00098c30.667 -27.333 63.667 -41 99 -41c34.667 0 65.334 9.83301 92.001 29.5s47.834 46 63.501 79s27.334 68.833 35.001 107.5s11.5 79 11.5 121h-2c-35.333 -62.667 -89.333 -94 -162 -94c-60 0 -107.333 17.5 -142 52.5s-52 83.833 -52 146.5
c0 62 20.333 113.167 61 153.5s94.334 60.5 161.001 60.5c65.333 0 119 -23.333 161 -70s63 -119.334 63 -218.001c0 -114.667 -26.5 -210 -79.5 -286s-124.833 -114 -215.5 -114c-29.333 0 -55.666 4.66699 -78.999 14c-5.33301 24 -12 42.667 -20 56zM402.995 484.001
c0 46 -12.167 83.5 -36.5 112.5s-56.5 43.5 -96.5 43.5c-39.333 0 -71.333 -16.667 -96 -50s-37 -77.333 -37 -132c0 -108 41 -162 123 -162c44 0 78.833 18.5 104.5 55.5s38.5 81.167 38.5 132.5z" />
    <glyph glyph-name="colon" unicode=":" horiz-adv-x="278" 
d="M82 411c0 15.333 5.66699 28.666 17 39.999s24.666 17 39.999 17s28.666 -5.66699 39.999 -17s17 -24.666 17 -39.999s-5.66699 -28.666 -17 -39.999s-24.666 -17 -39.999 -17s-28.666 5.66699 -39.999 17s-17 24.666 -17 39.999zM82 45
c0 15.333 5.66699 28.666 17 39.999s24.666 17 39.999 17s28.666 -5.66699 39.999 -17s17 -24.666 17 -39.999s-5.66699 -28.666 -17 -39.999s-24.666 -17 -39.999 -17s-28.666 5.66699 -39.999 17s-17 24.666 -17 39.999z" />
    <glyph glyph-name="semicolon" unicode=";" horiz-adv-x="278" 
d="M82 411c0 15.333 5.66699 28.666 17 39.999s24.666 17 39.999 17s28.666 -5.66699 39.999 -17s17 -24.666 17 -39.999s-5.66699 -28.666 -17 -39.999s-24.666 -17 -39.999 -17s-28.666 5.66699 -39.999 17s-17 24.666 -17 39.999zM30 -168l77 243
c7.33301 25.333 22 38 44 38c9.33301 0 17.833 -2.83301 25.5 -8.5s11.5 -14.167 11.5 -25.5c0 -9.33301 -5 -23.333 -15 -42l-125 -212z" />
    <glyph glyph-name="less" unicode="&#x3c;" horiz-adv-x="606" 
d="M50 228v52l506 236v-52l-459 -211l459 -211v-52z" />
    <glyph glyph-name="equal" unicode="=" horiz-adv-x="606" 
d="M556 376v-52h-506v52h506zM556 182v-52h-506v52h506z" />
    <glyph glyph-name="greater" unicode="&#x3e;" horiz-adv-x="606" 
d="M50 -10v52l459 211l-459 211v52l506 -238v-52z" />
    <glyph glyph-name="question" unicode="?" horiz-adv-x="389" 
d="M86 615l-6.00098 49.998c36 22 70.333 33 103 33c46 0 82.167 -12.667 108.5 -38s39.5 -56.666 39.5 -93.999c0 -26 -6.16699 -51.167 -18.5 -75.5s-27.166 -45.666 -44.499 -63.999l-52 -53.5c-17.333 -17.333 -32.166 -35.666 -44.499 -54.999s-18.5 -38.333 -18.5 -57
c0 -14.667 4.66699 -28.167 14 -40.5s22 -18.5 38 -18.5c12.667 0 24 3 34 9l6 -4c-6.66699 -8 -10.667 -17.333 -12 -28c-8.66699 -3.33301 -20.334 -5 -35.001 -5c-22.667 0 -46.167 9.5 -70.5 28.5s-36.5 46.5 -36.5 82.5c0 24.667 5.83301 48.167 17.5 70.5
s26 42.166 43 59.499l51 51c17 16.667 31.333 34.667 43 54s17.5 39 17.5 59c0 24 -8.66699 43.667 -26 59s-37.333 23 -60 23c-36 0 -66.333 -15.333 -91 -46zM124.999 44.998c0 15.333 5.66699 28.666 17 39.999s24.666 17 39.999 17s28.666 -5.66699 39.999 -17
s17 -24.666 17 -39.999s-5.66699 -28.666 -17 -39.999s-24.666 -17 -39.999 -17s-28.666 5.66699 -39.999 17s-17 24.666 -17 39.999z" />
    <glyph glyph-name="at" unicode="@" horiz-adv-x="800" 
d="M496 468l10.0029 53.9941h52c-36.667 -174.667 -55 -270 -55 -286c0 -23.333 11 -35 33 -35c28.667 0 57.5 19.167 86.5 57.5s43.5 83.5 43.5 135.5c0 72 -18.167 127.667 -54.5 167s-97.833 59 -184.5 59c-80 0 -146.333 -30.167 -199 -90.5s-79 -135.166 -79 -224.499
c0 -77.333 23 -136.666 69 -177.999s106.333 -62 181 -62c78 0 153.667 27.333 227 82l-3 -32c-23.333 -21.333 -56.5 -41.166 -99.5 -59.499s-92.5 -27.5 -148.5 -27.5c-34 0 -67.5 6.33301 -100.5 19s-63.667 31.167 -92 55.5s-51.333 57 -69 98s-26.5 86.833 -26.5 137.5
c0 83.333 32 156.5 96 219.5s146.667 94.5 248 94.5c52 0 97.167 -6.66699 135.5 -20s67.666 -31.666 87.999 -54.999s35.166 -48.5 44.499 -75.5s14 -56.167 14 -87.5c0 -68 -20.333 -125.167 -61 -171.5s-84.334 -69.5 -131.001 -69.5c-26 0 -43.333 5.83301 -52 17.5
s-13 29.834 -13 54.501h-2c-31.333 -48 -68 -72 -110 -72c-72 0 -108 44.667 -108 134c0 64.667 17.333 118.334 52 161.001s77 64 127 64c48.667 0 75 -21.333 79 -64h2zM476.003 424.994c0 24 -4.33398 42.5 -13.001 55.5s-24.667 19.5 -48 19.5
c-35.333 0 -63.666 -21.333 -84.999 -64s-32 -87 -32 -133c0 -32 4.33301 -55.5 13 -70.5s24.667 -22.5 48 -22.5c24 0 45.333 13.333 64 40s32.167 56 40.5 88s12.5 61 12.5 87z" />
    <glyph glyph-name="A" unicode="A" horiz-adv-x="667" 
d="M330 698l19.002 -0.000976562l79 -188l90.5 -215.5l73.5 -172.5c26 -60 45.333 -102.333 58 -127c-20 3.33301 -37.667 5 -53 5s-33 -1.66699 -53 -5c-4.66699 16 -11.334 36.167 -20.001 60.5s-16.667 45.5 -24 63.5l-31.5 76.5l-27.5 67.5
c-57.333 1.33301 -101 2 -131 2c-26.667 0 -67.334 -0.666992 -122.001 -2c-48.667 -119.333 -81 -208.666 -97 -267.999c-14.667 3.33301 -27 5 -37 5s-22.333 -1.66699 -37 -5zM427.002 308.999l-110.999 254l-109 -254c11.333 0 29.333 -0.333008 54 -1s42.667 -1 54 -1
c25.333 0 62.666 0.666992 111.999 2z" />
    <glyph glyph-name="B" unicode="B" horiz-adv-x="611" 
d="M98 255l0.00195312 172c0 58.667 -2.66699 144.667 -8 258c38.667 -3.33301 74 -5 106 -5c12 0 29.667 0.833008 53 2.5s41 2.5 53 2.5c140.667 0 211 -48 211 -144c0 -92 -56 -150.333 -168 -175v-2c128 -6.66699 192 -62.667 192 -168
c0 -35.333 -7.66699 -66.5 -23 -93.5s-35.5 -48 -60.5 -63s-51.833 -26.167 -80.5 -33.5s-58.334 -11 -89.001 -11c-10.667 0 -26.834 0.833008 -48.501 2.5s-37.834 2.5 -48.501 2.5c-29.333 -0 -61.666 -1.66699 -96.999 -5c5.33301 116 8 202.667 8 260zM180.002 378
l54 -0.000976562c25.333 0 48.666 2.33301 69.999 7s41.5 12.334 60.5 23.001s33.833 25.667 44.5 45s16 42.333 16 69c0 84 -54.333 126 -163 126c-29.333 0 -54.666 -1.66699 -75.999 -5c-4 -126 -6 -189.333 -6 -190v-75zM180.002 340.999v-101.999
c0 -0.666992 2 -68 6 -202c28 -3.33301 60.667 -5 98 -5c45.333 0 83.5 15 114.5 45s46.5 71 46.5 123c0 53.333 -18.5 90.166 -55.5 110.499s-91.833 30.5 -164.5 30.5h-45z" />
    <glyph glyph-name="C" unicode="C" horiz-adv-x="667" 
d="M624 98l-9.00195 -58.9971c-16 -12.667 -43.5 -25.334 -82.5 -38.001s-80.833 -19 -125.5 -19c-108 0 -195.833 31.833 -263.5 95.5s-101.5 151.167 -101.5 262.5s34.333 198.833 103 262.5s159.334 95.5 272.001 95.5c78.667 0 151 -15.333 217 -46
c-6 -11.333 -13 -37.333 -21 -78l-6 -2c-20 22 -46.333 42.333 -79 61s-69.667 28 -111 28c-82.667 0 -149.5 -26.833 -200.5 -80.5s-76.5 -133.834 -76.5 -240.501s25.5 -186.834 76.5 -240.501s117.833 -80.5 200.5 -80.5c28.667 0 57.834 5.5 87.501 16.5
s51.5 21.167 65.5 30.5s30.667 21.333 50 36z" />
    <glyph glyph-name="D" unicode="D" horiz-adv-x="778" 
d="M180 426l0.000976562 -171.999c0 -72 2 -142.667 6 -212c31.333 -6.66699 75 -10 131 -10c32 0 61.667 2.66699 89 8s54.833 15.166 82.5 29.499s51.167 33.166 70.5 56.499s35 54.5 47 93.5s18 83.833 18 134.5c0 56 -6.83301 103.5 -20.5 142.5
s-33.834 68.833 -60.501 89.5s-56.167 35.334 -88.5 44.001s-70.5 13 -114.5 13c-48 0 -99.333 -3.33301 -154 -10c-4 -64 -6 -133 -6 -207zM98.001 254.001l-0.00292969 172.001c0 58 -2.66699 144.333 -8 259c55.333 -3.33301 105.666 -5 150.999 -5
c16.667 0 41.834 0.833008 75.501 2.5s58.834 2.5 75.501 2.5c220 0 330 -110.333 330 -331c0 -51.333 -7.66699 -97.833 -23 -139.5s-35.166 -75.834 -59.499 -102.501s-52.666 -49 -84.999 -67s-64.833 -30.833 -97.5 -38.5s-65.667 -11.5 -99 -11.5
c-14.667 0 -37 0.833008 -67 2.5s-52.333 2.5 -67 2.5c-39.333 0 -84 -1.66699 -134 -5c5.33301 114.667 8 201 8 259z" />
    <glyph glyph-name="E" unicode="E" 
d="M98 255v171.999c0 58.667 -2.66699 144.667 -8 258c66.667 -3.33301 126.334 -5 179.001 -5c53.333 0 112.666 1.66699 177.999 5c-2 -10 -3 -20 -3 -30s1 -20 3 -30c-121.333 8.66699 -209 13 -263 13c0 -9.33301 -0.666992 -28.166 -2 -56.499s-2 -51.833 -2 -70.5
c0 -19.333 0.166992 -44.666 0.5 -75.999s0.5 -50 0.5 -56c83.333 0 164.333 3.33301 243 10c-2 -10 -3 -20.333 -3 -31c0 -10 1 -20 3 -30c-59.333 6 -140.333 9 -243 9c-0.666992 -16 -1 -64.333 -1 -145c0 -66.667 0.666992 -116.667 2 -150
c134.667 0 224.667 4.33301 270 13c-2 -8.66699 -3 -19 -3 -31c0 -10.667 1 -20.334 3 -29.001c-65.333 3.33301 -125.333 5 -180 5c-53.333 -0 -114 -1.66699 -182 -5c5.33301 116 8 202.667 8 260z" />
    <glyph glyph-name="F" unicode="F" 
d="M98 254l-0.000976562 172c0 58 -2.66699 144.333 -8 259c66.667 -3.33301 126.334 -5 179.001 -5c47.333 0 111 1.66699 191 5c-2 -10 -3 -20 -3 -30s1 -20 3 -30c-89.333 8.66699 -182.333 13 -279 13c-1.33301 -62.667 -2 -106.334 -2 -131.001
c0 -15.333 0.166992 -36.666 0.5 -63.999s0.5 -48 0.5 -62c102.667 0 188.667 3.33301 258 10c-2.66699 -13.333 -4 -23.333 -4 -30s1.33301 -16.667 4 -30c-51.333 5.33301 -137.333 8 -258 8v-85c0 -58 2.66699 -144.333 8 -259c-18.667 3.33301 -35 5 -49 5
s-30.333 -1.66699 -49 -5c5.33301 114.667 8 201 8 259z" />
    <glyph glyph-name="G" unicode="G" horiz-adv-x="778" 
d="M683 563l-11.9971 0.000976562c-22.667 27.333 -53.334 50.5 -92.001 69.5s-81.334 28.5 -128.001 28.5c-87.333 0 -158 -26.833 -212 -80.5s-81 -133.834 -81 -240.501c0 -98.667 26.333 -176 79 -232s125.667 -84 219 -84c72 0 125.333 10.667 160 32
c1.33301 53.333 2 93.666 2 120.999c0 21.333 -1.66699 67 -5 137c14.667 -3.33301 30.667 -5 48 -5c18 0 32.333 1.66699 43 5c-2.66699 -40 -4 -107.667 -4 -203c0 -8.66699 0.166992 -22 0.5 -40s0.5 -31.667 0.5 -41c-32.667 -11.333 -74.334 -22.166 -125.001 -32.499
s-94 -15.5 -130 -15.5c-120.667 0 -215.167 30.833 -283.5 92.5s-102.5 150.167 -102.5 265.5c0 112 35.167 199.667 105.5 263s165.5 95 285.5 95c97.333 0 182.333 -19.333 255 -58c-12 -21.333 -19.667 -47 -23 -77z" />
    <glyph glyph-name="H" unicode="H" horiz-adv-x="778" 
d="M598 391l0.00390625 35c0 58 -2.66699 144.333 -8 259c18.667 -3.33301 35 -5 49 -5s30.333 1.66699 49 5c-5.33301 -114.667 -8 -201 -8 -259v-172c0 -58 2.66699 -144.333 8 -259c-18.667 3.33301 -35 5 -49 5s-30.333 -1.66699 -49 -5c5.33301 114.667 8 201 8 259v90
c-93.333 1.33301 -163 2 -209 2s-115.667 -0.666992 -209 -2v-90c0 -58 2.66699 -144.333 8 -259c-18.667 3.33301 -35 5 -49 5s-30.333 -1.66699 -49 -5c5.33301 114.667 8 201 8 259v172c0 58 -2.66699 144.333 -8 259c18.667 -3.33301 35 -5 49 -5s30.333 1.66699 49 5
c-5.33301 -114.667 -8 -201 -8 -259v-35c15.333 0 37.166 -0.333008 65.499 -1s54.166 -1.16699 77.499 -1.5s45.333 -0.5 66 -0.5s42.667 0.166992 66 0.5s49.166 0.833008 77.499 1.5s50.166 1 65.499 1z" />
    <glyph glyph-name="I" unicode="I" horiz-adv-x="278" 
d="M98 254v172c0 58 -2.66699 144.333 -8 259c18.667 -3.33301 35 -5 49 -5s30.333 1.66699 49 5c-5.33301 -114.667 -8 -201 -8 -259v-172c0 -58 2.66699 -144.333 8 -259c-18.667 3.33301 -35 5 -49 5s-30.333 -1.66699 -49 -5c5.33301 114.667 8 201 8 259z" />
    <glyph glyph-name="J" unicode="J" horiz-adv-x="278" 
d="M-22 -144l-8 28c22.667 0 42 4.5 58 13.5s28.5 20.5 37.5 34.5s16 33.167 21 57.5s8.16699 48.333 9.5 72s2 53.5 2 89.5v275c0 58 -2.66699 144.333 -8 259c18.667 -3.33301 35 -5 49 -5s30.333 1.66699 49 5c-5.33301 -114.667 -8 -201 -8 -259
c0 -42 0.5 -104.333 1.5 -187s1.5 -139 1.5 -169c0 -60.667 -19 -111.5 -57 -152.5s-87.333 -61.5 -148 -61.5z" />
    <glyph glyph-name="K" unicode="K" horiz-adv-x="611" 
d="M90 -5c5.33301 114.667 7.99707 200.999 7.99707 258.999v172c0 58 -2.66699 144.333 -8 259c18.667 -3.33301 35 -5 49 -5s30.333 1.66699 49 5c-5.33301 -114.667 -8 -201 -8 -259v-55c0 -5.33301 2 -8 6 -8c2.66699 0 7.33398 3 14.001 9
c74 64.667 174.333 169 301 313c14.667 -3.33301 28.334 -5 41.001 -5c14 0 30 1.66699 48 5l-173.5 -161c-64.333 -62 -113.166 -112.333 -146.499 -151l331 -378c-22 3.33301 -42 5 -60 5c-16.667 0 -35 -1.66699 -55 -5c-158.667 194.667 -255 309.334 -289 344.001
c-5.33301 5.33301 -9.33301 8 -12 8c-3.33301 0 -5 -2 -5 -6v-87c0 -58 2.66699 -144.333 8 -259c-18.667 3.33301 -35 5 -49 5s-30.333 -1.66699 -49 -5z" />
    <glyph glyph-name="L" unicode="L" 
d="M98 254l0.000976562 172c0 58 -2.66699 144.333 -8 259c18.667 -3.33301 35 -5 49 -5s30.333 1.66699 49 5c-5.33301 -114.667 -8 -201 -8 -259c0 -60 1 -188 3 -384c117.333 0 209.333 4.33301 276 13c-3.33301 -11.333 -5 -21.333 -5 -30s1.66699 -18.667 5 -30
c-68 3.33301 -129.333 5 -184 5s-116.334 -1.66699 -185.001 -5c5.33301 114.667 8 201 8 259z" />
    <glyph glyph-name="M" unicode="M" horiz-adv-x="889" 
d="M145 698l17 0.000976562c71.333 -147.333 167 -331 287 -551l133.5 247.5l163.5 303.5h13l26 -233l29 -255.5c8.66699 -75 17.667 -146.5 27 -214.5c-18 3.33301 -33.667 5 -47 5s-29 -1.66699 -47 -5c-16.667 214.667 -33 386.667 -49 516h-2l-38 -69.5l-41 -75.5
l-36.5 -68c-17.667 -32.667 -31 -58 -40 -76l-34.5 -69l-38.5 -79l-33.5 -74h-9l-77.5 158.5l-96.5 189.5l-83 163h-2c-31.333 -272.667 -47.333 -444.667 -48 -516c-13.333 3.33301 -25 5 -35 5s-21.667 -1.66699 -35 -5c46.667 293.333 79 527.666 97 702.999z" />
    <glyph glyph-name="N" unicode="N" horiz-adv-x="778" 
d="M675 -18l-14.002 -0.000976562c-91.333 107.333 -259.666 291.666 -504.999 552.999c-2 -74 -3 -141.667 -3 -203c0 -176.667 3 -289 9 -337c-12 3.33301 -23.667 5 -35 5c-10 0 -22.333 -1.66699 -37 -5c4 24 8.5 86.333 13.5 187s7.5 183.334 7.5 248.001
c0 148.667 -1 238 -3 268h16c264.667 -287.333 433.334 -467.666 506.001 -540.999c0 249.333 -2.66699 425.333 -8 528c12 -3.33301 23.333 -5 34 -5c9.33301 0 20 1.66699 32 5c-3.33301 -30.667 -6.83301 -84.667 -10.5 -162s-5.5 -135 -5.5 -173
c0 -155.333 1 -278 3 -368z" />
    <glyph glyph-name="O" unicode="O" horiz-adv-x="833" 
d="M693 340c0 106.667 -25.5 186.832 -76.5 240.499s-117.833 80.5 -200.5 80.5s-149.334 -27 -200.001 -81s-76 -134 -76 -240s25.333 -186 76 -240s117.334 -81 200.001 -81s149.5 26.833 200.5 80.5s76.5 133.834 76.5 240.501zM42 339.998
c0 111.333 34.333 198.833 103 262.5s159 95.5 271 95.5c112.667 0 203.334 -31.833 272.001 -95.5s103 -151.167 103 -262.5s-34.333 -198.833 -103 -262.5s-159.334 -95.5 -272.001 -95.5c-112 0 -202.333 31.833 -271 95.5s-103 151.167 -103 262.5z" />
    <glyph glyph-name="P" unicode="P" horiz-adv-x="556" 
d="M98 254l0.00195312 172.001c0 58 -2.66699 144.333 -8 259c35.333 -3.33301 67.666 -5 96.999 -5c11.333 0 32.666 0.833008 63.999 2.5s51.333 2.5 60 2.5c146 0 219 -56.333 219 -169c0 -33.333 -6.33301 -63 -19 -89s-28.5 -46.333 -47.5 -61
s-41.167 -26.834 -66.5 -36.501s-48.833 -16 -70.5 -19s-43.5 -4.5 -65.5 -4.5c-28 0 -55 1 -81 3v-55c0 -58 2.66699 -144.333 8 -259c-18.667 3.33301 -35 5 -49 5s-30.333 -1.66699 -49 -5c5.33301 114.667 8 201 8 259zM180.002 648.001v-297
c22.667 -5.33301 46.334 -8 71.001 -8c18 0 35.167 1.33301 51.5 4s33 7.83398 50 15.501s31.5 17.5 43.5 29.5s22 28.167 30 48.5s12 43.5 12 69.5c0 53.333 -13.833 89.666 -41.5 108.999s-69.834 29 -126.501 29h-90z" />
    <glyph glyph-name="Q" unicode="Q" horiz-adv-x="833" 
d="M693 340c0 106.667 -25.5 186.832 -76.5 240.499s-117.833 80.5 -200.5 80.5s-149.334 -27 -200.001 -81s-76 -134 -76 -240s25.333 -186 76 -240s117.334 -81 200.001 -81s149.5 26.833 200.5 80.5s76.5 133.834 76.5 240.501zM42 339.998
c0 111.333 34.334 198.834 103.001 262.501s159 95.5 271 95.5c112.667 0 203.334 -31.833 272.001 -95.5s103 -151.167 103 -262.5c0 -92 -23.5 -167.833 -70.5 -227.5s-111.5 -99.167 -193.5 -118.5c87.333 -70 162.666 -127.333 225.999 -172
c-16 -0.666992 -31.5 -5.33398 -46.5 -14.001s-25.5 -17.667 -31.5 -27c-92 84 -168.667 151.333 -230 202c-6.66699 -0.666992 -16.334 -1 -29.001 -1c-112 0 -202.333 31.833 -271 95.5s-103 151.167 -103 262.5z" />
    <glyph glyph-name="R" unicode="R" horiz-adv-x="611" 
d="M180 426v-57.001c14.667 -3.33301 37 -5 67 -5c30.667 0 59.5 4.16699 86.5 12.5s51.167 24.5 72.5 48.5s32 54.667 32 92c0 24.667 -4.66699 46 -14 64s-22 31.667 -38 41s-32.5 16 -49.5 20s-34.833 6 -53.5 6c-30 0 -62.333 -1.66699 -97 -5
c-4 -97.333 -6 -169.666 -6 -216.999zM98 253.999l-0.000976562 171.997c0 58 -2.66699 144.333 -8 259c42 -3.33301 80 -5 114 -5c12.667 0 31.667 0.833008 57 2.5s44.333 2.5 57 2.5c62.667 0 113 -12.333 151 -37s57 -65 57 -121c0 -30.667 -7 -58.167 -21 -82.5
s-32 -43.666 -54 -57.999s-43.833 -25.666 -65.5 -33.999s-43.167 -13.833 -64.5 -16.5l74.5 -94.5l118.5 -149c36.667 -45.667 63.667 -78.167 81 -97.5c-22 3.33301 -42 5 -60 5c-17.333 0 -36.666 -1.66699 -57.999 -5c-27.333 41.333 -67.833 97.333 -121.5 168
s-99.5 125.334 -137.5 164.001h-38v-73c0 -58 2.66699 -144.333 8 -259c-18.667 3.33301 -35 5 -49 5s-30.333 -1.66699 -49 -5c5.33301 114.667 8 201 8 259z" />
    <glyph glyph-name="S" unicode="S" 
d="M64 128l12.002 -0.00195312c13.333 -28 33.166 -52.333 59.499 -73s59.166 -31 98.499 -31c43.333 0 78 13.833 104 41.5s39 62.167 39 103.5c0 24.667 -5.83301 46 -17.5 64s-26.667 32.333 -45 43s-38.666 20.5 -60.999 29.5s-44.833 18.667 -67.5 29
s-43.167 22.333 -61.5 36s-33.333 32.167 -45 55.5s-17.5 51 -17.5 83c0 56 19.667 101.5 59 136.5s92 52.5 158 52.5c59.333 0 108.666 -15.667 147.999 -47c-10.667 -20 -19.667 -48 -27 -84h-12c-24 62.667 -63.667 94 -119 94c-37.333 0 -68.166 -11.5 -92.499 -34.5
s-36.5 -52.833 -36.5 -89.5c0 -25.333 5.83301 -47.166 17.5 -65.499s26.667 -32.833 45 -43.5s38.833 -20.5 61.5 -29.5l67.5 -28c22.333 -9.66699 42.666 -20.834 60.999 -33.501s33.333 -30 45 -52s17.5 -48 17.5 -78c0 -63.333 -22.167 -116.666 -66.5 -159.999
s-103.833 -65 -178.5 -65c-62.667 0 -117.667 19 -165 57c8.66699 22.667 15 52.334 19 89.001z" />
    <glyph glyph-name="T" unicode="T" horiz-adv-x="556" 
d="M237 254v171.999c0 69.333 -1 138.333 -3 207c-84 0 -155.333 -3.66699 -214 -11c3.33301 11.333 5 22 5 32c0 8.66699 -1.66699 19 -5 31c95.333 -3.33301 181.333 -5 258 -5s162.667 1.66699 258 5c-3.33301 -12 -5 -22.667 -5 -32s1.66699 -19.666 5 -30.999
c-58.667 7.33301 -130 11 -214 11c-2 -68.667 -3 -137.667 -3 -207v-172c0 -58 2.66699 -144.333 8 -259c-18.667 3.33301 -35 5 -49 5s-30.333 -1.66699 -49 -5c5.33301 114.667 8 201 8 259z" />
    <glyph glyph-name="U" unicode="U" horiz-adv-x="778" 
d="M619 360c0 190.667 -2.00098 298.995 -6.00098 324.995c14.667 -3.33301 28.334 -5 41.001 -5c10 0 20 1.66699 30 5c-10 -113.333 -16 -251.666 -18 -414.999c-1.33301 -89.333 -26.833 -159.666 -76.5 -210.999s-119.167 -77 -208.5 -77c-98.667 0 -171 23.333 -217 70
s-69 118.667 -69 216c0 21.333 0.833008 49 2.5 83s2.5 59 2.5 75c0 56.667 -2 143 -6 259c18 -3.33301 35.333 -5 52 -5c14 0 28.333 1.66699 43 5c-8 -78.667 -12 -193 -12 -343c0 -23.333 0.166992 -41.166 0.5 -53.499s1.33301 -29.833 3 -52.5s4.5 -40.5 8.5 -53.5
s9.33301 -28.667 16 -47s15.5 -33 26.5 -44s24.167 -21.833 39.5 -32.5s33.833 -18.334 55.5 -23.001s46.167 -7 73.5 -7c24 0 45.833 2.5 65.5 7.5s36.5 11.333 50.5 19s26.667 18.167 38 31.5s20.5 26 27.5 38s13 27.333 18 46s8.83301 34.334 11.5 47.001
s4.5 29.334 5.5 50.001s1.66699 36.334 2 47.001s0.5 25.667 0.5 45z" />
    <glyph glyph-name="V" unicode="V" horiz-adv-x="667" 
d="M296 -5c-50 138 -142.998 368.001 -278.998 690.001c18.667 -3.33301 36 -5 52 -5s33.333 1.66699 52 5c48 -143.333 124 -340.333 228 -591c34.667 77.333 75.5 177.666 122.5 300.999s81.833 220 104.5 290c13.333 -3.33301 25.666 -5 36.999 -5
s23.666 1.66699 36.999 5c-104 -230 -200 -460 -288 -690c-12 3.33301 -23 5 -33 5c-12 -0 -23 -1.66699 -33 -5z" />
    <glyph glyph-name="W" unicode="W" horiz-adv-x="1000" 
d="M229 -5c-117.333 387.333 -189.336 617.331 -216.003 689.998c18.667 -3.33301 35.334 -5 50.001 -5s31.334 1.66699 50.001 5c36.667 -145.333 94.334 -342.666 173.001 -591.999h2c2.66699 8.66699 21 63.667 55 165l88 266.5c24.667 76.333 40.667 129.833 48 160.5
c12 -3.33301 23 -5 33 -5s21 1.66699 33 5c26 -93.333 89.667 -290.666 191 -591.999h2c19.333 58 51.833 161.5 97.5 310.5s72.834 242.833 81.501 281.5c13.333 -3.33301 25 -5 35 -5s21.667 1.66699 35 5c-36.667 -88 -116.334 -318 -239.001 -690
c-12 3.33301 -23.333 5 -34 5s-22 -1.66699 -34 -5l-184 573h-2l-195 -573c-13.333 3.33301 -25 5 -35 5s-21.667 -1.66699 -35 -5z" />
    <glyph glyph-name="X" unicode="X" horiz-adv-x="611" 
d="M319 411c59.333 87.333 114.999 178.667 166.999 274c13.333 -3.33301 25.666 -5 36.999 -5s23.666 1.66699 36.999 5c-119.333 -166.667 -192 -270.667 -218 -312l232 -378c-21.333 3.33301 -40 5 -56 5s-34.667 -1.66699 -56 -5c-78 149.333 -134.667 250.333 -170 303
c-61.333 -91.333 -121.666 -192.333 -180.999 -303c-13.333 3.33301 -25.666 5 -36.999 5s-23.666 -1.66699 -36.999 -5l231 344l-212 346c20 -3.33301 38 -5 54 -5s34 1.66699 54 5c31.333 -64 83 -155.333 155 -274z" />
    <glyph glyph-name="Y" unicode="Y" horiz-adv-x="611" 
d="M265 279c-122.667 212 -203.667 347.334 -243 406.001c20 -3.33301 38.333 -5 55 -5s35 1.66699 55 5c50.667 -99.333 114 -214.666 190 -345.999c64.667 101.333 127.667 216.666 189 345.999c14.667 -3.33301 27.667 -5 39 -5s24.333 1.66699 39 5
c-124 -190.667 -204.667 -322.334 -242 -395.001c0 -130.667 2.66699 -229 8 -295c-18.667 3.33301 -35 5 -49 5s-30.333 -1.66699 -49 -5c5.33301 47.333 8 142 8 284z" />
    <glyph glyph-name="Z" unicode="Z" horiz-adv-x="611" 
d="M23 -5l-0.000976562 17.002l245 347l188 277c-32 1.33301 -55.333 2 -70 2c-120 0 -227.333 -5 -322 -15c3.33301 11.333 5 21.666 5 30.999s-1.66699 19.666 -5 30.999c43.333 -3.33301 182.333 -5 417 -5c14.667 0 50.334 1.66699 107.001 5v-18
c-36 -40 -109.833 -140.167 -221.5 -300.5s-183.5 -267.5 -215.5 -321.5c32 -2 59.667 -3 83 -3c142.667 0 260.667 6 354 18c-3.33301 -13.333 -5 -24.333 -5 -33c0 -9.33301 1.66699 -20 5 -32c-106.667 3.33301 -185 5 -235 5c-164.667 -0 -274.667 -1.66699 -330 -5z
" />
    <glyph glyph-name="bracketleft" unicode="[" horiz-adv-x="333" 
d="M138 155v252.002c0 92.667 -2 184.667 -6 276c14.667 -2 31.667 -3 51 -3c20.667 0 58 1 112 3c-1.33301 -6.66699 -2 -11.334 -2 -14.001c0 -3.33301 0.666992 -8.33301 2 -15c-37.333 1.33301 -67.666 2 -90.999 2c-5.33301 -87.333 -8 -170.333 -8 -249v-252
c0 -78.667 2.66699 -161.667 8 -249c23.333 0 53.666 0.666992 90.999 2c-1.33301 -6.66699 -2 -11.667 -2 -15c0 -2.66699 0.666992 -7.33398 2 -14.001c-54 2 -91.333 3 -112 3c-19.333 0 -36.333 -1 -51 -3c4 91.333 6 183.333 6 276z" />
    <glyph glyph-name="backslash" unicode="\" 
d="M362 -23l-276 726c10 -3.33301 18.667 -5 26 -5s16 1.66699 26 5l276 -726c-10 3.33301 -18.667 5 -26 5s-16 -1.66699 -26 -5z" />
    <glyph glyph-name="bracketright" unicode="]" horiz-adv-x="333" 
d="M137 155v251.998c0 78.667 -2.66699 161.667 -8 249c-23.333 0 -53.666 -0.666992 -90.999 -2c1.33301 6.66699 2 11.667 2 15c0 2.66699 -0.666992 7.33398 -2 14.001c54 -2 91.333 -3 112 -3c18.667 0 35.667 1 51 3c-4 -91.333 -6 -183.333 -6 -276v-252
c0 -92.667 2 -184.667 6 -276c-15.333 2 -32.333 3 -51 3c-20.667 0 -58 -1 -112 -3c1.33301 6.66699 2 11.334 2 14.001c0 3.33301 -0.666992 8.33301 -2 15c37.333 -1.33301 67.666 -2 90.999 -2c5.33301 87.333 8 170.333 8 249z" />
    <glyph glyph-name="asciicircum" unicode="^" horiz-adv-x="606" 
d="M42 203l236 453h52l234 -453h-52l-209 406l-209 -406h-52z" />
    <glyph glyph-name="underscore" unicode="_" 
d="M500 -130h-500v50h500v-50z" />
    <glyph glyph-name="grave" unicode="`" horiz-adv-x="333" 
d="M193 559l-146.999 93.999c-24 14.667 -36 30.334 -36 47.001c0 9.33301 3.66699 17 11 23s14.666 9 21.999 9c14 0 29 -8 45 -24l147 -149h-42z" />
    <glyph glyph-name="a" unicode="a" 
d="M86 373l0.00195312 51.9971c51.333 38.667 105 58 161 58c48 0 87 -13.5 117 -40.5s45 -62.833 45 -107.5c0 -24 -0.666992 -61.667 -2 -113s-2 -91.333 -2 -120c0 -11.333 0.166992 -20.166 0.5 -26.499s1.66602 -13.833 3.99902 -22.5s6.33301 -15 12 -19
s13.167 -6 22.5 -6s16.333 1.33301 21 4v-22c-22 -9.33301 -43.333 -14 -64 -14s-36.834 5.83301 -48.501 17.5s-18.5 26.5 -20.5 44.5c-25.333 -25.333 -49.666 -43.833 -72.999 -55.5s-51.333 -17.5 -84 -17.5c-35.333 0 -66.333 11.333 -93 34s-40 52.334 -40 89.001
c0 76 47 121.667 141 137c49.333 8 84.166 14.833 104.499 20.5s33 11.667 38 18s7.5 16.833 7.5 31.5c0 36.667 -9 66.834 -27 90.501s-45.667 35.5 -83 35.5c-26.667 0 -51.5 -6 -74.5 -18s-40.167 -28.667 -51.5 -50h-11zM329.002 96.9971l4 149.998
c-10.667 -3.33301 -30.667 -7.83301 -60 -13.5s-53.333 -11.167 -72 -16.5s-36.167 -16.166 -52.5 -32.499s-24.5 -37.166 -24.5 -62.499c0 -30 8.5 -53.333 25.5 -70s37.5 -25 61.5 -25s46.5 6.66699 67.5 20s37.833 30 50.5 50z" />
    <glyph glyph-name="b" unicode="b" horiz-adv-x="556" 
d="M514 248c0 -76 -21.668 -138.833 -65.001 -188.5s-97.333 -74.5 -162 -74.5c-30 0 -58.167 7.16699 -84.5 21.5s-46.5 31.5 -60.5 51.5c-19.333 -14.667 -41.666 -34 -66.999 -58h-18c5.33301 55.333 8 149.666 8 282.999v181c0 132.667 -2.66699 228.667 -8 288
c16.667 -3.33301 31.667 -5 45 -5c11.333 0 27.666 1.66699 48.999 5c-4.66699 -35.333 -8.66699 -159.666 -12 -372.999h2c44.667 69.333 101.334 104 170.001 104c65.333 0 115.5 -22.5 150.5 -67.5s52.5 -100.833 52.5 -167.5zM425.999 251
c0 58.667 -13.3311 105.001 -39.998 139.001s-58.334 51 -95.001 51c-46.667 0 -84.167 -17.833 -112.5 -53.5s-42.5 -92.167 -42.5 -169.5c0 -66 12.5 -116 37.5 -150s61.167 -51 108.5 -51c41.333 0 75.666 21.667 102.999 65s41 99.666 41 168.999z" />
    <glyph glyph-name="c" unicode="c" 
d="M42 234c0 81.333 24.9971 143.164 74.9971 185.497s110 63.5 180 63.5c34.667 0 66.834 -4.33301 96.501 -13s51.167 -19 64.5 -31c-10 -22.667 -17.333 -44.667 -22 -66h-8c-11.333 20 -28.333 38 -51 54s-48.334 24 -77.001 24c-58 0 -100.833 -19.667 -128.5 -59
s-41.5 -91.666 -41.5 -156.999c0 -68 14.833 -119.667 44.5 -155s72.5 -53 128.5 -53c26 0 53 6.66699 81 20s51 30.333 69 51l5 -3c-2.66699 -15.333 -4.66699 -31.666 -6 -48.999c-21.333 -17.333 -47.166 -31.833 -77.499 -43.5s-60.166 -17.5 -89.499 -17.5
c-65.333 0 -122.166 20.833 -170.499 62.5s-72.5 103.834 -72.5 186.501z" />
    <glyph glyph-name="d" unicode="d" horiz-adv-x="556" 
d="M413 -5l3 97.999h-2c-13.333 -28 -34 -53 -62 -75s-63.667 -33 -107 -33c-56 0 -103.833 20.833 -143.5 62.5s-59.5 102.834 -59.5 183.501c0 80 21.5 142 64.5 186s93.167 66 150.5 66c74 0 125.333 -33.333 154 -100h2c0 188.667 -1.33301 311.667 -4 369
c26.667 -3.33301 41.667 -5 45 -5c1.33301 0 16.333 1.66699 45 5c-8 -74.667 -12 -247 -12 -517l3 -240c-25.333 3.33301 -38.333 5 -39 5c-2 -0 -14.667 -1.66699 -38 -5zM130 224.999c0 -72.667 13.332 -124.668 39.999 -156.001s59.334 -47 98.001 -47
c48.667 0 85.667 21.833 111 65.5s38 95.834 38 156.501c0 63.333 -12.5 112 -37.5 146s-61.167 51 -108.5 51c-46 0 -81 -20 -105 -60s-36 -92 -36 -156z" />
    <glyph glyph-name="e" unicode="e" 
d="M35 220c0 82 19.9951 146.334 59.9951 193.001s96.333 70 169 70c66.667 0 117.834 -19.333 153.501 -58s53.5 -87.334 53.5 -146.001c0 -8.66699 -0.666992 -21.667 -2 -39c-16 0 -38.5 0.333008 -67.5 1s-55.333 1.16699 -79 1.5s-46.167 0.5 -67.5 0.5
c-13.333 0 -27.166 -0.166992 -41.499 -0.5s-30.333 -0.833008 -48 -1.5s-31.5 -1 -41.5 -1c-0.666992 -6.66699 -1 -16 -1 -28c0 -54 15.333 -98.333 46 -133s73 -52 127 -52c26 0 53 6.66699 81 20s51 30.333 69 51l5 -3l-6 -49
c-21.333 -17.333 -47.166 -31.833 -77.499 -43.5s-60.166 -17.5 -89.499 -17.5c-71.333 0 -129.666 22.333 -174.999 67s-68 100.667 -68 168zM265.995 451.001c-44 0 -77.5 -17.833 -100.5 -53.5s-36.167 -75.5 -39.5 -119.5c82 -2 125.333 -3 130 -3s49 1 133 3
c0 20.667 -1.66699 40 -5 58s-9 36.167 -17 54.5s-20.667 33 -38 44s-38.333 16.5 -63 16.5z" />
    <glyph glyph-name="f" unicode="f" horiz-adv-x="278" 
d="M294 672l-5.99805 -3.00098c-16 10 -34.333 15 -55 15c-27.333 0 -47.833 -9.5 -61.5 -28.5s-20.5 -42.833 -20.5 -71.5c0 -23.333 4 -62.333 12 -117c11.333 0 28.5 0.166992 51.5 0.5s40.167 0.5 51.5 0.5c-1.33301 -9.33301 -2 -16 -2 -20
c0 -5.33301 0.666992 -12 2 -20c-68 2 -102.333 3 -103 3c0 -192.667 1.33301 -338 4 -436c-15.333 3.33301 -29.666 5 -42.999 5c-12.667 0 -27.334 -1.66699 -44.001 -5c6 98 9 243.333 9 436l-72 -3c1.33301 8 2 14.667 2 20c0 4 -0.666992 10.667 -2 20
c8 0 20.167 -0.166992 36.5 -0.5s28.166 -0.5 35.499 -0.5c0 40.667 8.16699 84.834 24.5 132.501s37.166 84.167 62.499 109.5c30.667 30.667 64.667 46 102 46c7.33301 0 14 -1 20 -3c0 -6 -0.666992 -18.333 -2 -37s-2 -33 -2 -43z" />
    <glyph glyph-name="g" unicode="g" 
d="M50 320c0 52.667 18 92.999 54 120.999s81.667 42 137 42c6 0 33 -1.33301 81 -4c40 -2.66699 63.333 -4 70 -4c39.333 0 66.333 1.66699 81 5c-1.33301 -9.33301 -2 -16.333 -2 -21s0.666992 -11.667 2 -21c-64 5.33301 -101 8 -111 8l-2 -2
c20 -10.667 36.5 -28 49.5 -52s19.5 -48.667 19.5 -74c0 -49.333 -16.833 -88.333 -50.5 -117s-78.834 -43 -135.501 -43c-6 0 -15 0.333008 -27 1s-21.333 1 -28 1c-12.667 0 -24 -4.5 -34 -13.5s-15 -19.833 -15 -32.5c0 -18 4.33301 -30.833 13 -38.5
s24 -11.834 46 -12.501l110 -3c58 -1.33301 101 -13.5 129 -36.5s42 -53.5 42 -91.5c0 -52.667 -20.167 -99.667 -60.5 -141s-99.166 -62 -176.499 -62c-64 0 -114.833 12.833 -152.5 38.5s-56.5 60.834 -56.5 105.501c0 33.333 10.5 61.5 31.5 84.5
s46.167 38.833 75.5 47.5v2c-42 12 -63 38.667 -63 80c0 20.667 7.33301 38.834 22 54.501s31 25.167 49 28.5v2c-65.333 28.667 -98 78 -98 148zM351 324.999c0 40.667 -9.83398 72.333 -29.501 95s-46.167 34 -79.5 34c-35.333 0 -63.166 -12.167 -83.499 -36.5
s-30.5 -56.833 -30.5 -97.5c0 -42.667 9.5 -76 28.5 -100s47.167 -36 84.5 -36c36 0 63.333 13.5 82 40.5s28 60.5 28 100.5zM404.999 -111.002c0 38.667 -11.834 66.832 -35.501 84.499s-62.167 26.5 -115.5 26.5c-104.667 0 -157 -38.667 -157 -116
c0 -43.333 13.333 -75.166 40 -95.499s62.334 -30.5 107.001 -30.5c44 0 81.833 11.333 113.5 34s47.5 55 47.5 97z" />
    <glyph glyph-name="h" unicode="h" horiz-adv-x="556" 
d="M84 283v181c0 132.667 -2.66699 228.667 -8 288c16.667 -3.33301 31.667 -5 45 -5s28.333 1.66699 45 5c-5.33301 -59.333 -8 -153.666 -8 -282.999v-76h2c38.667 60 92 90 160 90c44 0 81.667 -13.333 113 -40s47 -71.334 47 -134.001c0 -18 -0.666992 -47.5 -2 -88.5
s-2 -73.167 -2 -96.5c0 -57.333 0.666992 -100.333 2 -129c-16.667 3.33301 -30.667 5 -42 5c-12 -0 -25.667 -1.66699 -41 -5c0 10.667 1.16699 43 3.5 97s3.5 96 3.5 126v61c0 48 -9.83301 85.333 -29.5 112s-46.167 40 -79.5 40c-90 0 -135 -54.667 -135 -164
c0 -122 2.66699 -212.667 8 -272c-16.667 3.33301 -31.667 5 -45 5s-28.333 -1.66699 -45 -5c5.33301 59.333 8 155.333 8 288z" />
    <glyph glyph-name="i" unicode="i" horiz-adv-x="278" 
d="M102 182v104c0 74 -2.66699 136.333 -8 187c16.667 -3.33301 31.667 -5 45 -5s28.333 1.66699 45 5c-5.33301 -50.667 -8 -113 -8 -187v-104c0 -74 2.66699 -136.333 8 -187c-16.667 3.33301 -31.667 5 -45 5s-28.333 -1.66699 -45 -5c5.33301 50.667 8 113 8 187z
M88 647c0 14 5 26 15 36s22 15 36 15s26 -5 36 -15s15 -22 15 -36s-5 -26 -15 -36s-22 -15 -36 -15s-26 5 -36 15s-15 22 -15 36z" />
    <glyph glyph-name="j" unicode="j" horiz-adv-x="278" 
d="M102 -51l-0.000976562 296.997c0 100.667 -2.66699 176.334 -8 227.001c16.667 -3.33301 31.667 -5 45 -5s28.333 1.66699 45 5c-5.33301 -50.667 -8 -113 -8 -187v-104c0 -25.333 0.666992 -63.666 2 -114.999s2 -89.666 2 -114.999c0 -23.333 -0.5 -41.5 -1.5 -54.5
s-3.83301 -28.167 -8.5 -45.5s-12 -33 -22 -47c-15.333 -22 -35.666 -40 -60.999 -54s-53.333 -21.333 -84 -22l-7 34c6.66699 -1.33301 12 -2 16 -2c60 0 90 62.667 90 188zM87.999 646.997c0 14 5 26 15 36s22 15 36 15s26 -5 36 -15s15 -22 15 -36s-5 -26 -15 -36
s-22 -15 -36 -15s-26 5 -36 15s-15 22 -15 36z" />
    <glyph glyph-name="k" unicode="k" 
d="M84 283l0.000976562 181.002c0 132.667 -2.66699 228.667 -8 288c16.667 -3.33301 31.667 -5 45 -5s28.333 1.66699 45 5c-5.33301 -59.333 -8 -155.333 -8 -288v-182c0 -12.667 4 -19 12 -19c5.33301 0 18.333 7.66699 39 23c12.667 9.33301 39 34.333 79 75
s75 78 105 112c12 -3.33301 24.667 -5 38 -5c8 0 24.667 1.66699 50 5c-90.667 -73.333 -167.334 -140.333 -230.001 -201l241 -277c-25.333 3.33301 -44.333 5 -57 5c-15.333 0 -32.333 -1.66699 -51 -5c-65.333 85.333 -132.333 164.666 -201 237.999
c-5.33301 6.66699 -10.333 10 -15 10c-6.66699 0 -10 -4 -10 -12v-60c0 -64.667 2.66699 -123.334 8 -176.001c-16.667 3.33301 -31.667 5 -45 5s-28.333 -1.66699 -45 -5c5.33301 59.333 8 155.333 8 288z" />
    <glyph glyph-name="l" unicode="l" horiz-adv-x="278" 
d="M102 283v181c0 132.667 -2.66699 228.667 -8 288c16.667 -3.33301 31.667 -5 45 -5s28.333 1.66699 45 5c-5.33301 -59.333 -8 -155.333 -8 -288v-181c0 -132.667 2.66699 -228.667 8 -288c-16.667 3.33301 -31.667 5 -45 5s-28.333 -1.66699 -45 -5
c5.33301 59.333 8 155.333 8 288z" />
    <glyph glyph-name="m" unicode="m" horiz-adv-x="833" 
d="M78 182l0.00195312 104c0 74 -2.66699 136.333 -8 187c16.667 -3.33301 31.667 -5 45 -5c10 0 23.333 1.66699 40 5c-2 -26.667 -3 -53.334 -3 -80.001h2c35.333 60 85 90 149 90c34 0 65 -9.33301 93 -28s45.333 -42.334 52 -71.001h2c33.333 66 87 99 161 99
c46.667 0 83.834 -12.833 111.501 -38.5s41.5 -65.5 41.5 -119.5c0 -9.33301 -1 -37.166 -3 -83.499s-3 -92.166 -3 -137.499c0 -44.667 1 -81 3 -109c-15.333 3.33301 -29.666 5 -42.999 5c-14 -0 -28.667 -1.66699 -44 -5c6.66699 62 10 167.333 10 316
c0 80 -35 120 -105 120c-44 0 -77.333 -15.667 -100 -47c-10.667 -15.333 -17.334 -34.5 -20.001 -57.5s-4 -80.5 -4 -172.5c0 -37.333 1.66699 -90.333 5 -159c-16.667 3.33301 -31.334 5 -44.001 5s-27.334 -1.66699 -44.001 -5c6 75.333 9 151 9 227
c0 62 -0.833008 100.833 -2.5 116.5s-6.83398 31.167 -15.501 46.5c-7.33301 12.667 -19 23.5 -35 32.5s-32 13.5 -48 13.5c-42.667 0 -74.667 -14.167 -96 -42.5s-32 -68.833 -32 -121.5v-85c0 -74 2.66699 -136.333 8 -187c-16.667 3.33301 -31.667 5 -45 5
s-28.333 -1.66699 -45 -5c5.33301 50.667 8 113 8 187z" />
    <glyph glyph-name="n" unicode="n" horiz-adv-x="556" 
d="M402 279c0 48 -9.83301 85.335 -29.5 112.002s-46.167 40 -79.5 40c-90 0 -135 -54.667 -135 -164v-85c0 -74 2.66699 -136.333 8 -187c-16.667 3.33301 -31.667 5 -45 5s-28.333 -1.66699 -45 -5c5.33301 50.667 8 113 8 187v104c0 74 -2.66699 136.333 -8 187
c16.667 -3.33301 31.667 -5 45 -5c10 0 23.333 1.66699 40 5c-2 -26.667 -3 -53.334 -3 -80.001h2c38.667 60 92 90 160 90c44 0 81.667 -13.333 113 -40s47 -71.334 47 -134.001c0 -18 -0.666992 -47.5 -2 -88.5s-2 -73.167 -2 -96.5c0 -57.333 0.666992 -100.333 2 -129
c-16.667 3.33301 -30.667 5 -42 5c-12 -0 -25.667 -1.66699 -41 -5c0 10.667 1.16699 43 3.5 97s3.5 96 3.5 126v61z" />
    <glyph glyph-name="o" unicode="o" horiz-adv-x="556" 
d="M35 234c0 43.333 7.16699 81.666 21.5 114.999s33.333 59.333 57 78s49.334 32.667 77.001 42s56.834 14 87.501 14s59.834 -4.66699 87.501 -14s53.334 -23.333 77.001 -42s42.667 -44.667 57 -78s21.5 -71.666 21.5 -114.999s-7.16699 -81.666 -21.5 -114.999
s-33.333 -59.333 -57 -78s-49.334 -32.667 -77.001 -42s-56.834 -14 -87.501 -14s-59.834 4.66699 -87.501 14s-53.334 23.333 -77.001 42s-42.667 44.667 -57 78s-21.5 71.666 -21.5 114.999zM123 234c0 -63.333 12.167 -115.333 36.5 -156s63.833 -61 118.5 -61
s94.167 20.333 118.5 61s36.5 92.667 36.5 156s-12.167 115.333 -36.5 156s-63.833 61 -118.5 61s-94.167 -20.333 -118.5 -61s-36.5 -92.667 -36.5 -156z" />
    <glyph glyph-name="p" unicode="p" horiz-adv-x="556" 
d="M426 238c0 72.667 -13.332 124.667 -39.999 156s-59.334 47 -98.001 47c-50.667 0 -88.167 -19.5 -112.5 -58.5s-36.5 -89.833 -36.5 -152.5c0 -68 12.5 -119.667 37.5 -155s61.167 -53 108.5 -53c46 0 81 20 105 60s36 92 36 156zM65.001 20v162
c0 132 -2.66699 229 -8 291c16.667 -3.33301 31.667 -5 45 -5s28.333 1.66699 45 5c-5.33301 -37.333 -8 -70 -8 -98h2c13.333 28.667 33.666 53.834 60.999 75.501s63.333 32.5 108 32.5c56 0 104 -20.833 144 -62.5s60 -102.834 60 -183.501c0 -80 -21.667 -142 -65 -186
s-93.666 -66 -150.999 -66c-72.667 0 -125 32.667 -157 98h-2v-63c0 -132.667 2.66699 -228.667 8 -288c-16.667 3.33301 -31.667 5 -45 5s-28.333 -1.66699 -45 -5c5.33301 59.333 8 155.333 8 288z" />
    <glyph glyph-name="q" unicode="q" horiz-adv-x="556" 
d="M417 244c0 56 -12 102.833 -36 140.5s-60 56.5 -108 56.5c-39.333 0 -73 -16.5 -101 -49.5s-42 -89.167 -42 -168.5c0 -59.333 11.667 -107.666 35 -144.999s56.333 -56 99 -56c48 0 85.5 22.167 112.5 66.5s40.5 96.166 40.5 155.499zM491 182v-161.999
c0 -132.667 2.66699 -228.667 8 -288c-16.667 3.33301 -31.667 5 -45 5s-28.333 -1.66699 -45 -5c5.33301 59.333 8 155.333 8 288v75h-2c-37.333 -73.333 -91.666 -110 -162.999 -110c-57.333 0 -106.666 20 -147.999 60s-62 102 -62 186
c0 81.333 21.167 143.666 63.5 186.999s91.166 65 146.499 65c81.333 0 135.666 -36 162.999 -108h2c0 28 -2.66699 60.667 -8 98c16.667 -3.33301 31.667 -5 45 -5s28.333 1.66699 45 5c-5.33301 -62 -8 -159 -8 -291z" />
    <glyph glyph-name="r" unicode="r" horiz-adv-x="333" 
d="M312 396l-7.00293 -5.00098c-9.33301 10.667 -25.666 16 -48.999 16c-31.333 0 -56.166 -13.167 -74.499 -39.5s-27.5 -59.5 -27.5 -99.5c0 -151.333 1.33301 -242.333 4 -273c-14.667 3.33301 -28 5 -40 5c-11.333 0 -25.333 -1.66699 -42 -5
c2.66699 32.667 4 112.334 4 239.001v32c0 80.667 -1.33301 149.667 -4 207c16.667 -3.33301 30.667 -5 42 -5c12 0 25.333 1.66699 40 5c-3.33301 -32 -5 -64.333 -5 -97l2 -1c38 72 82 108 132 108c10.667 0 21.334 -2 32.001 -6c-4.66699 -10.667 -7 -37.667 -7 -81z" />
    <glyph glyph-name="s" unicode="s" horiz-adv-x="389" 
d="M59 91l12 -0.00488281c8.66699 -16.667 23.334 -32.334 44.001 -47.001s43.667 -22 69 -22c26.667 0 49.5 8 68.5 24s28.5 38 28.5 66c0 22.667 -8.16699 40.5 -24.5 53.5s-36 22.833 -59 29.5s-46 13.834 -69 21.501s-42.667 21 -59 40s-24.5 44.167 -24.5 75.5
c0 44.667 14.667 81 44 109s70 42 122 42c14.667 0 28.167 -1.33301 40.5 -4s26.5 -7.16699 42.5 -13.5s25.333 -9.83301 28 -10.5c-12.667 -22 -20.667 -45.667 -24 -71h-12c-5.33301 17.333 -16 32 -32 44s-34.667 18 -56 18c-22 0 -41.667 -7.16699 -59 -21.5
s-26 -35.166 -26 -62.499c0 -24 8.16699 -42.667 24.5 -56s36 -23.166 59 -29.499s46 -13.166 69 -20.499s42.667 -20.166 59 -38.499s24.5 -43.166 24.5 -74.499c0 -40.667 -16.833 -77.167 -50.5 -109.5s-76.834 -48.5 -129.501 -48.5c-47.333 0 -90.333 11 -129 33
c12.667 26.667 19 51 19 73z" />
    <glyph glyph-name="t" unicode="t" horiz-adv-x="278" 
d="M79 572l83 34.9932h5c-2.66699 -33.333 -5.33398 -82.666 -8.00098 -147.999c24.667 0 60 1 106 3c-0.666992 -4.66699 -1 -11.667 -1 -21s0.333008 -16.333 1 -21c-23.333 1.33301 -58.666 2 -105.999 2c-1.33301 -5.33301 -2.83301 -38.666 -4.5 -99.999
s-2.5 -112.666 -2.5 -153.999c0 -16 0.166992 -28.667 0.5 -38s1.33301 -20.666 3 -33.999s4.16699 -24 7.5 -32s7.83301 -16 13.5 -24s13.334 -13.833 23.001 -17.5s20.834 -5.5 33.501 -5.5c14.667 0 29.667 2.33301 45 7v-24c-28.667 -10 -54.334 -15 -77.001 -15
c-40.667 0 -71.334 10.833 -92.001 32.5s-31 52.5 -31 92.5c0 20.667 1 64.167 3 130.5s3.33301 126.833 4 181.5c-28 0 -50.667 -0.666992 -68 -2c1.33301 10.667 2 18.334 2 23.001c0 4 -0.666992 10.667 -2 20c30 -2 52 -3 66 -3c0 2.66699 -0.5 17.834 -1.5 45.501
s-1.83301 49.834 -2.5 66.501z" />
    <glyph glyph-name="u" unicode="u" horiz-adv-x="556" 
d="M76 149c0 25.333 0.5 55.501 1.5 90.501s1.5 59.833 1.5 74.5c0 31.333 -0.666992 84.333 -2 159c15.333 -3.33301 29.333 -5 42 -5c12 0 25.667 1.66699 41 5c-6.66699 -86.667 -10 -179.334 -10 -278.001c0 -57.333 10.333 -97.666 31 -120.999
c22 -24.667 50.667 -37 86 -37c54 0 91 21.333 111 64c10 21.333 16 41.833 18 61.5s3 68.5 3 146.5c0 77.333 -0.666992 132 -2 164c15.333 -3.33301 29.333 -5 42 -5s26.334 1.66699 41.001 5c-4.66699 -80.667 -7 -182 -7 -304c0 -66 1.33301 -124 4 -174
c-14.667 3.33301 -27.667 5 -39 5s-24.333 -1.66699 -39 -5c1.33301 19.333 2 48 2 86h-2c-16.667 -30.667 -38.834 -54.334 -66.501 -71.001s-57.5 -25 -89.5 -25c-52 0 -92.833 14.333 -122.5 43s-44.5 69 -44.5 121z" />
    <glyph glyph-name="v" unicode="v" 
d="M215 -5c-84.667 221.333 -149.334 380.668 -194.001 478.001c18.667 -3.33301 35.334 -5 50.001 -5c12.667 0 27.334 1.66699 44.001 5c39.333 -124 89 -254 149 -390c8.66699 17.333 17.834 37.166 27.501 59.499l25 59.5l27 70l24 64.5l26 72
c12.333 34.333 20.166 55.833 23.499 64.5c11.333 -3.33301 21.666 -5 30.999 -5s19.666 1.66699 30.999 5l-35 -77.5l-37 -84l-32.5 -75.5l-35.5 -84l-30 -75.5l-31 -81.5c-11.333 3.33301 -21.666 5 -30.999 5s-20 -1.66699 -32 -5z" />
    <glyph glyph-name="w" unicode="w" horiz-adv-x="778" 
d="M193 -5c-38.667 130 -96.999 289.331 -174.999 477.998c18 -3.33301 33.667 -5 47 -5c14 0 29.333 1.66699 46 5c33.333 -122 76 -249.667 128 -383c45.333 111.333 89.333 239 132 383c11.333 -3.33301 21.333 -5 30 -5c7.33301 0 16.666 1.66699 27.999 5
c20 -75.333 62.333 -203 127 -383c47.333 119.333 94.666 247 141.999 383c12 -3.33301 22.667 -5 32 -5c10 0 20 1.66699 30 5c-78.667 -167.333 -145 -326.666 -199 -477.999c-13.333 3.33301 -22 5 -26 5c-6 0 -14.667 -1.66699 -26 -5
c-34.667 122.667 -77.334 246.334 -128.001 371.001c-48 -116 -92 -239.667 -132 -371c-15.333 3.33301 -24.666 5 -27.999 5s-12.666 -1.66699 -27.999 -5z" />
    <glyph glyph-name="x" unicode="x" 
d="M259 286c50.667 65.333 96.667 127.666 138 186.999c13.333 -3.33301 25 -5 35 -5c9.33301 0 20.666 1.66699 33.999 5l-184 -216c58.667 -85.333 123 -172.666 193 -261.999c-18.667 3.33301 -35.667 5 -51 5s-32.333 -1.66699 -51 -5
c-36.667 56.667 -83 124.667 -139 204c-57.333 -79.333 -104.666 -147.333 -141.999 -204c-12 3.33301 -23 5 -33 5c-10.667 -0 -22 -1.66699 -34 -5l185 234l-184 244c20 -3.33301 37.667 -5 53 -5s33 1.66699 53 5c34 -56.667 76.333 -119 127 -187z" />
    <glyph glyph-name="y" unicode="y" 
d="M222 -6c-54 140.667 -120.667 300.334 -200 479.001c16.667 -3.33301 32 -5 46 -5s29.333 1.66699 46 5c24 -74 73.667 -202 149 -384c54 112.667 103.667 240.667 149 384c12 -3.33301 23 -5 33 -5s21 1.66699 33 5c-30.667 -62 -87.5 -186.333 -170.5 -373
s-133.5 -309.334 -151.5 -368.001c-12 3.33301 -23.333 5 -34 5s-22 -1.66699 -34 -5c50 82 94.667 169.333 134 262z" />
    <glyph glyph-name="z" unicode="z" 
d="M34 -5l-0.000976562 13.998c56.667 68.667 164 209.334 322 422.001c-12.667 0 -52.5 -1.66699 -119.5 -5s-117.5 -6.66602 -151.5 -9.99902c2 9.33301 3 18.666 3 27.999c0 8 -1 17.667 -3 29c34.667 -3.33301 118 -5 250 -5c52.667 0 96.334 1.66699 131.001 5v-15
c-160 -207.333 -266 -347.666 -318 -420.999c108 0 212.333 4.66699 313 14c-2.66699 -12 -4 -21.333 -4 -28s1.33301 -16 4 -28c-138 3.33301 -221.333 5 -250 5c-19.333 -0 -78.333 -1.66699 -177 -5z" />
    <glyph glyph-name="braceleft" unicode="{" horiz-adv-x="333" 
d="M57 260v42.002c23.333 0 41.333 8.5 54 25.5s19 39.833 19 68.5v170c0 43.333 7.33301 73.666 22 90.999s36.667 26 66 26h58v-37h-32c-18.667 0 -32 -5.33301 -40 -16s-12 -32 -12 -64v-164c0 -58.667 -29.333 -98.667 -88 -120v-2c58.667 -21.333 88 -61.333 88 -120
v-164c0 -32 4 -53.333 12 -64s21.333 -16 40 -16h32v-37h-58c-29.333 0 -51.333 8.66699 -66 26s-22 47.666 -22 90.999v170c0 28.667 -6.33301 51.5 -19 68.5s-30.667 25.5 -54 25.5z" />
    <glyph glyph-name="bar" unicode="|" horiz-adv-x="333" 
d="M141 -250v1000h52v-1000h-52z" />
    <glyph glyph-name="braceright" unicode="}" horiz-adv-x="333" 
d="M276 302v-42.002c-23.333 0 -41.333 -8.5 -54 -25.5s-19 -39.833 -19 -68.5v-170c0 -43.333 -7.33301 -73.666 -22 -90.999s-36.667 -26 -66 -26h-58v37h32c18.667 0 32 5.33301 40 16s12 32 12 64v164c0 58.667 29.333 98.667 88 120v2
c-58.667 21.333 -88 61.333 -88 120v164c0 32 -4 53.333 -12 64s-21.333 16 -40 16h-32v37h58c29.333 0 51.333 -8.66699 66 -26s22 -47.666 22 -90.999v-170c0 -28.667 6.33301 -51.5 19 -68.5s30.667 -25.5 54 -25.5z" />
    <glyph glyph-name="asciitilde" unicode="~" horiz-adv-x="606" 
d="M104 186l-29.001 44.001c17.333 28.667 34.833 49.667 52.5 63s40.834 20 69.501 20c26.667 0 58 -8.33301 94 -25l30.5 -14.5l30.5 -14.5c7.33301 -3.33301 16.333 -6.5 27 -9.5s21 -4.5 31 -4.5c18 0 35.333 7.66699 52 23s30 32.666 40 51.999l29 -42
c-38 -56.667 -78.667 -85 -122 -85c-28 0 -66 12.333 -114 37c-40 20.667 -70.667 31 -92 31c-44 0 -77 -25 -99 -75z" />
    <glyph glyph-name="uni00A0" unicode="&#xa0;" horiz-adv-x="278" 
 />
    <glyph glyph-name="exclamdown" unicode="&#xa1;" horiz-adv-x="333" 
d="M156 300h20c26 -308.667 39 -468 39 -478c0 -16.667 -4.66699 -29 -14 -37s-21 -12 -35 -12s-25.667 4 -35 12s-14 20.333 -14 37c0 10 13 169.333 39 478zM109 426c0 15.333 5.66699 28.666 17 39.999s24.666 17 39.999 17s28.666 -5.66699 39.999 -17
s17 -24.666 17 -39.999s-5.66699 -28.666 -17 -39.999s-24.666 -17 -39.999 -17s-28.666 5.66699 -39.999 17s-17 24.666 -17 39.999z" />
    <glyph glyph-name="cent" unicode="&#xa2;" horiz-adv-x="556" 
d="M295 32v415.001c-43.333 -9.33301 -75.5 -32.833 -96.5 -70.5s-31.5 -84.834 -31.5 -141.501c0 -118 42.667 -185.667 128 -203zM79 234.001c0 73.333 20.498 130.833 61.498 172.5s92.5 66.167 154.5 73.5v8c0 38 -1.66699 70 -5 96c10 -3.33301 18.667 -5 26 -5
s16 1.66699 26 5c-3.33301 -26 -5 -57.667 -5 -95v-6c74.667 -1.33301 127.334 -16 158.001 -44c-10 -22.667 -17.333 -44.667 -22 -66h-8c-11.333 20 -28.166 37.833 -50.499 53.5s-48.166 23.834 -77.499 24.501v-424h3c26 0 53 6.66699 81 20s51 30.333 69 51l5 -3
c-2.66699 -15.333 -4.66699 -31.666 -6 -48.999c-46 -37.333 -96.667 -57 -152 -59v-8c0 -33.333 1.66699 -67.333 5 -102c-10 3.33301 -18.667 5 -26 5s-16 -1.66699 -26 -5c3.33301 31.333 5 65.666 5 102.999v7c-60.667 5.33301 -111.834 28.666 -153.501 69.999
s-62.5 100.333 -62.5 177z" />
    <glyph glyph-name="sterling" unicode="&#xa3;" horiz-adv-x="556" 
d="M45 59l13.9971 -0.00195312c53.333 0 89.5 13.833 108.5 41.5s28.5 69.5 28.5 125.5c0 22 -3 57 -9 105c-44 -1.33301 -76.333 -2 -97 -2c1.33301 5.33301 2 13 2 23c0 9.33301 -0.666992 16.333 -2 21c16.667 -3.33301 47.334 -5 92.001 -5
c-3.33301 26.667 -5 49.334 -5 68.001c0 44 6.16699 82 18.5 114s28.833 56.5 49.5 73.5s42.167 29.333 64.5 37s45.5 11.5 69.5 11.5c26.667 0 52 -4.5 76 -13.5s41.667 -22.167 53 -39.5c-13.333 -15.333 -26 -33.333 -38 -54l-4 3c-6 21.333 -16.667 37.833 -32 49.5
s-33.666 17.5 -54.999 17.5c-35.333 0 -64.166 -12.833 -86.499 -38.5s-33.5 -57.834 -33.5 -96.501c0 -16 2 -60 6 -132c15.333 0 66.333 1.66699 153 5c-1.33301 -9.33301 -2 -16.333 -2 -21s0.666992 -12.334 2 -23.001c-68 1.33301 -118 2 -150 2
c1.33301 -18.667 2 -34 2 -46c0 -47.333 -9.33301 -90.666 -28 -129.999s-42 -70 -70 -92v-2c44.667 0 156.667 3.66699 336 11c-2 -14 -3 -27.333 -3 -40c0 -13.333 1 -25.666 3 -36.999c-130 3.33301 -208.333 5 -235 5c-25.333 0 -101.333 -1.66699 -228 -5
c1.33301 12 2 22.667 2 32c0 6.66699 -0.666992 17.334 -2 32.001z" />
    <glyph glyph-name="currency" unicode="&#xa4;" horiz-adv-x="556" 
d="M474 328c0 56 -18.833 103.5 -56.5 142.5s-84.167 58.5 -139.5 58.5s-101.833 -19.5 -139.5 -58.5s-56.5 -86.5 -56.5 -142.5s18.833 -103.5 56.5 -142.5s84.167 -58.5 139.5 -58.5s101.833 19.5 139.5 58.5s56.5 86.5 56.5 142.5zM433 521l55.001 55l36 -36l-55 -56
c38 -43.333 57 -95.333 57 -156c0 -58 -18.333 -109.667 -55 -155l53 -53l-36 -38l-55 54c-44.667 -37.333 -96.334 -56 -155.001 -56c-60.667 0 -112.667 19 -156 57l-56 -55l-36 38l54 55c-36 44.667 -54 95.667 -54 153c0 59.333 18.333 111 55 155l-55 57l36 36l56 -56
c46 37.333 98 56 156 56c59.333 0 111 -18.333 155 -55z" />
    <glyph glyph-name="yen" unicode="&#xa5;" horiz-adv-x="556" 
d="M236 244l-0.000976562 87.002c-16.667 0 -34.5 -0.166992 -53.5 -0.5s-40.167 -0.833008 -63.5 -1.5s-41.333 -1 -54 -1c1.33301 9.33301 2 16.333 2 21s-0.666992 11.667 -2 21c72 -1.33301 126 -2 162 -2l-202 317c20 -3.33301 37.667 -5 53 -5s33 1.66699 53 5
c14.667 -36.667 70.334 -134.334 167.001 -293.001c77.333 119.333 136.333 217 177 293c12 -3.33301 23.333 -5 34 -5s22 1.66699 34 5c-33.333 -44 -106 -149.667 -218 -317c36.667 0 91 0.666992 163 2c-1.33301 -9.33301 -2 -16.333 -2 -21s0.666992 -11.667 2 -21
c-12.667 0 -30.834 0.333008 -54.501 1s-45.167 1.16699 -64.5 1.5s-37.666 0.5 -54.999 0.5v-87c77.333 0 135.333 0.333008 174 1c-1.33301 -9.33301 -2 -16.333 -2 -21s0.666992 -11.667 2 -21c-77.333 2.66699 -135.333 4 -174 4c0 -80.667 2.33301 -151.334 7 -212.001
c-16.667 3.33301 -32 5 -46 5s-29.333 -1.66699 -46 -5c4.66699 66 7 136.667 7 212c-38 0 -95 -1.33301 -171 -4c1.33301 9.33301 2 16.333 2 21s-0.666992 11.667 -2 21c38 -0.666992 95 -1 171 -1z" />
    <glyph glyph-name="brokenbar" unicode="&#xa6;" horiz-adv-x="333" 
d="M141 -175v350h52v-350h-52zM141 325v350h52v-350h-52z" />
    <glyph glyph-name="section" unicode="&#xa7;" 
d="M383 578l-11.998 0.00390625c-6 22.667 -18.5 42.167 -37.5 58.5s-41.833 24.5 -68.5 24.5c-29.333 0 -55.333 -9.33301 -78 -28s-34 -42.667 -34 -72c0 -26.667 9.83301 -49 29.5 -67s43.667 -32.5 72 -43.5l85 -34c28.333 -11.667 52.333 -28.334 72 -50.001
s29.5 -48.834 29.5 -81.501c0 -46 -19.333 -89.333 -58 -130c24.667 -20.667 37 -50.334 37 -89.001c0 -52.667 -18.833 -98.167 -56.5 -136.5s-88.834 -57.5 -153.501 -57.5c-24 0 -49.333 4.16699 -76 12.5s-48.334 18.5 -65.001 30.5c7.33301 28 11 56.333 11 85h12
c8.66699 -22 25 -42.667 49 -62s56.333 -29 97 -29c34.667 0 65 12.167 91 36.5s39 51.5 39 81.5c0 26 -10.667 47.833 -32 65.5s-47.166 32 -77.499 43s-60.5 22.667 -90.5 35s-55.667 30.666 -77 54.999s-32 54.5 -32 90.5c0 28.667 7.33301 53.834 22 75.501
s30.334 37.834 47.001 48.501c-7.33301 11.333 -12.333 19.333 -15 24s-5.33398 13.167 -8.00098 25.5s-4 27.166 -4 44.499c0 44.667 15.667 83.167 47 115.5s75 48.5 131 48.5c53.333 0 97.666 -20.333 132.999 -61c-15.333 -14.667 -25 -34.334 -29 -59.001z
M394.002 241.004c0 24.667 -6.16699 43.668 -18.5 57.001s-35.5 27.666 -69.5 42.999c-92 41.333 -146 69 -162 83c-25.333 -22.667 -38 -47.667 -38 -75c0 -24.667 8 -44.834 24 -60.501s43.667 -32.167 83 -49.5c86.667 -37.333 138 -61.666 154 -72.999
c18 26 27 51 27 75z" />
    <glyph glyph-name="dieresis" unicode="&#xa8;" horiz-adv-x="333" 
d="M214 637c0 14 5 26 15 36s22 15 36 15s26 -5 36 -15s15 -22 15 -36s-5 -26 -15 -36s-22 -15 -36 -15s-26 5 -36 15s-15 22 -15 36zM17 637c0 14 5 26 15 36s22 15 36 15s26 -5 36 -15s15 -22 15 -36s-5 -26 -15 -36s-22 -15 -36 -15s-26 5 -36 15s-15 22 -15 36z" />
    <glyph glyph-name="copyright" unicode="&#xa9;" horiz-adv-x="750" 
d="M154 338c0 76 23 134.665 69 175.998s105 62 177 62c62 0 109 -9.33301 141 -28c-7.33301 -15.333 -11.666 -32 -12.999 -50l-5 -2c-36.667 34.667 -76.667 52 -120 52c-122 0 -183 -70.333 -183 -211c0 -58.667 16 -106.5 48 -143.5s76 -55.5 132 -55.5
c48.667 0 93.667 18.333 135 55l6 -2c-4 -9.33301 -6 -22.666 -6 -39.999c-44.667 -27.333 -93.334 -41 -146.001 -41c-69.333 0 -125.833 20.833 -169.5 62.5s-65.5 96.834 -65.5 165.501zM17 339.998c0 98.667 34.833 183 104.5 253s154.167 105 253.5 105
s183.833 -35 253.5 -105s104.5 -154.333 104.5 -253s-34.833 -183 -104.5 -253s-154.167 -105 -253.5 -105s-183.833 35 -253.5 105s-104.5 154.333 -104.5 253zM691 339.998c0 88.667 -30.667 164.334 -92 227.001s-136 94 -224 94s-162.667 -31.333 -224 -94
s-92 -138.334 -92 -227.001s30.667 -164.334 92 -227.001s136 -94 224 -94s162.667 31.333 224 94s92 138.334 92 227.001z" />
    <glyph glyph-name="ordfeminine" unicode="&#xaa;" horiz-adv-x="324" 
d="M53 604l-0.000976562 37c40 20.667 76.333 31 109 31c28.667 0 53.5 -7 74.5 -21s31.5 -38.667 31.5 -74c0 -18 -0.833008 -44.667 -2.5 -80s-2.5 -57.333 -2.5 -66c0 -22.667 7.33301 -34 22 -34c4.66699 0 11 2 19 6v-18c-14.667 -8 -30.334 -12 -47.001 -12
c-12.667 0 -22.667 4 -30 12s-11.666 18.333 -12.999 31c-30 -28.667 -63.667 -43 -101 -43c-25.333 0 -47.166 5.83301 -65.499 17.5s-27.5 30.5 -27.5 56.5c0 24 7 42.167 21 54.5s40 21.833 78 28.5c43.333 8 69.5 13.833 78.5 17.5s13.5 10.167 13.5 19.5
c0 30 -6.16699 50.333 -18.5 61s-29.833 16 -52.5 16c-18.667 0 -34.667 -4.16699 -48 -12.5s-22.333 -17.5 -27 -27.5h-12zM210.999 441v92c-8 -4 -24.333 -8 -49 -12s-44.167 -10.833 -58.5 -20.5s-21.5 -25.5 -21.5 -47.5c0 -16.667 5.16699 -29.5 15.5 -38.5
s23.5 -13.5 39.5 -13.5c24 0 48.667 13.333 74 40z" />
    <glyph glyph-name="guillemotleft" unicode="&#xab;" 
d="M96 232l126 187.001c8.66699 -16 21 -25 37 -27l-111 -159l106 -166c-19.333 -2.66699 -32 -11.334 -38 -26.001zM241 232.001l126 187.001c8.66699 -16 21 -25 37 -27l-111 -159l106 -166c-19.333 -2.66699 -32 -11.334 -38 -26.001z" />
    <glyph glyph-name="logicalnot" unicode="&#xac;" horiz-adv-x="606" 
d="M504 108v216h-454v52h506v-268h-52z" />
    <glyph glyph-name="uni00AD" unicode="&#xad;" horiz-adv-x="333" 
d="M42 200v62h249v-62h-249z" />
    <glyph glyph-name="registered" unicode="&#xae;" horiz-adv-x="750" 
d="M242 263v171.002c0 46.667 -2.33301 91.667 -7 135c30 -3.33301 57.333 -5 82 -5c8.66699 0 22 0.833008 40 2.5s31.667 2.5 41 2.5c36.667 0 66.834 -8.5 90.501 -25.5s35.5 -41.833 35.5 -74.5c0 -36.667 -15 -65.834 -45 -87.501s-60.667 -33.834 -92 -36.501
c9.33301 -11.333 28 -35.5 56 -72.5l72.5 -92.5c20.333 -24.667 36.5 -42 48.5 -52v-5c-14.667 3.33301 -27.334 5 -38.001 5c-11.333 0 -24.333 -1.66699 -39 -5c-45.333 66 -99 137.333 -161 214h-32v-70c0 -48 2 -96 6 -144c-12 3.33301 -22.667 5 -32 5
c-10 0 -21 -1.66699 -33 -5c4.66699 73.333 7 120 7 140zM294 446.002v-81.001c9.33301 -2.66699 23.333 -4 42 -4c37.333 0 67.666 8.16699 90.999 24.5s35 41.833 35 76.5c0 25.333 -8.66699 45.5 -26 60.5s-39.666 22.5 -66.999 22.5c-24 0 -47 -1.66699 -69 -5
c-4 -41.333 -6 -72.666 -6 -93.999zM17 340.001c0 98.667 34.833 183 104.5 253s154.167 105 253.5 105s183.833 -35 253.5 -105s104.5 -154.333 104.5 -253s-34.833 -183 -104.5 -253s-154.167 -105 -253.5 -105s-183.833 35 -253.5 105s-104.5 154.333 -104.5 253z
M59 340.001c0 -88.667 30.667 -164.334 92 -227.001s136 -94 224 -94s162.667 31.333 224 94s92 138.334 92 227.001s-30.667 164.334 -92 227.001s-136 94 -224 94s-162.667 -31.333 -224 -94s-92 -138.334 -92 -227.001z" />
    <glyph glyph-name="macron" unicode="&#xaf;" horiz-adv-x="333" 
d="M30 604v52h273v-52h-273z" />
    <glyph glyph-name="degree" unicode="&#xb0;" horiz-adv-x="400" 
d="M55 527c0 40 14.167 74.167 42.5 102.5s62.5 42.5 102.5 42.5s74.167 -14.167 102.5 -42.5s42.5 -62.5 42.5 -102.5s-14.167 -74.167 -42.5 -102.5s-62.5 -42.5 -102.5 -42.5s-74.167 14.167 -102.5 42.5s-42.5 62.5 -42.5 102.5zM92 527c0 -30 10.5 -55.5 31.5 -76.5
s46.5 -31.5 76.5 -31.5s55.5 10.5 76.5 31.5s31.5 46.5 31.5 76.5s-10.5 55.5 -31.5 76.5s-46.5 31.5 -76.5 31.5s-55.5 -10.5 -76.5 -31.5s-31.5 -46.5 -31.5 -76.5z" />
    <glyph glyph-name="plusminus" unicode="&#xb1;" horiz-adv-x="606" 
d="M50 272v52h227v182h52v-182h227v-52h-227v-182h-52v182h-227zM50 0v52h506v-52h-506z" />
    <glyph glyph-name="twosuperior" unicode="&#xb2;" horiz-adv-x="333" 
d="M68 583l-23 29.999c26.667 39.333 66.334 59 119.001 59c39.333 0 70.833 -8.83301 94.5 -26.5s35.5 -44.167 35.5 -79.5c0 -32.667 -12 -64.167 -36 -94.5s-79 -83.5 -165 -159.5l2 -5c95.333 0 162.333 1.66699 201 5c-2.66699 -12 -4 -20.667 -4 -26
s1.33301 -14 4 -26c-52 3.33301 -98.667 5 -140 5s-87.666 -1.66699 -138.999 -5v15c8.66699 8.66699 22.167 21.334 40.5 38.001l38.5 35.5l32.5 31.5c14.333 14 24.333 24.5 30 31.5l23.5 28.5c10 12 16.833 22 20.5 30l13 28.5c5 11 8.33301 21.667 10 32
s2.5 21.166 2.5 32.499c0 28 -7 49.167 -21 63.5s-31.333 21.5 -52 21.5c-24.667 0 -43.834 -6.66699 -57.501 -20s-21.834 -27.666 -24.501 -42.999z" />
    <glyph glyph-name="threesuperior" unicode="&#xb3;" horiz-adv-x="333" 
d="M26 280l9.99902 37.9971h5c22 -23.333 50.667 -35 86 -35c30.667 0 55.334 9 74.001 27s28 41 28 69c0 30.667 -7.83301 52.834 -23.5 66.501s-34.834 20.5 -57.501 20.5c-14 0 -27.667 -2 -41 -6c2 6 3 11.667 3 17c0 7.33301 -1 14 -3 20c10 -4.66699 21 -7 33 -7
c25.333 0 43.5 8.83301 54.5 26.5s16.5 38.5 16.5 62.5c0 22 -6.5 39 -19.5 51s-28.833 18 -47.5 18c-16.667 0 -31.667 -4.16699 -45 -12.5s-22.333 -18.5 -27 -30.5l-5 -1l-15 32c26.667 24 62 36 106 36c34 0 61.667 -7.5 83 -22.5s32 -36.833 32 -65.5
c0 -27.333 -8.83301 -49.666 -26.5 -66.999s-38.167 -28.666 -61.5 -33.999v-2c28.667 -2 54.167 -10.333 76.5 -25s33.5 -38 33.5 -70c0 -38 -15.167 -68.667 -45.5 -92s-70.5 -35 -120.5 -35c-39.333 0 -73.666 7 -102.999 21z" />
    <glyph glyph-name="acute" unicode="&#xb4;" horiz-adv-x="333" 
d="M98 559l147.001 149.001c16 16 31 24 45 24c7.33301 0 14.666 -3 21.999 -9s11 -13.667 11 -23c0 -16.667 -12 -32.334 -36 -47.001l-147 -94h-42z" />
    <glyph glyph-name="mu" unicode="&#xb5;" horiz-adv-x="556" 
d="M242 -15c-40.667 0 -71.332 10.001 -91.999 30.001c0 -127.333 3.33301 -221.666 10 -282.999c-15.333 3.33301 -29.333 5 -42 5s-26.667 -1.66699 -42 -5c0 26.667 0.666992 75.5 2 146.5s2 130.833 2 179.5c0 63.333 -0.5 139.666 -1.5 228.999s-1.5 151.333 -1.5 186
c15.333 -3.33301 29.333 -5 42 -5c12 0 25.667 1.66699 41 5c-6.66699 -86.667 -10 -179.334 -10 -278.001c0 -57.333 10.333 -97.666 31 -120.999c22 -24.667 50.667 -37 86 -37c54 0 91 21.333 111 64c10 21.333 16 41.833 18 61.5s3 68.5 3 146.5
c0 77.333 -0.666992 132 -2 164c15.333 -3.33301 29.333 -5 42 -5s26.334 1.66699 41.001 5c-4.66699 -80.667 -7 -182 -7 -304c0 -66 1.33301 -124 4 -174c-14.667 3.33301 -27.667 5 -39 5s-24.333 -1.66699 -39 -5c1.33301 19.333 2 48 2 86h-2
c-16.667 -30.667 -38.834 -54.334 -66.501 -71.001s-57.834 -25 -90.501 -25z" />
    <glyph glyph-name="paragraph" unicode="&#xb6;" horiz-adv-x="800" 
d="M499 -115v754l-64 -10v-744h-36v406c-82 0 -144 18.5 -186 55.5s-63 86.833 -63 149.5c0 60.667 17.5 106.5 52.5 137.5s83.833 46.5 146.5 46.5h261v-24l-75 -12v-759h-36z" />
    <glyph glyph-name="periodcentered" unicode="&#xb7;" horiz-adv-x="278" 
d="M79 306c0 16.667 5.83301 30.834 17.5 42.501s25.834 17.5 42.501 17.5s30.834 -5.83301 42.501 -17.5s17.5 -25.834 17.5 -42.501s-5.83301 -30.834 -17.5 -42.501s-25.834 -17.5 -42.501 -17.5s-30.834 5.83301 -42.501 17.5s-17.5 25.834 -17.5 42.501z" />
    <glyph glyph-name="cedilla" unicode="&#xb8;" horiz-adv-x="333" 
d="M29 -207l14 32.001c20 -8 44 -12 72 -12c17.333 0 31.666 3.66699 42.999 11s17 17.666 17 30.999c0 26.667 -17 40 -51 40c-21.333 0 -35.666 -2.33301 -42.999 -7l-7 7l41 105h35l-25 -73c8.66699 3.33301 18.334 5 29.001 5c26 0 46.333 -6.33301 61 -19
s22 -30 22 -52c0 -26.667 -11.333 -47.5 -34 -62.5s-51 -22.5 -85 -22.5c-28.667 0 -58.334 5.66699 -89.001 17z" />
    <glyph glyph-name="onesuperior" unicode="&#xb9;" horiz-adv-x="333" 
d="M147 416l0.000976562 199.999l-4 2l-72 -37c-4.66699 8.66699 -11.334 15 -20.001 19v10c58 18.667 107.333 39.334 148 62.001h11c-4 -50.667 -6 -102.667 -6 -156v-100c0 -50.667 2 -102.667 6 -156c-12 3.33301 -23.333 5 -34 5s-22 -1.66699 -34 -5
c3.33301 45.333 5 97.333 5 156z" />
    <glyph glyph-name="ordmasculine" unicode="&#xba;" horiz-adv-x="340" 
d="M10 522c0 50.667 15.667 88.334 47 113.001s69.333 37 114 37c43.333 0 80.666 -12.333 111.999 -37s47 -62.334 47 -113.001s-15.667 -88.167 -47 -112.5s-68.666 -36.5 -111.999 -36.5c-44.667 0 -82.667 12.167 -114 36.5s-47 61.833 -47 112.5zM76 522
c0 -35.333 7.66699 -65 23 -89s39.333 -36 72 -36c32 0 55.5 12 70.5 36s22.5 53.667 22.5 89s-7.5 65.166 -22.5 89.499s-38.5 36.5 -70.5 36.5c-32.667 0 -56.667 -12.167 -72 -36.5s-23 -54.166 -23 -89.499z" />
    <glyph glyph-name="guillemotright" unicode="&#xbb;" 
d="M352 230l-106 165.999c19.333 2.66699 32 11.334 38 26.001l120 -191l-126 -187c-8.66699 16 -21 25 -37 27zM207 229.999l-106 165.999c19.333 2.66699 32 11.334 38 26.001l120 -191l-126 -187c-8.66699 16 -21 25 -37 27z" />
    <glyph glyph-name="onequarter" unicode="&#xbc;" horiz-adv-x="834" 
d="M460 104l0.000976562 22.002l212 275c9.33301 -2.66699 18 -4 26 -4s16.667 1.33301 26 4c-3.33301 -56.667 -5 -142 -5 -256c23.333 0 42.666 2 57.999 6c-2.66699 -10.667 -4 -18.334 -4 -23.001c0 -5.33301 1.33301 -13.333 4 -24c-20 2.66699 -39.333 4 -58 4
c0 -24.667 1.33301 -62.334 4 -113.001c-12 3.33301 -23 5 -33 5s-21 -1.66699 -33 -5c3.33301 42 5 79.667 5 113c-84 0 -151.333 -1.33301 -202 -4zM662.001 145.002l0.000976562 192.999l-2 3l-44.5 -58c-23.667 -30.667 -42.334 -55.667 -56.001 -75
s-26.5 -38.666 -38.5 -57.999l2 -5h139zM223.002 -27.999l277 712c8.66699 -3.33301 16.334 -5 23.001 -5s14.334 1.66699 23.001 5l-277 -712c-8.66699 3.33301 -16.334 5 -23.001 5s-14.334 -1.66699 -23.001 -5zM153.002 416.001l0.000976562 199.999l-4 2l-72 -37
c-4.66699 8.66699 -11.334 15 -20.001 19v10c58 18.667 107.333 39.334 148 62.001h11c-4 -50.667 -6 -102.667 -6 -156v-100c0 -50.667 2 -102.667 6 -156c-12 3.33301 -23.333 5 -34 5s-22 -1.66699 -34 -5c3.33301 45.333 5 97.333 5 156z" />
    <glyph glyph-name="onehalf" unicode="&#xbd;" horiz-adv-x="834" 
d="M543 318l-23 29.999c26.667 39.333 66.334 59 119.001 59c39.333 0 70.833 -8.83301 94.5 -26.5s35.5 -44.167 35.5 -79.5c0 -32.667 -12 -64.167 -36 -94.5s-79 -83.5 -165 -159.5l2 -5c95.333 0 162.333 1.66699 201 5c-2.66699 -12 -4 -20.667 -4 -26
s1.33301 -14 4 -26c-52 3.33301 -98.667 5 -140 5s-87.666 -1.66699 -138.999 -5v15c8.66699 8.66699 22.167 21.334 40.5 38.001l38.5 35.5l32.5 31.5c14.333 14 24.333 24.5 30 31.5l23.5 28.5c10 12 16.833 22 20.5 30l13 28.5c5 11 8.33301 21.667 10 32
s2.5 21.166 2.5 32.499c0 28 -7 49.167 -21 63.5s-31.333 21.5 -52 21.5c-24.667 0 -43.834 -6.66699 -57.501 -20s-21.834 -27.666 -24.501 -42.999zM226 -28.001l277 712c8.66699 -3.33301 16.334 -5 23.001 -5s14.334 1.66699 23.001 5l-277 -712
c-8.66699 3.33301 -16.334 5 -23.001 5s-14.334 -1.66699 -23.001 -5zM159 415.999l0.000976562 199.999l-4 2l-72 -37c-4.66699 8.66699 -11.334 15 -20.001 19v10c58 18.667 107.333 39.334 148 62.001h11c-4 -50.667 -6 -102.667 -6 -156v-100
c0 -50.667 2 -102.667 6 -156c-12 3.33301 -23.333 5 -34 5s-22 -1.66699 -34 -5c3.33301 45.333 5 97.333 5 156z" />
    <glyph glyph-name="threequarters" unicode="&#xbe;" horiz-adv-x="834" 
d="M482 104l0.000976562 22.002l212 275c9.33301 -2.66699 18 -4 26 -4s16.667 1.33301 26 4c-3.33301 -56.667 -5 -142 -5 -256c23.333 0 42.666 2 57.999 6c-2.66699 -10.667 -4 -18.334 -4 -23.001c0 -5.33301 1.33301 -13.333 4 -24c-20 2.66699 -39.333 4 -58 4
c0 -24.667 1.33301 -62.334 4 -113.001c-12 3.33301 -23 5 -33 5s-21 -1.66699 -33 -5c3.33301 42 5 79.667 5 113c-84 0 -151.333 -1.33301 -202 -4zM684.001 145.002l0.000976562 192.999l-2 3l-44.5 -58c-23.667 -30.667 -42.334 -55.667 -56.001 -75
s-26.5 -38.666 -38.5 -57.999l2 -5h139zM257.002 -27.999l277 712c8.66699 -3.33301 16.334 -5 23.001 -5s14.334 1.66699 23.001 5l-277 -712c-8.66699 3.33301 -16.334 5 -23.001 5s-14.334 -1.66699 -23.001 -5zM35.002 280.001l9.99902 37.9971h5
c22 -23.333 50.667 -35 86 -35c30.667 0 55.334 9 74.001 27s28 41 28 69c0 30.667 -7.83301 52.834 -23.5 66.501s-34.834 20.5 -57.501 20.5c-14 0 -27.667 -2 -41 -6c2 6 3 11.667 3 17c0 7.33301 -1 14 -3 20c10 -4.66699 21 -7 33 -7c25.333 0 43.5 8.83301 54.5 26.5
s16.5 38.5 16.5 62.5c0 22 -6.5 39 -19.5 51s-28.833 18 -47.5 18c-16.667 0 -31.667 -4.16699 -45 -12.5s-22.333 -18.5 -27 -30.5l-5 -1l-15 32c26.667 24 62 36 106 36c34 0 61.667 -7.5 83 -22.5s32 -36.833 32 -65.5c0 -27.333 -8.83301 -49.666 -26.5 -66.999
s-38.167 -28.666 -61.5 -33.999v-2c28.667 -2 54.167 -10.333 76.5 -25s33.5 -38 33.5 -70c0 -38 -15.167 -68.667 -45.5 -92s-70.5 -35 -120.5 -35c-39.333 0 -73.666 7 -102.999 21z" />
    <glyph glyph-name="questiondown" unicode="&#xbf;" horiz-adv-x="389" 
d="M150 260l-5.99902 4.00195c6.66699 8 10.667 17.333 12 28c8.66699 3.33301 20.334 5 35.001 5c22.667 0 46.167 -9.5 70.5 -28.5s36.5 -46.5 36.5 -82.5c0 -24.667 -5.83301 -48.167 -17.5 -70.5s-26 -42.166 -43 -59.499l-51 -51c-17 -16.667 -31.333 -34.667 -43 -54
s-17.5 -39 -17.5 -59c0 -24 8.66699 -43.667 26 -59s37.333 -23 60 -23c36 0 66.333 15.333 91 46l6 -50c-36 -22 -70.333 -33 -103 -33c-46 0 -82.167 12.667 -108.5 38s-39.5 56.666 -39.5 93.999c0 26 6.16699 51.167 18.5 75.5s27.166 45.666 44.499 63.999l52 53.5
c17.333 17.333 32.166 35.666 44.499 54.999s18.5 38.333 18.5 57c0 14.667 -4.66699 28.167 -14 40.5s-22 18.5 -38 18.5c-12.667 0 -24 -3 -34 -9zM150.001 426.002c0 15.333 5.66699 28.666 17 39.999s24.666 17 39.999 17s28.666 -5.66699 39.999 -17
s17 -24.666 17 -39.999s-5.66699 -28.666 -17 -39.999s-24.666 -17 -39.999 -17s-28.666 5.66699 -39.999 17s-17 24.666 -17 39.999z" />
    <glyph glyph-name="Agrave" unicode="&#xc0;" horiz-adv-x="667" 
d="M330 698l19.002 -0.000976562l79 -188l90.5 -215.5l73.5 -172.5c26 -60 45.333 -102.333 58 -127c-20 3.33301 -37.667 5 -53 5s-33 -1.66699 -53 -5c-4.66699 16 -11.334 36.167 -20.001 60.5s-16.667 45.5 -24 63.5l-31.5 76.5l-27.5 67.5
c-57.333 1.33301 -101 2 -131 2c-26.667 0 -67.334 -0.666992 -122.001 -2c-48.667 -119.333 -81 -208.666 -97 -267.999c-14.667 3.33301 -27 5 -37 5s-22.333 -1.66699 -37 -5zM427.002 308.999l-110.999 254l-109 -254c11.333 0 29.333 -0.333008 54 -1s42.667 -1 54 -1
c25.333 0 62.666 0.666992 111.999 2zM360.003 730.999l-146.999 94c-24 15.333 -36 31 -36 47c0 9.33301 3.66699 17 11 23s14.666 9 21.999 9c14 0 29 -8 45 -24l147 -149h-42z" />
    <glyph glyph-name="Aacute" unicode="&#xc1;" horiz-adv-x="667" 
d="M330 698l19.002 -0.000976562l79 -188l90.5 -215.5l73.5 -172.5c26 -60 45.333 -102.333 58 -127c-20 3.33301 -37.667 5 -53 5s-33 -1.66699 -53 -5c-4.66699 16 -11.334 36.167 -20.001 60.5s-16.667 45.5 -24 63.5l-31.5 76.5l-27.5 67.5
c-57.333 1.33301 -101 2 -131 2c-26.667 0 -67.334 -0.666992 -122.001 -2c-48.667 -119.333 -81 -208.666 -97 -267.999c-14.667 3.33301 -27 5 -37 5s-22.333 -1.66699 -37 -5zM427.002 308.999l-110.999 254l-109 -254c11.333 0 29.333 -0.333008 54 -1s42.667 -1 54 -1
c25.333 0 62.666 0.666992 111.999 2zM265.003 730.999l147.001 149c16 16 31 24 45 24c7.33301 0 14.666 -3 21.999 -9s11 -13.667 11 -23c0 -16 -12 -31.667 -36 -47l-147 -94h-42z" />
    <glyph glyph-name="Acircumflex" unicode="&#xc2;" horiz-adv-x="667" 
d="M330 698l19.002 -0.000976562l79 -188l90.5 -215.5l73.5 -172.5c26 -60 45.333 -102.333 58 -127c-20 3.33301 -37.667 5 -53 5s-33 -1.66699 -53 -5c-4.66699 16 -11.334 36.167 -20.001 60.5s-16.667 45.5 -24 63.5l-31.5 76.5l-27.5 67.5
c-57.333 1.33301 -101 2 -131 2c-26.667 0 -67.334 -0.666992 -122.001 -2c-48.667 -119.333 -81 -208.666 -97 -267.999c-14.667 3.33301 -27 5 -37 5s-22.333 -1.66699 -37 -5zM427.002 308.999l-110.999 254l-109 -254c11.333 0 29.333 -0.333008 54 -1s42.667 -1 54 -1
c25.333 0 62.666 0.666992 111.999 2zM453.003 730.999l-120 105l-119 -105h-37l123 167h67l123 -167h-37z" />
    <glyph glyph-name="Atilde" unicode="&#xc3;" horiz-adv-x="667" 
d="M330 698l19.002 -0.000976562l79 -188l90.5 -215.5l73.5 -172.5c26 -60 45.333 -102.333 58 -127c-20 3.33301 -37.667 5 -53 5s-33 -1.66699 -53 -5c-4.66699 16 -11.334 36.167 -20.001 60.5s-16.667 45.5 -24 63.5l-31.5 76.5l-27.5 67.5
c-57.333 1.33301 -101 2 -131 2c-26.667 0 -67.334 -0.666992 -122.001 -2c-48.667 -119.333 -81 -208.666 -97 -267.999c-14.667 3.33301 -27 5 -37 5s-22.333 -1.66699 -37 -5zM427.002 308.999l-110.999 254l-109 -254c11.333 0 29.333 -0.333008 54 -1s42.667 -1 54 -1
c25.333 0 62.666 0.666992 111.999 2zM199.003 755.999h-30.001c4.66699 27.333 15.834 51.333 33.501 72s41.167 31 70.5 31c17.333 0 41.666 -7.66699 72.999 -23s53.333 -23 66 -23c28 0 47 16.667 57 50h29c-1.33301 -10 -4.16602 -20.333 -8.49902 -31
s-10.333 -22.167 -18 -34.5s-18.667 -22.333 -33 -30s-30.833 -11.5 -49.5 -11.5c-20 0 -44 7.66699 -72 23s-49.667 23 -65 23s-26.5 -3.16699 -33.5 -9.5s-13.5 -18.5 -19.5 -36.5z" />
    <glyph glyph-name="Adieresis" unicode="&#xc4;" horiz-adv-x="667" 
d="M330 698l19.002 -0.000976562l79 -188l90.5 -215.5l73.5 -172.5c26 -60 45.333 -102.333 58 -127c-20 3.33301 -37.667 5 -53 5s-33 -1.66699 -53 -5c-4.66699 16 -11.334 36.167 -20.001 60.5s-16.667 45.5 -24 63.5l-31.5 76.5l-27.5 67.5
c-57.333 1.33301 -101 2 -131 2c-26.667 0 -67.334 -0.666992 -122.001 -2c-48.667 -119.333 -81 -208.666 -97 -267.999c-14.667 3.33301 -27 5 -37 5s-22.333 -1.66699 -37 -5zM427.002 308.999l-110.999 254l-109 -254c11.333 0 29.333 -0.333008 54 -1s42.667 -1 54 -1
c25.333 0 62.666 0.666992 111.999 2zM381.003 808.999c0 14 5 26 15 36s22 15 36 15s26 -5 36 -15s15 -22 15 -36s-5 -26 -15 -36s-22 -15 -36 -15s-26 5 -36 15s-15 22 -15 36zM184.003 808.999c0 14 5 26 15 36s22 15 36 15s26 -5 36 -15s15 -22 15 -36s-5 -26 -15 -36
s-22 -15 -36 -15s-26 5 -36 15s-15 22 -15 36z" />
    <glyph glyph-name="Aring" unicode="&#xc5;" horiz-adv-x="667" 
d="M330 698l19.002 -0.000976562l79 -188l90.5 -215.5l73.5 -172.5c26 -60 45.333 -102.333 58 -127c-20 3.33301 -37.667 5 -53 5s-33 -1.66699 -53 -5c-4.66699 16 -11.334 36.167 -20.001 60.5s-16.667 45.5 -24 63.5l-31.5 76.5l-27.5 67.5
c-57.333 1.33301 -101 2 -131 2c-26.667 0 -67.334 -0.666992 -122.001 -2c-48.667 -119.333 -81 -208.666 -97 -267.999c-14.667 3.33301 -27 5 -37 5s-22.333 -1.66699 -37 -5zM427.002 308.999l-110.999 254l-109 -254c11.333 0 29.333 -0.333008 54 -1s42.667 -1 54 -1
c25.333 0 62.666 0.666992 111.999 2zM231.003 816.999c0 28 10 52 30 72s44.333 30 73 30c28 0 52 -10 72 -30s30 -44 30 -72s-10 -52 -30 -72s-44.333 -30 -73 -30c-28 0 -52 10 -72 30s-30 44 -30 72zM273.003 816.999c0 -16.667 5.83301 -30.834 17.5 -42.501
s25.834 -17.5 42.501 -17.5s31 5.83301 43 17.5s18 25.834 18 42.501s-5.83301 30.834 -17.5 42.501s-25.834 17.5 -42.501 17.5s-31 -5.83301 -43 -17.5s-18 -25.834 -18 -42.501z" />
    <glyph glyph-name="AE" unicode="&#xc6;" horiz-adv-x="833" 
d="M451 246l-231.001 5.99805c-51.333 -83.333 -98 -169 -140 -257c-15.333 3.33301 -29 5 -41 5c-13.333 0 -28.333 -1.66699 -45 -5c84.667 119.333 234.334 349.333 449.001 690c62 -3.33301 118.333 -5 169 -5s106 1.66699 166 5
c-3.33301 -11.333 -5 -21.666 -5 -30.999s1.66699 -19.666 5 -30.999c-50 10 -130 15 -240 15c-3.33301 -96.667 -5 -155 -5 -175v-82c94 0 169 2.33301 225 7c-3.33301 -10 -5 -19.333 -5 -28s1.66699 -18 5 -28c-57.333 4.66699 -132.333 7 -225 7v-101
c0 -22.667 1.66699 -88 5 -196c118 0 200.333 3.66699 247 11c-3.33301 -11.333 -5 -21 -5 -29s1.66699 -17.667 5 -29c-64.667 3.33301 -121.667 5 -171 5c-50.667 -0 -107.667 -1.66699 -171 -5c5.33301 56 8 139.667 8 251zM450.999 287.998v319h-11l-198 -313z" />
    <glyph glyph-name="Ccedilla" unicode="&#xc7;" horiz-adv-x="667" 
d="M323 -111l36.998 93.0039c-95.333 10 -172.166 46.5 -230.499 109.5s-87.5 145.833 -87.5 248.5c0 111.333 34.333 198.833 103 262.5s159.334 95.5 272.001 95.5c78.667 0 151 -15.333 217 -46c-6 -11.333 -13 -37.333 -21 -78l-6 -2c-20 22 -46.333 42.333 -79 61
s-69.667 28 -111 28c-82.667 0 -149.5 -26.833 -200.5 -80.5s-76.5 -133.834 -76.5 -240.501s25.5 -186.834 76.5 -240.501s117.833 -80.5 200.5 -80.5c28.667 0 57.834 5.5 87.501 16.5s51.5 21.167 65.5 30.5s30.667 21.333 50 36l4 -4l-9 -59
c-16 -12.667 -43.5 -25.334 -82.5 -38.001s-80.833 -19 -125.5 -19h-12l-21 -61c8.66699 3.33301 18.334 5 29.001 5c26 0 46.333 -6.33301 61 -19s22 -30 22 -52c0 -26.667 -11.333 -47.5 -34 -62.5s-51 -22.5 -85 -22.5c-28.667 0 -58.334 5.66699 -89.001 17l14 32
c20 -8 44 -12 72 -12c17.333 0 31.666 3.66699 42.999 11s17 17.666 17 30.999c0 26.667 -17 40 -51 40c-22 0 -36.333 -2.33301 -43 -7z" />
    <glyph glyph-name="Egrave" unicode="&#xc8;" 
d="M98 255v171.999c0 58.667 -2.66699 144.667 -8 258c66.667 -3.33301 126.334 -5 179.001 -5c53.333 0 112.666 1.66699 177.999 5c-2 -10 -3 -20 -3 -30s1 -20 3 -30c-121.333 8.66699 -209 13 -263 13c0 -9.33301 -0.666992 -28.166 -2 -56.499s-2 -51.833 -2 -70.5
c0 -19.333 0.166992 -44.666 0.5 -75.999s0.5 -50 0.5 -56c83.333 0 164.333 3.33301 243 10c-2 -10 -3 -20.333 -3 -31c0 -10 1 -20 3 -30c-59.333 6 -140.333 9 -243 9c-0.666992 -16 -1 -64.333 -1 -145c0 -66.667 0.666992 -116.667 2 -150
c134.667 0 224.667 4.33301 270 13c-2 -8.66699 -3 -19 -3 -31c0 -10.667 1 -20.334 3 -29.001c-65.333 3.33301 -125.333 5 -180 5c-53.333 -0 -114 -1.66699 -182 -5c5.33301 116 8 202.667 8 260zM293 730.999l-146.999 94c-24 15.333 -36 31 -36 47
c0 9.33301 3.66699 17 11 23s14.666 9 21.999 9c14 0 29 -8 45 -24l147 -149h-42z" />
    <glyph glyph-name="Eacute" unicode="&#xc9;" 
d="M98 255v171.999c0 58.667 -2.66699 144.667 -8 258c66.667 -3.33301 126.334 -5 179.001 -5c53.333 0 112.666 1.66699 177.999 5c-2 -10 -3 -20 -3 -30s1 -20 3 -30c-121.333 8.66699 -209 13 -263 13c0 -9.33301 -0.666992 -28.166 -2 -56.499s-2 -51.833 -2 -70.5
c0 -19.333 0.166992 -44.666 0.5 -75.999s0.5 -50 0.5 -56c83.333 0 164.333 3.33301 243 10c-2 -10 -3 -20.333 -3 -31c0 -10 1 -20 3 -30c-59.333 6 -140.333 9 -243 9c-0.666992 -16 -1 -64.333 -1 -145c0 -66.667 0.666992 -116.667 2 -150
c134.667 0 224.667 4.33301 270 13c-2 -8.66699 -3 -19 -3 -31c0 -10.667 1 -20.334 3 -29.001c-65.333 3.33301 -125.333 5 -180 5c-53.333 -0 -114 -1.66699 -182 -5c5.33301 116 8 202.667 8 260zM198 730.999l147.001 149c16 16 31 24 45 24
c7.33301 0 14.666 -3 21.999 -9s11 -13.667 11 -23c0 -16 -12 -31.667 -36 -47l-147 -94h-42z" />
    <glyph glyph-name="Ecircumflex" unicode="&#xca;" 
d="M98 255v171.999c0 58.667 -2.66699 144.667 -8 258c66.667 -3.33301 126.334 -5 179.001 -5c53.333 0 112.666 1.66699 177.999 5c-2 -10 -3 -20 -3 -30s1 -20 3 -30c-121.333 8.66699 -209 13 -263 13c0 -9.33301 -0.666992 -28.166 -2 -56.499s-2 -51.833 -2 -70.5
c0 -19.333 0.166992 -44.666 0.5 -75.999s0.5 -50 0.5 -56c83.333 0 164.333 3.33301 243 10c-2 -10 -3 -20.333 -3 -31c0 -10 1 -20 3 -30c-59.333 6 -140.333 9 -243 9c-0.666992 -16 -1 -64.333 -1 -145c0 -66.667 0.666992 -116.667 2 -150
c134.667 0 224.667 4.33301 270 13c-2 -8.66699 -3 -19 -3 -31c0 -10.667 1 -20.334 3 -29.001c-65.333 3.33301 -125.333 5 -180 5c-53.333 -0 -114 -1.66699 -182 -5c5.33301 116 8 202.667 8 260zM386 730.999l-120 105l-119 -105h-37l123 167h67l123 -167h-37z" />
    <glyph glyph-name="Edieresis" unicode="&#xcb;" 
d="M98 255v171.999c0 58.667 -2.66699 144.667 -8 258c66.667 -3.33301 126.334 -5 179.001 -5c53.333 0 112.666 1.66699 177.999 5c-2 -10 -3 -20 -3 -30s1 -20 3 -30c-121.333 8.66699 -209 13 -263 13c0 -9.33301 -0.666992 -28.166 -2 -56.499s-2 -51.833 -2 -70.5
c0 -19.333 0.166992 -44.666 0.5 -75.999s0.5 -50 0.5 -56c83.333 0 164.333 3.33301 243 10c-2 -10 -3 -20.333 -3 -31c0 -10 1 -20 3 -30c-59.333 6 -140.333 9 -243 9c-0.666992 -16 -1 -64.333 -1 -145c0 -66.667 0.666992 -116.667 2 -150
c134.667 0 224.667 4.33301 270 13c-2 -8.66699 -3 -19 -3 -31c0 -10.667 1 -20.334 3 -29.001c-65.333 3.33301 -125.333 5 -180 5c-53.333 -0 -114 -1.66699 -182 -5c5.33301 116 8 202.667 8 260zM314 808.999c0 14 5 26 15 36s22 15 36 15s26 -5 36 -15s15 -22 15 -36
s-5 -26 -15 -36s-22 -15 -36 -15s-26 5 -36 15s-15 22 -15 36zM117 808.999c0 14 5 26 15 36s22 15 36 15s26 -5 36 -15s15 -22 15 -36s-5 -26 -15 -36s-22 -15 -36 -15s-26 5 -36 15s-15 22 -15 36z" />
    <glyph glyph-name="Igrave" unicode="&#xcc;" horiz-adv-x="278" 
d="M98 254v172c0 58 -2.66699 144.333 -8 259c18.667 -3.33301 35 -5 49 -5s30.333 1.66699 49 5c-5.33301 -114.667 -8 -201 -8 -259v-172c0 -58 2.66699 -144.333 8 -259c-18.667 3.33301 -35 5 -49 5s-30.333 -1.66699 -49 -5c5.33301 114.667 8 201 8 259zM166 731
l-146.999 94c-24 15.333 -36 31 -36 47c0 9.33301 3.66699 17 11 23s14.666 9 21.999 9c14 0 29 -8 45 -24l147 -149h-42z" />
    <glyph glyph-name="Iacute" unicode="&#xcd;" horiz-adv-x="278" 
d="M98 254v172c0 58 -2.66699 144.333 -8 259c18.667 -3.33301 35 -5 49 -5s30.333 1.66699 49 5c-5.33301 -114.667 -8 -201 -8 -259v-172c0 -58 2.66699 -144.333 8 -259c-18.667 3.33301 -35 5 -49 5s-30.333 -1.66699 -49 -5c5.33301 114.667 8 201 8 259zM71 731
l147.001 149c16 16 31 24 45 24c7.33301 0 14.666 -3 21.999 -9s11 -13.667 11 -23c0 -16 -12 -31.667 -36 -47l-147 -94h-42z" />
    <glyph glyph-name="Icircumflex" unicode="&#xce;" horiz-adv-x="278" 
d="M98 254v172c0 58 -2.66699 144.333 -8 259c18.667 -3.33301 35 -5 49 -5s30.333 1.66699 49 5c-5.33301 -114.667 -8 -201 -8 -259v-172c0 -58 2.66699 -144.333 8 -259c-18.667 3.33301 -35 5 -49 5s-30.333 -1.66699 -49 -5c5.33301 114.667 8 201 8 259zM259 731
l-120 105l-119 -105h-37l123 167h67l123 -167h-37z" />
    <glyph glyph-name="Idieresis" unicode="&#xcf;" horiz-adv-x="278" 
d="M98 254v172c0 58 -2.66699 144.333 -8 259c18.667 -3.33301 35 -5 49 -5s30.333 1.66699 49 5c-5.33301 -114.667 -8 -201 -8 -259v-172c0 -58 2.66699 -144.333 8 -259c-18.667 3.33301 -35 5 -49 5s-30.333 -1.66699 -49 -5c5.33301 114.667 8 201 8 259zM187 809
c0 14 5 26 15 36s22 15 36 15s26 -5 36 -15s15 -22 15 -36s-5 -26 -15 -36s-22 -15 -36 -15s-26 5 -36 15s-15 22 -15 36zM-10 809c0 14 5 26 15 36s22 15 36 15s26 -5 36 -15s15 -22 15 -36s-5 -26 -15 -36s-22 -15 -36 -15s-26 5 -36 15s-15 22 -15 36z" />
    <glyph glyph-name="Eth" unicode="&#xd0;" horiz-adv-x="778" 
d="M180 365l0.000976562 -110.999c0 -72 2 -142.667 6 -212c31.333 -6.66699 75 -10 131 -10c32 0 61.667 2.66699 89 8s54.833 15.166 82.5 29.499s51.167 33.166 70.5 56.499s35 54.5 47 93.5s18 83.833 18 134.5c0 56 -6.83301 103.5 -20.5 142.5
s-33.834 68.833 -60.501 89.5s-56.167 35.334 -88.5 44.001s-70.5 13 -114.5 13c-48 0 -99.333 -3.33301 -154 -10c-4 -64 -6 -133 -6 -207v-24c66.667 0 130.667 1 192 3c-2 -7.33301 -3 -14.333 -3 -21c0 -7.33301 1 -15 3 -23c-54 2.66699 -118 4 -192 4zM98.001 402.001
l-0.00292969 24.001c0 58 -2.66699 144.333 -8 259c55.333 -3.33301 105.666 -5 150.999 -5c16.667 0 41.834 0.833008 75.501 2.5s58.834 2.5 75.501 2.5c220 0 330 -110.333 330 -331c0 -51.333 -7.66699 -97.833 -23 -139.5s-35.166 -75.834 -59.499 -102.501
s-52.666 -49 -84.999 -67s-64.833 -30.833 -97.5 -38.5s-65.667 -11.5 -99 -11.5c-14.667 0 -37 0.833008 -67 2.5s-52.333 2.5 -67 2.5c-39.333 0 -84 -1.66699 -134 -5c5.33301 114.667 8 201 8 259v111c-40.667 0 -73.334 -0.666992 -98.001 -2
c1.33301 9.33301 2 16.333 2 21c0 4 -0.666992 10.667 -2 20c24.667 -1.33301 57.334 -2 98.001 -2z" />
    <glyph glyph-name="Ntilde" unicode="&#xd1;" horiz-adv-x="778" 
d="M675 -18l-14.002 -0.000976562c-91.333 107.333 -259.666 291.666 -504.999 552.999c-2 -74 -3 -141.667 -3 -203c0 -176.667 3 -289 9 -337c-12 3.33301 -23.667 5 -35 5c-10 0 -22.333 -1.66699 -37 -5c4 24 8.5 86.333 13.5 187s7.5 183.334 7.5 248.001
c0 148.667 -1 238 -3 268h16c264.667 -287.333 433.334 -467.666 506.001 -540.999c0 249.333 -2.66699 425.333 -8 528c12 -3.33301 23.333 -5 34 -5c9.33301 0 20 1.66699 32 5c-3.33301 -30.667 -6.83301 -84.667 -10.5 -162s-5.5 -135 -5.5 -173
c0 -155.333 1 -278 3 -368zM270.998 755.999h-30.001c4.66699 27.333 15.834 51.333 33.501 72s41.167 31 70.5 31c17.333 0 41.666 -7.66699 72.999 -23s53.333 -23 66 -23c28 0 47 16.667 57 50h29c-1.33301 -10 -4.16602 -20.333 -8.49902 -31s-10.333 -22.167 -18 -34.5
s-18.667 -22.333 -33 -30s-30.833 -11.5 -49.5 -11.5c-20 0 -44 7.66699 -72 23s-49.667 23 -65 23s-26.5 -3.16699 -33.5 -9.5s-13.5 -18.5 -19.5 -36.5z" />
    <glyph glyph-name="Ograve" unicode="&#xd2;" horiz-adv-x="833" 
d="M693 340c0 106.667 -25.5 186.832 -76.5 240.499s-117.833 80.5 -200.5 80.5s-149.334 -27 -200.001 -81s-76 -134 -76 -240s25.333 -186 76 -240s117.334 -81 200.001 -81s149.5 26.833 200.5 80.5s76.5 133.834 76.5 240.501zM42 339.998
c0 111.333 34.333 198.833 103 262.5s159 95.5 271 95.5c112.667 0 203.334 -31.833 272.001 -95.5s103 -151.167 103 -262.5s-34.333 -198.833 -103 -262.5s-159.334 -95.5 -272.001 -95.5c-112 0 -202.333 31.833 -271 95.5s-103 151.167 -103 262.5zM443 730.998
l-146.999 94c-24 15.333 -36 31 -36 47c0 9.33301 3.66699 17 11 23s14.666 9 21.999 9c14 0 29 -8 45 -24l147 -149h-42z" />
    <glyph glyph-name="Oacute" unicode="&#xd3;" horiz-adv-x="833" 
d="M693 340c0 106.667 -25.5 186.832 -76.5 240.499s-117.833 80.5 -200.5 80.5s-149.334 -27 -200.001 -81s-76 -134 -76 -240s25.333 -186 76 -240s117.334 -81 200.001 -81s149.5 26.833 200.5 80.5s76.5 133.834 76.5 240.501zM42 339.998
c0 111.333 34.333 198.833 103 262.5s159 95.5 271 95.5c112.667 0 203.334 -31.833 272.001 -95.5s103 -151.167 103 -262.5s-34.333 -198.833 -103 -262.5s-159.334 -95.5 -272.001 -95.5c-112 0 -202.333 31.833 -271 95.5s-103 151.167 -103 262.5zM348 730.998
l147.001 149c16 16 31 24 45 24c7.33301 0 14.666 -3 21.999 -9s11 -13.667 11 -23c0 -16 -12 -31.667 -36 -47l-147 -94h-42z" />
    <glyph glyph-name="Ocircumflex" unicode="&#xd4;" horiz-adv-x="833" 
d="M693 340c0 106.667 -25.5 186.832 -76.5 240.499s-117.833 80.5 -200.5 80.5s-149.334 -27 -200.001 -81s-76 -134 -76 -240s25.333 -186 76 -240s117.334 -81 200.001 -81s149.5 26.833 200.5 80.5s76.5 133.834 76.5 240.501zM42 339.998
c0 111.333 34.333 198.833 103 262.5s159 95.5 271 95.5c112.667 0 203.334 -31.833 272.001 -95.5s103 -151.167 103 -262.5s-34.333 -198.833 -103 -262.5s-159.334 -95.5 -272.001 -95.5c-112 0 -202.333 31.833 -271 95.5s-103 151.167 -103 262.5zM536 730.998
l-120 105l-119 -105h-37l123 167h67l123 -167h-37z" />
    <glyph glyph-name="Otilde" unicode="&#xd5;" horiz-adv-x="833" 
d="M693 340c0 106.667 -25.5 186.832 -76.5 240.499s-117.833 80.5 -200.5 80.5s-149.334 -27 -200.001 -81s-76 -134 -76 -240s25.333 -186 76 -240s117.334 -81 200.001 -81s149.5 26.833 200.5 80.5s76.5 133.834 76.5 240.501zM42 339.998
c0 111.333 34.333 198.833 103 262.5s159 95.5 271 95.5c112.667 0 203.334 -31.833 272.001 -95.5s103 -151.167 103 -262.5s-34.333 -198.833 -103 -262.5s-159.334 -95.5 -272.001 -95.5c-112 0 -202.333 31.833 -271 95.5s-103 151.167 -103 262.5zM282 755.998h-30.001
c4.66699 27.333 15.834 51.333 33.501 72s41.167 31 70.5 31c17.333 0 41.666 -7.66699 72.999 -23s53.333 -23 66 -23c28 0 47 16.667 57 50h29c-1.33301 -10 -4.16602 -20.333 -8.49902 -31s-10.333 -22.167 -18 -34.5s-18.667 -22.333 -33 -30s-30.833 -11.5 -49.5 -11.5
c-20 0 -44 7.66699 -72 23s-49.667 23 -65 23s-26.5 -3.16699 -33.5 -9.5s-13.5 -18.5 -19.5 -36.5z" />
    <glyph glyph-name="Odieresis" unicode="&#xd6;" horiz-adv-x="833" 
d="M693 340c0 106.667 -25.5 186.832 -76.5 240.499s-117.833 80.5 -200.5 80.5s-149.334 -27 -200.001 -81s-76 -134 -76 -240s25.333 -186 76 -240s117.334 -81 200.001 -81s149.5 26.833 200.5 80.5s76.5 133.834 76.5 240.501zM42 339.998
c0 111.333 34.333 198.833 103 262.5s159 95.5 271 95.5c112.667 0 203.334 -31.833 272.001 -95.5s103 -151.167 103 -262.5s-34.333 -198.833 -103 -262.5s-159.334 -95.5 -272.001 -95.5c-112 0 -202.333 31.833 -271 95.5s-103 151.167 -103 262.5zM464 808.998
c0 14 5 26 15 36s22 15 36 15s26 -5 36 -15s15 -22 15 -36s-5 -26 -15 -36s-22 -15 -36 -15s-26 5 -36 15s-15 22 -15 36zM267 808.998c0 14 5 26 15 36s22 15 36 15s26 -5 36 -15s15 -22 15 -36s-5 -26 -15 -36s-22 -15 -36 -15s-26 5 -36 15s-15 22 -15 36z" />
    <glyph glyph-name="multiply" unicode="&#xd7;" horiz-adv-x="606" 
d="M82 69l184 184l-184 185l37 36l184 -184l185 184l36 -36l-184 -185l184 -184l-36 -37l-185 184l-184 -184z" />
    <glyph glyph-name="Oslash" unicode="&#xd8;" horiz-adv-x="833" 
d="M202 118l413.001 464c-48 52.667 -114.333 79 -199 79c-82.667 0 -149.334 -27 -200.001 -81s-76 -134 -76 -240c0 -94 20.667 -168 62 -222zM42.001 340c0 111.333 34.335 198.831 103.002 262.498s159 95.5 271 95.5c97.333 0 177.333 -23.333 240 -70
c47.333 49.333 76.333 84 87 104c6.66699 -8.66699 16 -16.667 28 -24c-11.333 -7.33301 -42.333 -39.666 -93 -96.999c75.333 -64.667 113 -155 113 -271c0 -111.333 -34.333 -198.833 -103 -262.5s-159.334 -95.5 -272.001 -95.5c-94 0 -173 22.667 -237 68
c-49.333 -55.333 -79 -91 -89 -107c-6.66699 9.33301 -16 17.333 -28 24c11.333 8.66699 42.666 42.334 93.999 101.001c-76 63.333 -114 154 -114 272zM633.003 559.998l-413 -464.001c48.667 -51.333 114 -77 196 -77c82.667 0 149.5 26.833 200.5 80.5
s76.5 133.834 76.5 240.501c0 90.667 -20 164 -60 220z" />
    <glyph glyph-name="Ugrave" unicode="&#xd9;" horiz-adv-x="778" 
d="M619 360c0 190.667 -2.00098 298.995 -6.00098 324.995c14.667 -3.33301 28.334 -5 41.001 -5c10 0 20 1.66699 30 5c-10 -113.333 -16 -251.666 -18 -414.999c-1.33301 -89.333 -26.833 -159.666 -76.5 -210.999s-119.167 -77 -208.5 -77c-98.667 0 -171 23.333 -217 70
s-69 118.667 -69 216c0 21.333 0.833008 49 2.5 83s2.5 59 2.5 75c0 56.667 -2 143 -6 259c18 -3.33301 35.333 -5 52 -5c14 0 28.333 1.66699 43 5c-8 -78.667 -12 -193 -12 -343c0 -23.333 0.166992 -41.166 0.5 -53.499s1.33301 -29.833 3 -52.5s4.5 -40.5 8.5 -53.5
s9.33301 -28.667 16 -47s15.5 -33 26.5 -44s24.167 -21.833 39.5 -32.5s33.833 -18.334 55.5 -23.001s46.167 -7 73.5 -7c24 0 45.833 2.5 65.5 7.5s36.5 11.333 50.5 19s26.667 18.167 38 31.5s20.5 26 27.5 38s13 27.333 18 46s8.83301 34.334 11.5 47.001
s4.5 29.334 5.5 50.001s1.66699 36.334 2 47.001s0.5 25.667 0.5 45zM415.999 730.995l-146.999 94c-24 15.333 -36 31 -36 47c0 9.33301 3.66699 17 11 23s14.666 9 21.999 9c14 0 29 -8 45 -24l147 -149h-42z" />
    <glyph glyph-name="Uacute" unicode="&#xda;" horiz-adv-x="778" 
d="M619 360c0 190.667 -2.00098 298.995 -6.00098 324.995c14.667 -3.33301 28.334 -5 41.001 -5c10 0 20 1.66699 30 5c-10 -113.333 -16 -251.666 -18 -414.999c-1.33301 -89.333 -26.833 -159.666 -76.5 -210.999s-119.167 -77 -208.5 -77c-98.667 0 -171 23.333 -217 70
s-69 118.667 -69 216c0 21.333 0.833008 49 2.5 83s2.5 59 2.5 75c0 56.667 -2 143 -6 259c18 -3.33301 35.333 -5 52 -5c14 0 28.333 1.66699 43 5c-8 -78.667 -12 -193 -12 -343c0 -23.333 0.166992 -41.166 0.5 -53.499s1.33301 -29.833 3 -52.5s4.5 -40.5 8.5 -53.5
s9.33301 -28.667 16 -47s15.5 -33 26.5 -44s24.167 -21.833 39.5 -32.5s33.833 -18.334 55.5 -23.001s46.167 -7 73.5 -7c24 0 45.833 2.5 65.5 7.5s36.5 11.333 50.5 19s26.667 18.167 38 31.5s20.5 26 27.5 38s13 27.333 18 46s8.83301 34.334 11.5 47.001
s4.5 29.334 5.5 50.001s1.66699 36.334 2 47.001s0.5 25.667 0.5 45zM320.999 730.995l147.001 149c16 16 31 24 45 24c7.33301 0 14.666 -3 21.999 -9s11 -13.667 11 -23c0 -16 -12 -31.667 -36 -47l-147 -94h-42z" />
    <glyph glyph-name="Ucircumflex" unicode="&#xdb;" horiz-adv-x="778" 
d="M619 360c0 190.667 -2.00098 298.995 -6.00098 324.995c14.667 -3.33301 28.334 -5 41.001 -5c10 0 20 1.66699 30 5c-10 -113.333 -16 -251.666 -18 -414.999c-1.33301 -89.333 -26.833 -159.666 -76.5 -210.999s-119.167 -77 -208.5 -77c-98.667 0 -171 23.333 -217 70
s-69 118.667 -69 216c0 21.333 0.833008 49 2.5 83s2.5 59 2.5 75c0 56.667 -2 143 -6 259c18 -3.33301 35.333 -5 52 -5c14 0 28.333 1.66699 43 5c-8 -78.667 -12 -193 -12 -343c0 -23.333 0.166992 -41.166 0.5 -53.499s1.33301 -29.833 3 -52.5s4.5 -40.5 8.5 -53.5
s9.33301 -28.667 16 -47s15.5 -33 26.5 -44s24.167 -21.833 39.5 -32.5s33.833 -18.334 55.5 -23.001s46.167 -7 73.5 -7c24 0 45.833 2.5 65.5 7.5s36.5 11.333 50.5 19s26.667 18.167 38 31.5s20.5 26 27.5 38s13 27.333 18 46s8.83301 34.334 11.5 47.001
s4.5 29.334 5.5 50.001s1.66699 36.334 2 47.001s0.5 25.667 0.5 45zM508.999 730.995l-120 105l-119 -105h-37l123 167h67l123 -167h-37z" />
    <glyph glyph-name="Udieresis" unicode="&#xdc;" horiz-adv-x="778" 
d="M619 360c0 190.667 -2.00098 298.995 -6.00098 324.995c14.667 -3.33301 28.334 -5 41.001 -5c10 0 20 1.66699 30 5c-10 -113.333 -16 -251.666 -18 -414.999c-1.33301 -89.333 -26.833 -159.666 -76.5 -210.999s-119.167 -77 -208.5 -77c-98.667 0 -171 23.333 -217 70
s-69 118.667 -69 216c0 21.333 0.833008 49 2.5 83s2.5 59 2.5 75c0 56.667 -2 143 -6 259c18 -3.33301 35.333 -5 52 -5c14 0 28.333 1.66699 43 5c-8 -78.667 -12 -193 -12 -343c0 -23.333 0.166992 -41.166 0.5 -53.499s1.33301 -29.833 3 -52.5s4.5 -40.5 8.5 -53.5
s9.33301 -28.667 16 -47s15.5 -33 26.5 -44s24.167 -21.833 39.5 -32.5s33.833 -18.334 55.5 -23.001s46.167 -7 73.5 -7c24 0 45.833 2.5 65.5 7.5s36.5 11.333 50.5 19s26.667 18.167 38 31.5s20.5 26 27.5 38s13 27.333 18 46s8.83301 34.334 11.5 47.001
s4.5 29.334 5.5 50.001s1.66699 36.334 2 47.001s0.5 25.667 0.5 45zM436.999 808.995c0 14 5 26 15 36s22 15 36 15s26 -5 36 -15s15 -22 15 -36s-5 -26 -15 -36s-22 -15 -36 -15s-26 5 -36 15s-15 22 -15 36zM239.999 808.995c0 14 5 26 15 36s22 15 36 15s26 -5 36 -15
s15 -22 15 -36s-5 -26 -15 -36s-22 -15 -36 -15s-26 5 -36 15s-15 22 -15 36z" />
    <glyph glyph-name="Yacute" unicode="&#xdd;" horiz-adv-x="611" 
d="M265 279c-122.667 212 -203.667 347.334 -243 406.001c20 -3.33301 38.333 -5 55 -5s35 1.66699 55 5c50.667 -99.333 114 -214.666 190 -345.999c64.667 101.333 127.667 216.666 189 345.999c14.667 -3.33301 27.667 -5 39 -5s24.333 1.66699 39 5
c-124 -190.667 -204.667 -322.334 -242 -395.001c0 -130.667 2.66699 -229 8 -295c-18.667 3.33301 -35 5 -49 5s-30.333 -1.66699 -49 -5c5.33301 47.333 8 142 8 284zM237 721.001l147.001 149c16 16 31 24 45 24c7.33301 0 14.666 -3 21.999 -9s11 -13.667 11 -23
c0 -16 -12 -31.667 -36 -47l-147 -94h-42z" />
    <glyph glyph-name="Thorn" unicode="&#xde;" horiz-adv-x="556" 
d="M180 517v-285c14 -2.66699 40 -4 78 -4c46.667 0 86.5 13 119.5 39s49.5 63.333 49.5 112c0 38 -12.667 70.5 -38 97.5s-65.333 40.5 -120 40.5h-89zM98 254l-0.00195312 172c0 58 -2.66699 144.333 -8 259c18.667 -3.33301 35 -5 49 -5s30.333 1.66699 49 5
c-5.33301 -58.667 -8 -102.334 -8 -131.001h123c144 0 216 -58 216 -174c0 -35.333 -7.16699 -65.833 -21.5 -91.5s-33.666 -45.167 -57.999 -58.5s-50.166 -23.166 -77.499 -29.499s-57 -9.5 -89 -9.5c-24.667 0 -55.667 1.33301 -93 4v-56
c0 -74.667 2.66699 -122.667 8 -144c-18.667 3.33301 -35 5 -49 5s-30.333 -1.66699 -49 -5c5.33301 114.667 8 201 8 259z" />
    <glyph glyph-name="germandbls" unicode="&#xdf;" horiz-adv-x="556" 
d="M87 283l-0.00292969 123.001c0 24.667 -0.5 50.667 -1.5 78s-1.5 41.666 -1.5 42.999c0 39.333 6.33301 74.333 19 105s29.334 54.5 50.001 71.5s42.334 29.833 65.001 38.5s45.667 13 69 13c34 0 66.833 -10.833 98.5 -32.5s47.5 -48.5 47.5 -80.5
c0 -23.333 -6.16699 -46.166 -18.5 -68.499s-25.833 -40.833 -40.5 -55.5s-28.167 -30.5 -40.5 -47.5s-18.5 -32.167 -18.5 -45.5c0 -16.667 7.33301 -32.5 22 -47.5s32.334 -28.833 53.001 -41.5l62.001 -40s38.334 -31.667 53.001 -53s22 -45 22 -71
c0 -44.667 -20.167 -87 -60.5 -127s-85.5 -60 -135.5 -60c-40.667 0 -74 7.66699 -100 23c9.33301 15.333 15.333 35 18 59h5c7.33301 -12 20.333 -22.5 39 -31.5s38 -13.5 58 -13.5c28.667 0 53.834 9.83301 75.501 29.5s32.5 45.167 32.5 76.5
c0 23.333 -7.33301 44.833 -22 64.5s-32.334 36.5 -53.001 50.5l-62 41.5c-20.667 13.667 -38.334 29.5 -53.001 47.5s-22 37.333 -22 58c0 17.333 7 35.833 21 55.5s29.333 37.5 46 53.5s32 35.833 46 59.5s21 47.5 21 71.5c0 27.333 -8.83301 49.666 -26.5 66.999
s-41.834 26 -72.501 26c-44.667 0 -76 -16.833 -94 -50.5s-27 -85.167 -27 -154.5v-235c0 -132.667 2.66699 -228.667 8 -288c-16.667 3.33301 -31.667 5 -45 5s-28.333 -1.66699 -45 -5c5.33301 59.333 8 155.333 8 288z" />
    <glyph glyph-name="agrave" unicode="&#xe0;" 
d="M86 373l0.00195312 51.9971c51.333 38.667 105 58 161 58c48 0 87 -13.5 117 -40.5s45 -62.833 45 -107.5c0 -24 -0.666992 -61.667 -2 -113s-2 -91.333 -2 -120c0 -11.333 0.166992 -20.166 0.5 -26.499s1.66602 -13.833 3.99902 -22.5s6.33301 -15 12 -19
s13.167 -6 22.5 -6s16.333 1.33301 21 4v-22c-22 -9.33301 -43.333 -14 -64 -14s-36.834 5.83301 -48.501 17.5s-18.5 26.5 -20.5 44.5c-25.333 -25.333 -49.666 -43.833 -72.999 -55.5s-51.333 -17.5 -84 -17.5c-35.333 0 -66.333 11.333 -93 34s-40 52.334 -40 89.001
c0 76 47 121.667 141 137c49.333 8 84.166 14.833 104.499 20.5s33 11.667 38 18s7.5 16.833 7.5 31.5c0 36.667 -9 66.834 -27 90.501s-45.667 35.5 -83 35.5c-26.667 0 -51.5 -6 -74.5 -18s-40.167 -28.667 -51.5 -50h-11zM329.002 96.9971l4 149.998
c-10.667 -3.33301 -30.667 -7.83301 -60 -13.5s-53.333 -11.167 -72 -16.5s-36.167 -16.166 -52.5 -32.499s-24.5 -37.166 -24.5 -62.499c0 -30 8.5 -53.333 25.5 -70s37.5 -25 61.5 -25s46.5 6.66699 67.5 20s37.833 30 50.5 50zM277.002 558.995l-146.999 93.999
c-24 14.667 -36 30.334 -36 47.001c0 9.33301 3.66699 17 11 23s14.666 9 21.999 9c14 0 29 -8 45 -24l147 -149h-42z" />
    <glyph glyph-name="aacute" unicode="&#xe1;" 
d="M86 373l0.00195312 51.9971c51.333 38.667 105 58 161 58c48 0 87 -13.5 117 -40.5s45 -62.833 45 -107.5c0 -24 -0.666992 -61.667 -2 -113s-2 -91.333 -2 -120c0 -11.333 0.166992 -20.166 0.5 -26.499s1.66602 -13.833 3.99902 -22.5s6.33301 -15 12 -19
s13.167 -6 22.5 -6s16.333 1.33301 21 4v-22c-22 -9.33301 -43.333 -14 -64 -14s-36.834 5.83301 -48.501 17.5s-18.5 26.5 -20.5 44.5c-25.333 -25.333 -49.666 -43.833 -72.999 -55.5s-51.333 -17.5 -84 -17.5c-35.333 0 -66.333 11.333 -93 34s-40 52.334 -40 89.001
c0 76 47 121.667 141 137c49.333 8 84.166 14.833 104.499 20.5s33 11.667 38 18s7.5 16.833 7.5 31.5c0 36.667 -9 66.834 -27 90.501s-45.667 35.5 -83 35.5c-26.667 0 -51.5 -6 -74.5 -18s-40.167 -28.667 -51.5 -50h-11zM329.002 96.9971l4 149.998
c-10.667 -3.33301 -30.667 -7.83301 -60 -13.5s-53.333 -11.167 -72 -16.5s-36.167 -16.166 -52.5 -32.499s-24.5 -37.166 -24.5 -62.499c0 -30 8.5 -53.333 25.5 -70s37.5 -25 61.5 -25s46.5 6.66699 67.5 20s37.833 30 50.5 50zM182.002 558.995l147.001 149.001
c16 16 31 24 45 24c7.33301 0 14.666 -3 21.999 -9s11 -13.667 11 -23c0 -16.667 -12 -32.334 -36 -47.001l-147 -94h-42z" />
    <glyph glyph-name="acircumflex" unicode="&#xe2;" 
d="M86 373l0.00195312 51.9971c51.333 38.667 105 58 161 58c48 0 87 -13.5 117 -40.5s45 -62.833 45 -107.5c0 -24 -0.666992 -61.667 -2 -113s-2 -91.333 -2 -120c0 -11.333 0.166992 -20.166 0.5 -26.499s1.66602 -13.833 3.99902 -22.5s6.33301 -15 12 -19
s13.167 -6 22.5 -6s16.333 1.33301 21 4v-22c-22 -9.33301 -43.333 -14 -64 -14s-36.834 5.83301 -48.501 17.5s-18.5 26.5 -20.5 44.5c-25.333 -25.333 -49.666 -43.833 -72.999 -55.5s-51.333 -17.5 -84 -17.5c-35.333 0 -66.333 11.333 -93 34s-40 52.334 -40 89.001
c0 76 47 121.667 141 137c49.333 8 84.166 14.833 104.499 20.5s33 11.667 38 18s7.5 16.833 7.5 31.5c0 36.667 -9 66.834 -27 90.501s-45.667 35.5 -83 35.5c-26.667 0 -51.5 -6 -74.5 -18s-40.167 -28.667 -51.5 -50h-11zM329.002 96.9971l4 149.998
c-10.667 -3.33301 -30.667 -7.83301 -60 -13.5s-53.333 -11.167 -72 -16.5s-36.167 -16.166 -52.5 -32.499s-24.5 -37.166 -24.5 -62.499c0 -30 8.5 -53.333 25.5 -70s37.5 -25 61.5 -25s46.5 6.66699 67.5 20s37.833 30 50.5 50zM370.002 558.995l-120 105l-119 -105h-37
l123 167h67l123 -167h-37z" />
    <glyph glyph-name="atilde" unicode="&#xe3;" 
d="M86 373l0.00195312 51.9971c51.333 38.667 105 58 161 58c48 0 87 -13.5 117 -40.5s45 -62.833 45 -107.5c0 -24 -0.666992 -61.667 -2 -113s-2 -91.333 -2 -120c0 -11.333 0.166992 -20.166 0.5 -26.499s1.66602 -13.833 3.99902 -22.5s6.33301 -15 12 -19
s13.167 -6 22.5 -6s16.333 1.33301 21 4v-22c-22 -9.33301 -43.333 -14 -64 -14s-36.834 5.83301 -48.501 17.5s-18.5 26.5 -20.5 44.5c-25.333 -25.333 -49.666 -43.833 -72.999 -55.5s-51.333 -17.5 -84 -17.5c-35.333 0 -66.333 11.333 -93 34s-40 52.334 -40 89.001
c0 76 47 121.667 141 137c49.333 8 84.166 14.833 104.499 20.5s33 11.667 38 18s7.5 16.833 7.5 31.5c0 36.667 -9 66.834 -27 90.501s-45.667 35.5 -83 35.5c-26.667 0 -51.5 -6 -74.5 -18s-40.167 -28.667 -51.5 -50h-11zM329.002 96.9971l4 149.998
c-10.667 -3.33301 -30.667 -7.83301 -60 -13.5s-53.333 -11.167 -72 -16.5s-36.167 -16.166 -52.5 -32.499s-24.5 -37.166 -24.5 -62.499c0 -30 8.5 -53.333 25.5 -70s37.5 -25 61.5 -25s46.5 6.66699 67.5 20s37.833 30 50.5 50zM116.002 583.995h-30.001
c4.66699 27.333 15.834 51.333 33.501 72s41.167 31 70.5 31c17.333 0 41.666 -7.66699 72.999 -23s53.333 -23 66 -23c28 0 47 16.667 57 50h29c-1.33301 -10 -4.16602 -20.333 -8.49902 -31s-10.333 -22.167 -18 -34.5s-18.667 -22.333 -33 -30s-30.833 -11.5 -49.5 -11.5
c-20 0 -44 7.66699 -72 23s-49.667 23 -65 23s-26.5 -3.16699 -33.5 -9.5s-13.5 -18.5 -19.5 -36.5z" />
    <glyph glyph-name="adieresis" unicode="&#xe4;" 
d="M86 373l0.00195312 51.9971c51.333 38.667 105 58 161 58c48 0 87 -13.5 117 -40.5s45 -62.833 45 -107.5c0 -24 -0.666992 -61.667 -2 -113s-2 -91.333 -2 -120c0 -11.333 0.166992 -20.166 0.5 -26.499s1.66602 -13.833 3.99902 -22.5s6.33301 -15 12 -19
s13.167 -6 22.5 -6s16.333 1.33301 21 4v-22c-22 -9.33301 -43.333 -14 -64 -14s-36.834 5.83301 -48.501 17.5s-18.5 26.5 -20.5 44.5c-25.333 -25.333 -49.666 -43.833 -72.999 -55.5s-51.333 -17.5 -84 -17.5c-35.333 0 -66.333 11.333 -93 34s-40 52.334 -40 89.001
c0 76 47 121.667 141 137c49.333 8 84.166 14.833 104.499 20.5s33 11.667 38 18s7.5 16.833 7.5 31.5c0 36.667 -9 66.834 -27 90.501s-45.667 35.5 -83 35.5c-26.667 0 -51.5 -6 -74.5 -18s-40.167 -28.667 -51.5 -50h-11zM329.002 96.9971l4 149.998
c-10.667 -3.33301 -30.667 -7.83301 -60 -13.5s-53.333 -11.167 -72 -16.5s-36.167 -16.166 -52.5 -32.499s-24.5 -37.166 -24.5 -62.499c0 -30 8.5 -53.333 25.5 -70s37.5 -25 61.5 -25s46.5 6.66699 67.5 20s37.833 30 50.5 50zM298.002 636.995c0 14 5 26 15 36
s22 15 36 15s26 -5 36 -15s15 -22 15 -36s-5 -26 -15 -36s-22 -15 -36 -15s-26 5 -36 15s-15 22 -15 36zM101.002 636.995c0 14 5 26 15 36s22 15 36 15s26 -5 36 -15s15 -22 15 -36s-5 -26 -15 -36s-22 -15 -36 -15s-26 5 -36 15s-15 22 -15 36z" />
    <glyph glyph-name="aring" unicode="&#xe5;" 
d="M86 373l0.00195312 51.9971c51.333 38.667 105 58 161 58c48 0 87 -13.5 117 -40.5s45 -62.833 45 -107.5c0 -24 -0.666992 -61.667 -2 -113s-2 -91.333 -2 -120c0 -11.333 0.166992 -20.166 0.5 -26.499s1.66602 -13.833 3.99902 -22.5s6.33301 -15 12 -19
s13.167 -6 22.5 -6s16.333 1.33301 21 4v-22c-22 -9.33301 -43.333 -14 -64 -14s-36.834 5.83301 -48.501 17.5s-18.5 26.5 -20.5 44.5c-25.333 -25.333 -49.666 -43.833 -72.999 -55.5s-51.333 -17.5 -84 -17.5c-35.333 0 -66.333 11.333 -93 34s-40 52.334 -40 89.001
c0 76 47 121.667 141 137c49.333 8 84.166 14.833 104.499 20.5s33 11.667 38 18s7.5 16.833 7.5 31.5c0 36.667 -9 66.834 -27 90.501s-45.667 35.5 -83 35.5c-26.667 0 -51.5 -6 -74.5 -18s-40.167 -28.667 -51.5 -50h-11zM329.002 96.9971l4 149.998
c-10.667 -3.33301 -30.667 -7.83301 -60 -13.5s-53.333 -11.167 -72 -16.5s-36.167 -16.166 -52.5 -32.499s-24.5 -37.166 -24.5 -62.499c0 -30 8.5 -53.333 25.5 -70s37.5 -25 61.5 -25s46.5 6.66699 67.5 20s37.833 30 50.5 50zM148.002 644.995c0 28 10 52 30 72
s44.333 30 73 30c28 0 52 -10 72 -30s30 -44 30 -72s-10 -52 -30 -72s-44.333 -30 -73 -30c-28 0 -52 10 -72 30s-30 44 -30 72zM190.002 644.995c0 -16.667 5.83301 -30.834 17.5 -42.501s25.834 -17.5 42.501 -17.5s31 5.83301 43 17.5s18 25.834 18 42.501
s-5.83301 30.834 -17.5 42.501s-25.834 17.5 -42.501 17.5s-31 -5.83301 -43 -17.5s-18 -25.834 -18 -42.501z" />
    <glyph glyph-name="ae" unicode="&#xe6;" horiz-adv-x="778" 
d="M117 122c0 -28.667 8.5 -51.6689 25.5 -69.002s39.833 -26 68.5 -26s54.167 9.33301 76.5 28s34.5 44.667 36.5 78c0.666992 14.667 1.16699 35.167 1.5 61.5s0.5 43.833 0.5 52.5c-10.667 -3.33301 -30.667 -7.83301 -60 -13.5s-53.333 -11.167 -72 -16.5
s-36.167 -16.166 -52.5 -32.499s-24.5 -37.166 -24.5 -62.499zM79 372.998l-0.00292969 51.999c51.333 38.667 105 58 161 58c64.667 0 114.667 -25 150 -75c38 50 88.667 75 152 75c66.667 0 117.834 -19.333 153.501 -58s53.5 -87.334 53.5 -146.001
c0 -8.66699 -0.666992 -21.667 -2 -39c-16 0 -38.5 0.333008 -67.5 1s-55.333 1.16699 -79 1.5s-46.167 0.5 -67.5 0.5c-13.333 0 -27.166 -0.166992 -41.499 -0.5s-30.333 -0.833008 -48 -1.5s-31.5 -1 -41.5 -1c-0.666992 -6.66699 -1 -16 -1 -28
c0 -54 15.333 -98.333 46 -133s73 -52 127 -52c26 0 53 6.66699 81 20s51 30.333 69 51l5 -3l-6 -49c-21.333 -17.333 -47.166 -31.833 -77.499 -43.5s-60.166 -17.5 -89.499 -17.5c-48 0 -90.167 10.333 -126.5 31s-62.5 50 -78.5 88
c-29.333 -79.333 -90.333 -119 -183 -119c-35.333 0 -66.333 11.333 -93 34s-40 52.334 -40 89.001c0 76 47 121.667 141 137c49.333 8 84.166 14.833 104.499 20.5s33 11.667 38 18s7.5 16.833 7.5 31.5c0 36.667 -9 66.834 -27 90.501s-45.667 35.5 -83 35.5
c-26.667 0 -51.5 -6 -74.5 -18s-40.167 -28.667 -51.5 -50h-11zM543.997 450.997c-44 0 -77.5 -17.833 -100.5 -53.5s-36.167 -75.5 -39.5 -119.5c82 -2 125.333 -3 130 -3s49 1 133 3c0 20.667 -1.66699 40 -5 58s-9 36.167 -17 54.5s-20.667 33 -38 44
s-38.333 16.5 -63 16.5z" />
    <glyph glyph-name="ccedilla" unicode="&#xe7;" 
d="M180 -207l14.001 31.999c20 -8 44 -12 72 -12c17.333 0 31.666 3.66699 42.999 11s17 17.666 17 30.999c0 26.667 -17 40 -51 40c-22 0 -36.333 -2.33301 -43 -7l-7 7l35 92c-60.667 4.66699 -112.167 27.5 -154.5 68.5s-63.5 100.5 -63.5 178.5
c0 81.333 25 143.166 75 185.499s110 63.5 180 63.5c34.667 0 66.834 -4.33301 96.501 -13s51.167 -19 64.5 -31c-10 -22.667 -17.333 -44.667 -22 -66h-8c-11.333 20 -28.333 38 -51 54s-48.334 24 -77.001 24c-58 0 -100.833 -19.667 -128.5 -59
s-41.5 -91.666 -41.5 -156.999c0 -68 14.833 -119.667 44.5 -155s72.5 -53 128.5 -53c26 0 53 6.66699 81 20s51 30.333 69 51l5 -3c-2.66699 -15.333 -4.66699 -31.666 -6 -48.999c-19.333 -16 -43 -29.667 -71 -41s-56 -17.666 -84 -18.999l-21 -59
c8.66699 3.33301 18.334 5 29.001 5c26 0 46.333 -6.33301 61 -19s22 -30 22 -52c0 -26.667 -11.333 -47.5 -34 -62.5s-51 -22.5 -85 -22.5c-28.667 0 -58.334 5.66699 -89.001 17z" />
    <glyph glyph-name="egrave" unicode="&#xe8;" 
d="M35 220c0 82 19.9951 146.334 59.9951 193.001s96.333 70 169 70c66.667 0 117.834 -19.333 153.501 -58s53.5 -87.334 53.5 -146.001c0 -8.66699 -0.666992 -21.667 -2 -39c-16 0 -38.5 0.333008 -67.5 1s-55.333 1.16699 -79 1.5s-46.167 0.5 -67.5 0.5
c-13.333 0 -27.166 -0.166992 -41.499 -0.5s-30.333 -0.833008 -48 -1.5s-31.5 -1 -41.5 -1c-0.666992 -6.66699 -1 -16 -1 -28c0 -54 15.333 -98.333 46 -133s73 -52 127 -52c26 0 53 6.66699 81 20s51 30.333 69 51l5 -3l-6 -49
c-21.333 -17.333 -47.166 -31.833 -77.499 -43.5s-60.166 -17.5 -89.499 -17.5c-71.333 0 -129.666 22.333 -174.999 67s-68 100.667 -68 168zM265.995 451.001c-44 0 -77.5 -17.833 -100.5 -53.5s-36.167 -75.5 -39.5 -119.5c82 -2 125.333 -3 130 -3s49 1 133 3
c0 20.667 -1.66699 40 -5 58s-9 36.167 -17 54.5s-20.667 33 -38 44s-38.333 16.5 -63 16.5zM292.995 559.001l-146.999 93.999c-24 14.667 -36 30.334 -36 47.001c0 9.33301 3.66699 17 11 23s14.666 9 21.999 9c14 0 29 -8 45 -24l147 -149h-42z" />
    <glyph glyph-name="eacute" unicode="&#xe9;" 
d="M35 220c0 82 19.9951 146.334 59.9951 193.001s96.333 70 169 70c66.667 0 117.834 -19.333 153.501 -58s53.5 -87.334 53.5 -146.001c0 -8.66699 -0.666992 -21.667 -2 -39c-16 0 -38.5 0.333008 -67.5 1s-55.333 1.16699 -79 1.5s-46.167 0.5 -67.5 0.5
c-13.333 0 -27.166 -0.166992 -41.499 -0.5s-30.333 -0.833008 -48 -1.5s-31.5 -1 -41.5 -1c-0.666992 -6.66699 -1 -16 -1 -28c0 -54 15.333 -98.333 46 -133s73 -52 127 -52c26 0 53 6.66699 81 20s51 30.333 69 51l5 -3l-6 -49
c-21.333 -17.333 -47.166 -31.833 -77.499 -43.5s-60.166 -17.5 -89.499 -17.5c-71.333 0 -129.666 22.333 -174.999 67s-68 100.667 -68 168zM265.995 451.001c-44 0 -77.5 -17.833 -100.5 -53.5s-36.167 -75.5 -39.5 -119.5c82 -2 125.333 -3 130 -3s49 1 133 3
c0 20.667 -1.66699 40 -5 58s-9 36.167 -17 54.5s-20.667 33 -38 44s-38.333 16.5 -63 16.5zM197.995 559.001l147.001 149.001c16 16 31 24 45 24c7.33301 0 14.666 -3 21.999 -9s11 -13.667 11 -23c0 -16.667 -12 -32.334 -36 -47.001l-147 -94h-42z" />
    <glyph glyph-name="ecircumflex" unicode="&#xea;" 
d="M35 220c0 82 19.9951 146.334 59.9951 193.001s96.333 70 169 70c66.667 0 117.834 -19.333 153.501 -58s53.5 -87.334 53.5 -146.001c0 -8.66699 -0.666992 -21.667 -2 -39c-16 0 -38.5 0.333008 -67.5 1s-55.333 1.16699 -79 1.5s-46.167 0.5 -67.5 0.5
c-13.333 0 -27.166 -0.166992 -41.499 -0.5s-30.333 -0.833008 -48 -1.5s-31.5 -1 -41.5 -1c-0.666992 -6.66699 -1 -16 -1 -28c0 -54 15.333 -98.333 46 -133s73 -52 127 -52c26 0 53 6.66699 81 20s51 30.333 69 51l5 -3l-6 -49
c-21.333 -17.333 -47.166 -31.833 -77.499 -43.5s-60.166 -17.5 -89.499 -17.5c-71.333 0 -129.666 22.333 -174.999 67s-68 100.667 -68 168zM265.995 451.001c-44 0 -77.5 -17.833 -100.5 -53.5s-36.167 -75.5 -39.5 -119.5c82 -2 125.333 -3 130 -3s49 1 133 3
c0 20.667 -1.66699 40 -5 58s-9 36.167 -17 54.5s-20.667 33 -38 44s-38.333 16.5 -63 16.5zM385.995 559.001l-120 105l-119 -105h-37l123 167h67l123 -167h-37z" />
    <glyph glyph-name="edieresis" unicode="&#xeb;" 
d="M35 220c0 82 19.9951 146.334 59.9951 193.001s96.333 70 169 70c66.667 0 117.834 -19.333 153.501 -58s53.5 -87.334 53.5 -146.001c0 -8.66699 -0.666992 -21.667 -2 -39c-16 0 -38.5 0.333008 -67.5 1s-55.333 1.16699 -79 1.5s-46.167 0.5 -67.5 0.5
c-13.333 0 -27.166 -0.166992 -41.499 -0.5s-30.333 -0.833008 -48 -1.5s-31.5 -1 -41.5 -1c-0.666992 -6.66699 -1 -16 -1 -28c0 -54 15.333 -98.333 46 -133s73 -52 127 -52c26 0 53 6.66699 81 20s51 30.333 69 51l5 -3l-6 -49
c-21.333 -17.333 -47.166 -31.833 -77.499 -43.5s-60.166 -17.5 -89.499 -17.5c-71.333 0 -129.666 22.333 -174.999 67s-68 100.667 -68 168zM265.995 451.001c-44 0 -77.5 -17.833 -100.5 -53.5s-36.167 -75.5 -39.5 -119.5c82 -2 125.333 -3 130 -3s49 1 133 3
c0 20.667 -1.66699 40 -5 58s-9 36.167 -17 54.5s-20.667 33 -38 44s-38.333 16.5 -63 16.5zM313.995 637.001c0 14 5 26 15 36s22 15 36 15s26 -5 36 -15s15 -22 15 -36s-5 -26 -15 -36s-22 -15 -36 -15s-26 5 -36 15s-15 22 -15 36zM116.995 637.001c0 14 5 26 15 36
s22 15 36 15s26 -5 36 -15s15 -22 15 -36s-5 -26 -15 -36s-22 -15 -36 -15s-26 5 -36 15s-15 22 -15 36z" />
    <glyph glyph-name="igrave" unicode="&#xec;" horiz-adv-x="278" 
d="M102 182v104c0 74 -2.66699 136.333 -8 187c16.667 -3.33301 31.667 -5 45 -5s28.333 1.66699 45 5c-5.33301 -50.667 -8 -113 -8 -187v-104c0 -74 2.66699 -136.333 8 -187c-16.667 3.33301 -31.667 5 -45 5s-28.333 -1.66699 -45 -5c5.33301 50.667 8 113 8 187z
M166 559l-146.999 93.999c-24 14.667 -36 30.334 -36 47.001c0 9.33301 3.66699 17 11 23s14.666 9 21.999 9c14 0 29 -8 45 -24l147 -149h-42z" />
    <glyph glyph-name="iacute" unicode="&#xed;" horiz-adv-x="278" 
d="M102 182v104c0 74 -2.66699 136.333 -8 187c16.667 -3.33301 31.667 -5 45 -5s28.333 1.66699 45 5c-5.33301 -50.667 -8 -113 -8 -187v-104c0 -74 2.66699 -136.333 8 -187c-16.667 3.33301 -31.667 5 -45 5s-28.333 -1.66699 -45 -5c5.33301 50.667 8 113 8 187z
M71 559l147.001 149.001c16 16 31 24 45 24c7.33301 0 14.666 -3 21.999 -9s11 -13.667 11 -23c0 -16.667 -12 -32.334 -36 -47.001l-147 -94h-42z" />
    <glyph glyph-name="icircumflex" unicode="&#xee;" horiz-adv-x="278" 
d="M102 182v104c0 74 -2.66699 136.333 -8 187c16.667 -3.33301 31.667 -5 45 -5s28.333 1.66699 45 5c-5.33301 -50.667 -8 -113 -8 -187v-104c0 -74 2.66699 -136.333 8 -187c-16.667 3.33301 -31.667 5 -45 5s-28.333 -1.66699 -45 -5c5.33301 50.667 8 113 8 187z
M259 559l-120 105l-119 -105h-37l123 167h67l123 -167h-37z" />
    <glyph glyph-name="idieresis" unicode="&#xef;" horiz-adv-x="278" 
d="M102 182v104c0 74 -2.66699 136.333 -8 187c16.667 -3.33301 31.667 -5 45 -5s28.333 1.66699 45 5c-5.33301 -50.667 -8 -113 -8 -187v-104c0 -74 2.66699 -136.333 8 -187c-16.667 3.33301 -31.667 5 -45 5s-28.333 -1.66699 -45 -5c5.33301 50.667 8 113 8 187z
M187 637c0 14 5 26 15 36s22 15 36 15s26 -5 36 -15s15 -22 15 -36s-5 -26 -15 -36s-22 -15 -36 -15s-26 5 -36 15s-15 22 -15 36zM-10 637c0 14 5 26 15 36s22 15 36 15s26 -5 36 -15s15 -22 15 -36s-5 -26 -15 -36s-22 -15 -36 -15s-26 5 -36 15s-15 22 -15 36z" />
    <glyph glyph-name="eth" unicode="&#xf0;" horiz-adv-x="556" 
d="M433 234c0 63.333 -12.167 115.333 -36.5 156s-63.833 61 -118.5 61s-94.167 -20.333 -118.5 -61s-36.5 -92.667 -36.5 -156s12.167 -115.333 36.5 -156s63.833 -61 118.5 -61s94.167 20.333 118.5 61s36.5 92.667 36.5 156zM35 234
c0 43.333 7.16797 81.666 21.501 114.999s33.333 59.333 57 78s49.334 32.667 77.001 42s56.834 14 87.501 14c20 0 36.333 -2.33301 49 -7l2 2c-51.333 56 -94 99.667 -128 131c-27.333 -8.66699 -70.666 -23.667 -129.999 -45c-6 12 -13 24 -21 36
c35.333 8.66699 77 20.334 125 35.001c-40 36.667 -80.667 70.667 -122 102l70 18c44 -31.333 86.667 -63.666 128 -96.999c46.667 14 88.667 28.667 126 44c5.33301 -12.667 12.333 -24.334 21 -35.001c-39.333 -9.33301 -79 -20.333 -119 -33
c84.667 -71.333 146.167 -138.833 184.5 -202.5s57.5 -129.5 57.5 -197.5c0 -43.333 -7.16699 -81.666 -21.5 -114.999s-33.333 -59.333 -57 -78s-49.334 -32.667 -77.001 -42s-56.834 -14 -87.501 -14s-59.834 4.66699 -87.501 14s-53.334 23.333 -77.001 42
s-42.667 44.667 -57 78s-21.5 71.666 -21.5 114.999z" />
    <glyph glyph-name="ntilde" unicode="&#xf1;" horiz-adv-x="556" 
d="M402 279c0 48 -9.83301 85.335 -29.5 112.002s-46.167 40 -79.5 40c-90 0 -135 -54.667 -135 -164v-85c0 -74 2.66699 -136.333 8 -187c-16.667 3.33301 -31.667 5 -45 5s-28.333 -1.66699 -45 -5c5.33301 50.667 8 113 8 187v104c0 74 -2.66699 136.333 -8 187
c16.667 -3.33301 31.667 -5 45 -5c10 0 23.333 1.66699 40 5c-2 -26.667 -3 -53.334 -3 -80.001h2c38.667 60 92 90 160 90c44 0 81.667 -13.333 113 -40s47 -71.334 47 -134.001c0 -18 -0.666992 -47.5 -2 -88.5s-2 -73.167 -2 -96.5c0 -57.333 0.666992 -100.333 2 -129
c-16.667 3.33301 -30.667 5 -42 5c-12 -0 -25.667 -1.66699 -41 -5c0 10.667 1.16699 43 3.5 97s3.5 96 3.5 126v61zM144 584.002h-30.001c4.66699 27.333 15.834 51.333 33.501 72s41.167 31 70.5 31c17.333 0 41.666 -7.66699 72.999 -23s53.333 -23 66 -23
c28 0 47 16.667 57 50h29c-1.33301 -10 -4.16602 -20.333 -8.49902 -31s-10.333 -22.167 -18 -34.5s-18.667 -22.333 -33 -30s-30.833 -11.5 -49.5 -11.5c-20 0 -44 7.66699 -72 23s-49.667 23 -65 23s-26.5 -3.16699 -33.5 -9.5s-13.5 -18.5 -19.5 -36.5z" />
    <glyph glyph-name="ograve" unicode="&#xf2;" horiz-adv-x="556" 
d="M35 234c0 43.333 7.16699 81.666 21.5 114.999s33.333 59.333 57 78s49.334 32.667 77.001 42s56.834 14 87.501 14s59.834 -4.66699 87.501 -14s53.334 -23.333 77.001 -42s42.667 -44.667 57 -78s21.5 -71.666 21.5 -114.999s-7.16699 -81.666 -21.5 -114.999
s-33.333 -59.333 -57 -78s-49.334 -32.667 -77.001 -42s-56.834 -14 -87.501 -14s-59.834 4.66699 -87.501 14s-53.334 23.333 -77.001 42s-42.667 44.667 -57 78s-21.5 71.666 -21.5 114.999zM123 234c0 -63.333 12.167 -115.333 36.5 -156s63.833 -61 118.5 -61
s94.167 20.333 118.5 61s36.5 92.667 36.5 156s-12.167 115.333 -36.5 156s-63.833 61 -118.5 61s-94.167 -20.333 -118.5 -61s-36.5 -92.667 -36.5 -156zM305 559l-146.999 93.999c-24 14.667 -36 30.334 -36 47.001c0 9.33301 3.66699 17 11 23s14.666 9 21.999 9
c14 0 29 -8 45 -24l147 -149h-42z" />
    <glyph glyph-name="oacute" unicode="&#xf3;" horiz-adv-x="556" 
d="M35 234c0 43.333 7.16699 81.666 21.5 114.999s33.333 59.333 57 78s49.334 32.667 77.001 42s56.834 14 87.501 14s59.834 -4.66699 87.501 -14s53.334 -23.333 77.001 -42s42.667 -44.667 57 -78s21.5 -71.666 21.5 -114.999s-7.16699 -81.666 -21.5 -114.999
s-33.333 -59.333 -57 -78s-49.334 -32.667 -77.001 -42s-56.834 -14 -87.501 -14s-59.834 4.66699 -87.501 14s-53.334 23.333 -77.001 42s-42.667 44.667 -57 78s-21.5 71.666 -21.5 114.999zM123 234c0 -63.333 12.167 -115.333 36.5 -156s63.833 -61 118.5 -61
s94.167 20.333 118.5 61s36.5 92.667 36.5 156s-12.167 115.333 -36.5 156s-63.833 61 -118.5 61s-94.167 -20.333 -118.5 -61s-36.5 -92.667 -36.5 -156zM210 559l147.001 149.001c16 16 31 24 45 24c7.33301 0 14.666 -3 21.999 -9s11 -13.667 11 -23
c0 -16.667 -12 -32.334 -36 -47.001l-147 -94h-42z" />
    <glyph glyph-name="ocircumflex" unicode="&#xf4;" horiz-adv-x="556" 
d="M35 234c0 43.333 7.16699 81.666 21.5 114.999s33.333 59.333 57 78s49.334 32.667 77.001 42s56.834 14 87.501 14s59.834 -4.66699 87.501 -14s53.334 -23.333 77.001 -42s42.667 -44.667 57 -78s21.5 -71.666 21.5 -114.999s-7.16699 -81.666 -21.5 -114.999
s-33.333 -59.333 -57 -78s-49.334 -32.667 -77.001 -42s-56.834 -14 -87.501 -14s-59.834 4.66699 -87.501 14s-53.334 23.333 -77.001 42s-42.667 44.667 -57 78s-21.5 71.666 -21.5 114.999zM123 234c0 -63.333 12.167 -115.333 36.5 -156s63.833 -61 118.5 -61
s94.167 20.333 118.5 61s36.5 92.667 36.5 156s-12.167 115.333 -36.5 156s-63.833 61 -118.5 61s-94.167 -20.333 -118.5 -61s-36.5 -92.667 -36.5 -156zM398 559l-120 105l-119 -105h-37l123 167h67l123 -167h-37z" />
    <glyph glyph-name="otilde" unicode="&#xf5;" horiz-adv-x="556" 
d="M35 234c0 43.333 7.16699 81.666 21.5 114.999s33.333 59.333 57 78s49.334 32.667 77.001 42s56.834 14 87.501 14s59.834 -4.66699 87.501 -14s53.334 -23.333 77.001 -42s42.667 -44.667 57 -78s21.5 -71.666 21.5 -114.999s-7.16699 -81.666 -21.5 -114.999
s-33.333 -59.333 -57 -78s-49.334 -32.667 -77.001 -42s-56.834 -14 -87.501 -14s-59.834 4.66699 -87.501 14s-53.334 23.333 -77.001 42s-42.667 44.667 -57 78s-21.5 71.666 -21.5 114.999zM123 234c0 -63.333 12.167 -115.333 36.5 -156s63.833 -61 118.5 -61
s94.167 20.333 118.5 61s36.5 92.667 36.5 156s-12.167 115.333 -36.5 156s-63.833 61 -118.5 61s-94.167 -20.333 -118.5 -61s-36.5 -92.667 -36.5 -156zM144 584h-30.001c4.66699 27.333 15.834 51.333 33.501 72s41.167 31 70.5 31c17.333 0 41.666 -7.66699 72.999 -23
s53.333 -23 66 -23c28 0 47 16.667 57 50h29c-1.33301 -10 -4.16602 -20.333 -8.49902 -31s-10.333 -22.167 -18 -34.5s-18.667 -22.333 -33 -30s-30.833 -11.5 -49.5 -11.5c-20 0 -44 7.66699 -72 23s-49.667 23 -65 23s-26.5 -3.16699 -33.5 -9.5s-13.5 -18.5 -19.5 -36.5
z" />
    <glyph glyph-name="odieresis" unicode="&#xf6;" horiz-adv-x="556" 
d="M35 234c0 43.333 7.16699 81.666 21.5 114.999s33.333 59.333 57 78s49.334 32.667 77.001 42s56.834 14 87.501 14s59.834 -4.66699 87.501 -14s53.334 -23.333 77.001 -42s42.667 -44.667 57 -78s21.5 -71.666 21.5 -114.999s-7.16699 -81.666 -21.5 -114.999
s-33.333 -59.333 -57 -78s-49.334 -32.667 -77.001 -42s-56.834 -14 -87.501 -14s-59.834 4.66699 -87.501 14s-53.334 23.333 -77.001 42s-42.667 44.667 -57 78s-21.5 71.666 -21.5 114.999zM123 234c0 -63.333 12.167 -115.333 36.5 -156s63.833 -61 118.5 -61
s94.167 20.333 118.5 61s36.5 92.667 36.5 156s-12.167 115.333 -36.5 156s-63.833 61 -118.5 61s-94.167 -20.333 -118.5 -61s-36.5 -92.667 -36.5 -156zM326 637c0 14 5 26 15 36s22 15 36 15s26 -5 36 -15s15 -22 15 -36s-5 -26 -15 -36s-22 -15 -36 -15s-26 5 -36 15
s-15 22 -15 36zM129 637c0 14 5 26 15 36s22 15 36 15s26 -5 36 -15s15 -22 15 -36s-5 -26 -15 -36s-22 -15 -36 -15s-26 5 -36 15s-15 22 -15 36z" />
    <glyph glyph-name="divide" unicode="&#xf7;" horiz-adv-x="606" 
d="M246 449c0 15.333 5.66699 28.666 17 39.999s24.666 17 39.999 17s28.666 -5.66699 39.999 -17s17 -24.666 17 -39.999s-5.66699 -28.666 -17 -39.999s-24.666 -17 -39.999 -17s-28.666 5.66699 -39.999 17s-17 24.666 -17 39.999zM246 57
c0 15.333 5.66699 28.666 17 39.999s24.666 17 39.999 17s28.666 -5.66699 39.999 -17s17 -24.666 17 -39.999s-5.66699 -28.666 -17 -39.999s-24.666 -17 -39.999 -17s-28.666 5.66699 -39.999 17s-17 24.666 -17 39.999zM50 227v52h506v-52h-506z" />
    <glyph glyph-name="oslash" unicode="&#xf8;" horiz-adv-x="556" 
d="M408 368l-252.001 -285c26.667 -44 67.334 -66 122.001 -66s94.167 20.333 118.5 61s36.5 92.667 36.5 156c0 55.333 -8.33301 100 -25 134zM34.999 234c0 43.333 7.16797 81.666 21.501 114.999s33.333 59.333 57 78s49.334 32.667 77.001 42s56.834 14 87.501 14
c60 0 111.667 -16 155 -48c39.333 42 62.666 69.333 69.999 82c6.66699 -10 15 -17.333 25 -22c-14.667 -11.333 -39.667 -37 -75 -77c45.333 -46.667 68 -108 68 -184c0 -43.333 -7.16699 -81.666 -21.5 -114.999s-33.333 -59.333 -57 -78s-49.334 -32.667 -77.001 -42
s-56.834 -14 -87.501 -14c-63.333 0 -117 17.667 -161 53l-75 -85c-6.66699 10 -15 17 -25 21c20.667 18.667 46.667 46.667 78 84c-40 45.333 -60 104 -60 176zM143 110l252 281c-24.667 40 -63.667 60 -117 60c-54.667 0 -94.167 -20.333 -118.5 -61
s-36.5 -92.667 -36.5 -156c0 -48.667 6.66699 -90 20 -124z" />
    <glyph glyph-name="ugrave" unicode="&#xf9;" horiz-adv-x="556" 
d="M76 149c0 25.333 0.5 55.501 1.5 90.501s1.5 59.833 1.5 74.5c0 31.333 -0.666992 84.333 -2 159c15.333 -3.33301 29.333 -5 42 -5c12 0 25.667 1.66699 41 5c-6.66699 -86.667 -10 -179.334 -10 -278.001c0 -57.333 10.333 -97.666 31 -120.999
c22 -24.667 50.667 -37 86 -37c54 0 91 21.333 111 64c10 21.333 16 41.833 18 61.5s3 68.5 3 146.5c0 77.333 -0.666992 132 -2 164c15.333 -3.33301 29.333 -5 42 -5s26.334 1.66699 41.001 5c-4.66699 -80.667 -7 -182 -7 -304c0 -66 1.33301 -124 4 -174
c-14.667 3.33301 -27.667 5 -39 5s-24.333 -1.66699 -39 -5c1.33301 19.333 2 48 2 86h-2c-16.667 -30.667 -38.834 -54.334 -66.501 -71.001s-57.5 -25 -89.5 -25c-52 0 -92.833 14.333 -122.5 43s-44.5 69 -44.5 121zM305 559.001l-146.999 93.999
c-24 14.667 -36 30.334 -36 47.001c0 9.33301 3.66699 17 11 23s14.666 9 21.999 9c14 0 29 -8 45 -24l147 -149h-42z" />
    <glyph glyph-name="uacute" unicode="&#xfa;" horiz-adv-x="556" 
d="M76 149c0 25.333 0.5 55.501 1.5 90.501s1.5 59.833 1.5 74.5c0 31.333 -0.666992 84.333 -2 159c15.333 -3.33301 29.333 -5 42 -5c12 0 25.667 1.66699 41 5c-6.66699 -86.667 -10 -179.334 -10 -278.001c0 -57.333 10.333 -97.666 31 -120.999
c22 -24.667 50.667 -37 86 -37c54 0 91 21.333 111 64c10 21.333 16 41.833 18 61.5s3 68.5 3 146.5c0 77.333 -0.666992 132 -2 164c15.333 -3.33301 29.333 -5 42 -5s26.334 1.66699 41.001 5c-4.66699 -80.667 -7 -182 -7 -304c0 -66 1.33301 -124 4 -174
c-14.667 3.33301 -27.667 5 -39 5s-24.333 -1.66699 -39 -5c1.33301 19.333 2 48 2 86h-2c-16.667 -30.667 -38.834 -54.334 -66.501 -71.001s-57.5 -25 -89.5 -25c-52 0 -92.833 14.333 -122.5 43s-44.5 69 -44.5 121zM210 559.001l147.001 149.001c16 16 31 24 45 24
c7.33301 0 14.666 -3 21.999 -9s11 -13.667 11 -23c0 -16.667 -12 -32.334 -36 -47.001l-147 -94h-42z" />
    <glyph glyph-name="ucircumflex" unicode="&#xfb;" horiz-adv-x="556" 
d="M76 149c0 25.333 0.5 55.501 1.5 90.501s1.5 59.833 1.5 74.5c0 31.333 -0.666992 84.333 -2 159c15.333 -3.33301 29.333 -5 42 -5c12 0 25.667 1.66699 41 5c-6.66699 -86.667 -10 -179.334 -10 -278.001c0 -57.333 10.333 -97.666 31 -120.999
c22 -24.667 50.667 -37 86 -37c54 0 91 21.333 111 64c10 21.333 16 41.833 18 61.5s3 68.5 3 146.5c0 77.333 -0.666992 132 -2 164c15.333 -3.33301 29.333 -5 42 -5s26.334 1.66699 41.001 5c-4.66699 -80.667 -7 -182 -7 -304c0 -66 1.33301 -124 4 -174
c-14.667 3.33301 -27.667 5 -39 5s-24.333 -1.66699 -39 -5c1.33301 19.333 2 48 2 86h-2c-16.667 -30.667 -38.834 -54.334 -66.501 -71.001s-57.5 -25 -89.5 -25c-52 0 -92.833 14.333 -122.5 43s-44.5 69 -44.5 121zM398 559.001l-120 105l-119 -105h-37l123 167h67
l123 -167h-37z" />
    <glyph glyph-name="udieresis" unicode="&#xfc;" horiz-adv-x="556" 
d="M76 149c0 25.333 0.5 55.501 1.5 90.501s1.5 59.833 1.5 74.5c0 31.333 -0.666992 84.333 -2 159c15.333 -3.33301 29.333 -5 42 -5c12 0 25.667 1.66699 41 5c-6.66699 -86.667 -10 -179.334 -10 -278.001c0 -57.333 10.333 -97.666 31 -120.999
c22 -24.667 50.667 -37 86 -37c54 0 91 21.333 111 64c10 21.333 16 41.833 18 61.5s3 68.5 3 146.5c0 77.333 -0.666992 132 -2 164c15.333 -3.33301 29.333 -5 42 -5s26.334 1.66699 41.001 5c-4.66699 -80.667 -7 -182 -7 -304c0 -66 1.33301 -124 4 -174
c-14.667 3.33301 -27.667 5 -39 5s-24.333 -1.66699 -39 -5c1.33301 19.333 2 48 2 86h-2c-16.667 -30.667 -38.834 -54.334 -66.501 -71.001s-57.5 -25 -89.5 -25c-52 0 -92.833 14.333 -122.5 43s-44.5 69 -44.5 121zM326 637.001c0 14 5 26 15 36s22 15 36 15
s26 -5 36 -15s15 -22 15 -36s-5 -26 -15 -36s-22 -15 -36 -15s-26 5 -36 15s-15 22 -15 36zM129 637.001c0 14 5 26 15 36s22 15 36 15s26 -5 36 -15s15 -22 15 -36s-5 -26 -15 -36s-22 -15 -36 -15s-26 5 -36 15s-15 22 -15 36z" />
    <glyph glyph-name="yacute" unicode="&#xfd;" 
d="M222 -6c-54 140.667 -120.667 300.334 -200 479.001c16.667 -3.33301 32 -5 46 -5s29.333 1.66699 46 5c24 -74 73.667 -202 149 -384c54 112.667 103.667 240.667 149 384c12 -3.33301 23 -5 33 -5s21 1.66699 33 5c-30.667 -62 -87.5 -186.333 -170.5 -373
s-133.5 -309.334 -151.5 -368.001c-12 3.33301 -23.333 5 -34 5s-22 -1.66699 -34 -5c50 82 94.667 169.333 134 262zM182 559l147.001 149.001c16 16 31 24 45 24c7.33301 0 14.666 -3 21.999 -9s11 -13.667 11 -23c0 -16.667 -12 -32.334 -36 -47.001l-147 -94h-42z" />
    <glyph glyph-name="thorn" unicode="&#xfe;" horiz-adv-x="556" 
d="M65 20v444c0 132.667 -2.66699 228.667 -8 288c16.667 -3.33301 31.667 -5 45 -5s28.333 1.66699 45 5c-5.33301 -59.333 -8 -155.333 -8 -288v-89h2c13.333 28.667 33.666 53.834 60.999 75.501s63.333 32.5 108 32.5c56 0 104 -20.833 144 -62.5
s60 -102.834 60 -183.501c0 -80 -21.667 -142 -65 -186s-93.666 -66 -150.999 -66c-72.667 0 -125 32.667 -157 98h-2v-63c0 -132.667 2.66699 -228.667 8 -288c-16.667 3.33301 -31.667 5 -45 5s-28.333 -1.66699 -45 -5c5.33301 59.333 8 155.333 8 288zM426 238
c0 72.667 -13.332 124.667 -39.999 156s-59.334 47 -98.001 47c-50.667 0 -88.167 -19.5 -112.5 -58.5s-36.5 -89.833 -36.5 -152.5c0 -68 12.5 -119.667 37.5 -155s61.167 -53 108.5 -53c46 0 81 20 105 60s36 92 36 156z" />
    <glyph glyph-name="ydieresis" unicode="&#xff;" 
d="M298 637c0 14 5 26 15 36s22 15 36 15s26 -5 36 -15s15 -22 15 -36s-5 -26 -15 -36s-22 -15 -36 -15s-26 5 -36 15s-15 22 -15 36zM101 637c0 14 5 26 15 36s22 15 36 15s26 -5 36 -15s15 -22 15 -36s-5 -26 -15 -36s-22 -15 -36 -15s-26 5 -36 15s-15 22 -15 36zM222 -6
c-54 140.667 -120.667 300.334 -200 479.001c16.667 -3.33301 32 -5 46 -5s29.333 1.66699 46 5c24 -74 73.667 -202 149 -384c54 112.667 103.667 240.667 149 384c12 -3.33301 23 -5 33 -5s21 1.66699 33 5c-30.667 -62 -87.5 -186.333 -170.5 -373
s-133.5 -309.334 -151.5 -368.001c-12 3.33301 -23.333 5 -34 5s-22 -1.66699 -34 -5c50 82 94.667 169.333 134 262z" />
    <glyph glyph-name="Amacron" unicode="&#x100;" horiz-adv-x="667" 
d="M330 698l19.002 -0.000976562l79 -188l90.5 -215.5l73.5 -172.5c26 -60 45.333 -102.333 58 -127c-20 3.33301 -37.667 5 -53 5s-33 -1.66699 -53 -5c-4.66699 16 -11.334 36.167 -20.001 60.5s-16.667 45.5 -24 63.5l-31.5 76.5l-27.5 67.5
c-57.333 1.33301 -101 2 -131 2c-26.667 0 -67.334 -0.666992 -122.001 -2c-48.667 -119.333 -81 -208.666 -97 -267.999c-14.667 3.33301 -27 5 -37 5s-22.333 -1.66699 -37 -5zM427.002 308.999l-110.999 254l-109 -254c11.333 0 29.333 -0.333008 54 -1s42.667 -1 54 -1
c25.333 0 62.666 0.666992 111.999 2zM204.003 775.999v52h273v-52h-273z" />
    <glyph glyph-name="amacron" unicode="&#x101;" 
d="M86 373l0.00195312 51.9971c51.333 38.667 105 58 161 58c48 0 87 -13.5 117 -40.5s45 -62.833 45 -107.5c0 -24 -0.666992 -61.667 -2 -113s-2 -91.333 -2 -120c0 -11.333 0.166992 -20.166 0.5 -26.499s1.66602 -13.833 3.99902 -22.5s6.33301 -15 12 -19
s13.167 -6 22.5 -6s16.333 1.33301 21 4v-22c-22 -9.33301 -43.333 -14 -64 -14s-36.834 5.83301 -48.501 17.5s-18.5 26.5 -20.5 44.5c-25.333 -25.333 -49.666 -43.833 -72.999 -55.5s-51.333 -17.5 -84 -17.5c-35.333 0 -66.333 11.333 -93 34s-40 52.334 -40 89.001
c0 76 47 121.667 141 137c49.333 8 84.166 14.833 104.499 20.5s33 11.667 38 18s7.5 16.833 7.5 31.5c0 36.667 -9 66.834 -27 90.501s-45.667 35.5 -83 35.5c-26.667 0 -51.5 -6 -74.5 -18s-40.167 -28.667 -51.5 -50h-11zM329.002 96.9971l4 149.998
c-10.667 -3.33301 -30.667 -7.83301 -60 -13.5s-53.333 -11.167 -72 -16.5s-36.167 -16.166 -52.5 -32.499s-24.5 -37.166 -24.5 -62.499c0 -30 8.5 -53.333 25.5 -70s37.5 -25 61.5 -25s46.5 6.66699 67.5 20s37.833 30 50.5 50zM115.002 603.995v52h273v-52h-273z" />
    <glyph glyph-name="Abreve" unicode="&#x102;" horiz-adv-x="667" 
d="M330 698l19.002 -0.000976562l79 -188l90.5 -215.5l73.5 -172.5c26 -60 45.333 -102.333 58 -127c-20 3.33301 -37.667 5 -53 5s-33 -1.66699 -53 -5c-4.66699 16 -11.334 36.167 -20.001 60.5s-16.667 45.5 -24 63.5l-31.5 76.5l-27.5 67.5
c-57.333 1.33301 -101 2 -131 2c-26.667 0 -67.334 -0.666992 -122.001 -2c-48.667 -119.333 -81 -208.666 -97 -267.999c-14.667 3.33301 -27 5 -37 5s-22.333 -1.66699 -37 -5zM427.002 308.999l-110.999 254l-109 -254c11.333 0 29.333 -0.333008 54 -1s42.667 -1 54 -1
c25.333 0 62.666 0.666992 111.999 2zM200.003 888.999l32.002 0.000976562c11.333 -64 47.333 -96 108 -96c32.667 0 56.667 7.66699 72 23s27.666 39.666 36.999 72.999h32c0 -44.667 -12.167 -82.167 -36.5 -112.5s-58.833 -45.5 -103.5 -45.5s-79.334 15 -104.001 45
s-37 67.667 -37 113z" />
    <glyph glyph-name="abreve" unicode="&#x103;" 
d="M86 373l0.00195312 51.9971c51.333 38.667 105 58 161 58c48 0 87 -13.5 117 -40.5s45 -62.833 45 -107.5c0 -24 -0.666992 -61.667 -2 -113s-2 -91.333 -2 -120c0 -11.333 0.166992 -20.166 0.5 -26.499s1.66602 -13.833 3.99902 -22.5s6.33301 -15 12 -19
s13.167 -6 22.5 -6s16.333 1.33301 21 4v-22c-22 -9.33301 -43.333 -14 -64 -14s-36.834 5.83301 -48.501 17.5s-18.5 26.5 -20.5 44.5c-25.333 -25.333 -49.666 -43.833 -72.999 -55.5s-51.333 -17.5 -84 -17.5c-35.333 0 -66.333 11.333 -93 34s-40 52.334 -40 89.001
c0 76 47 121.667 141 137c49.333 8 84.166 14.833 104.499 20.5s33 11.667 38 18s7.5 16.833 7.5 31.5c0 36.667 -9 66.834 -27 90.501s-45.667 35.5 -83 35.5c-26.667 0 -51.5 -6 -74.5 -18s-40.167 -28.667 -51.5 -50h-11zM329.002 96.9971l4 149.998
c-10.667 -3.33301 -30.667 -7.83301 -60 -13.5s-53.333 -11.167 -72 -16.5s-36.167 -16.166 -52.5 -32.499s-24.5 -37.166 -24.5 -62.499c0 -30 8.5 -53.333 25.5 -70s37.5 -25 61.5 -25s46.5 6.66699 67.5 20s37.833 30 50.5 50zM111.002 716.995l32.002 0.000976562
c11.333 -64 47.333 -96 108 -96c32.667 0 56.667 7.66699 72 23s27.666 39.666 36.999 72.999h32c0 -44.667 -12.167 -82.167 -36.5 -112.5s-58.833 -45.5 -103.5 -45.5s-79.334 15 -104.001 45s-37 67.667 -37 113z" />
    <glyph glyph-name="Aogonek" unicode="&#x104;" horiz-adv-x="667" 
d="M330 698l18.999 -0.000976562l79 -188l90.5 -215.5l73.5 -172.5c26 -60 45.333 -102.333 58 -127c-20 3.33301 -37.667 5 -53 5h-7c-36 -32.667 -60 -58.167 -72 -76.5s-18 -35.5 -18 -51.5c0 -20 6.66699 -34.833 20 -44.5s29.333 -14.5 48 -14.5c8.66699 0 19 2 31 6
l11 -33c-14 -6.66699 -33.333 -10 -58 -10c-31.333 0 -58.166 7.5 -80.499 22.5s-33.5 35.833 -33.5 62.5c0 36.667 35.333 81.667 106 135c-7.33301 26.667 -41.666 115.667 -102.999 267c-57.333 1.33301 -101 2 -131 2c-26.667 0 -67.334 -0.666992 -122.001 -2
c-48.667 -119.333 -81 -208.666 -97 -267.999c-14.667 3.33301 -27 5 -37 5s-22.333 -1.66699 -37 -5zM426.999 308.999l-110.999 254l-109 -254c11.333 0 29.333 -0.333008 54 -1s42.667 -1 54 -1c25.333 0 62.666 0.666992 111.999 2z" />
    <glyph glyph-name="aogonek" unicode="&#x105;" 
d="M86 373v51.998c51.333 38.667 105 58 161 58c48 0 87 -13.5 117 -40.5s45 -62.833 45 -107.5c0 -24 -0.666992 -61.667 -2 -113s-2 -91.333 -2 -120c0 -11.333 0.166992 -20.166 0.5 -26.499s1.66602 -13.833 3.99902 -22.5s6.33301 -15 12 -19s13.167 -6 22.5 -6
s16.333 1.33301 21 4v-22c-10.667 -4.66699 -22.667 -8.33398 -36 -11.001c-35.333 -32 -58.833 -57.167 -70.5 -75.5s-17.5 -35.5 -17.5 -51.5c0 -20 6.66699 -34.833 20 -44.5s29.333 -14.5 48 -14.5c8.66699 0 19 2 31 6l11 -33c-14 -6.66699 -33.333 -10 -58 -10
c-31.333 0 -58.166 7.5 -80.499 22.5s-33.5 35.833 -33.5 62.5c0 38 36 83.333 108 136c-16 2.66699 -28.833 9.5 -38.5 20.5s-15.167 24.5 -16.5 40.5c-25.333 -25.333 -49.666 -43.833 -72.999 -55.5s-51.333 -17.5 -84 -17.5c-35.333 0 -66.333 11.333 -93 34
s-40 52.334 -40 89.001c0 76 47 121.667 141 137c49.333 8 84.166 14.833 104.499 20.5s33 11.667 38 18s7.5 16.833 7.5 31.5c0 36.667 -9 66.834 -27 90.501s-45.667 35.5 -83 35.5c-26.667 0 -51.5 -6 -74.5 -18s-40.167 -28.667 -51.5 -50h-11zM329 96.998l4 149.998
c-10.667 -3.33301 -30.667 -7.83301 -60 -13.5s-53.333 -11.167 -72 -16.5s-36.167 -16.166 -52.5 -32.499s-24.5 -37.166 -24.5 -62.499c0 -30 8.5 -53.333 25.5 -70s37.5 -25 61.5 -25s46.5 6.66699 67.5 20s37.833 30 50.5 50z" />
    <glyph glyph-name="Cacute" unicode="&#x106;" horiz-adv-x="667" 
d="M624 98l-9.00195 -58.9971c-16 -12.667 -43.5 -25.334 -82.5 -38.001s-80.833 -19 -125.5 -19c-108 0 -195.833 31.833 -263.5 95.5s-101.5 151.167 -101.5 262.5s34.333 198.833 103 262.5s159.334 95.5 272.001 95.5c78.667 0 151 -15.333 217 -46
c-6 -11.333 -13 -37.333 -21 -78l-6 -2c-20 22 -46.333 42.333 -79 61s-69.667 28 -111 28c-82.667 0 -149.5 -26.833 -200.5 -80.5s-76.5 -133.834 -76.5 -240.501s25.5 -186.834 76.5 -240.501s117.833 -80.5 200.5 -80.5c28.667 0 57.834 5.5 87.501 16.5
s51.5 21.167 65.5 30.5s30.667 21.333 50 36zM281.998 731.003l147.001 149c16 16 31 24 45 24c7.33301 0 14.666 -3 21.999 -9s11 -13.667 11 -23c0 -16 -12 -31.667 -36 -47l-147 -94h-42z" />
    <glyph glyph-name="cacute" unicode="&#x107;" 
d="M42 234c0 81.333 24.9971 143.164 74.9971 185.497s110 63.5 180 63.5c34.667 0 66.834 -4.33301 96.501 -13s51.167 -19 64.5 -31c-10 -22.667 -17.333 -44.667 -22 -66h-8c-11.333 20 -28.333 38 -51 54s-48.334 24 -77.001 24c-58 0 -100.833 -19.667 -128.5 -59
s-41.5 -91.666 -41.5 -156.999c0 -68 14.833 -119.667 44.5 -155s72.5 -53 128.5 -53c26 0 53 6.66699 81 20s51 30.333 69 51l5 -3c-2.66699 -15.333 -4.66699 -31.666 -6 -48.999c-21.333 -17.333 -47.166 -31.833 -77.499 -43.5s-60.166 -17.5 -89.499 -17.5
c-65.333 0 -122.166 20.833 -170.499 62.5s-72.5 103.834 -72.5 186.501zM207.997 558.998l147.001 149.001c16 16 31 24 45 24c7.33301 0 14.666 -3 21.999 -9s11 -13.667 11 -23c0 -16.667 -12 -32.334 -36 -47.001l-147 -94h-42z" />
    <glyph glyph-name="Ccircumflex" unicode="&#x108;" horiz-adv-x="667" 
d="M624 98l-9.00195 -58.9971c-16 -12.667 -43.5 -25.334 -82.5 -38.001s-80.833 -19 -125.5 -19c-108 0 -195.833 31.833 -263.5 95.5s-101.5 151.167 -101.5 262.5s34.333 198.833 103 262.5s159.334 95.5 272.001 95.5c78.667 0 151 -15.333 217 -46
c-6 -11.333 -13 -37.333 -21 -78l-6 -2c-20 22 -46.333 42.333 -79 61s-69.667 28 -111 28c-82.667 0 -149.5 -26.833 -200.5 -80.5s-76.5 -133.834 -76.5 -240.501s25.5 -186.834 76.5 -240.501s117.833 -80.5 200.5 -80.5c28.667 0 57.834 5.5 87.501 16.5
s51.5 21.167 65.5 30.5s30.667 21.333 50 36zM501.998 731.003l-120 105l-119 -105h-37l123 167h67l123 -167h-37z" />
    <glyph glyph-name="ccircumflex" unicode="&#x109;" 
d="M42 234c0 81.333 24.9971 143.164 74.9971 185.497s110 63.5 180 63.5c34.667 0 66.834 -4.33301 96.501 -13s51.167 -19 64.5 -31c-10 -22.667 -17.333 -44.667 -22 -66h-8c-11.333 20 -28.333 38 -51 54s-48.334 24 -77.001 24c-58 0 -100.833 -19.667 -128.5 -59
s-41.5 -91.666 -41.5 -156.999c0 -68 14.833 -119.667 44.5 -155s72.5 -53 128.5 -53c26 0 53 6.66699 81 20s51 30.333 69 51l5 -3c-2.66699 -15.333 -4.66699 -31.666 -6 -48.999c-21.333 -17.333 -47.166 -31.833 -77.499 -43.5s-60.166 -17.5 -89.499 -17.5
c-65.333 0 -122.166 20.833 -170.499 62.5s-72.5 103.834 -72.5 186.501zM381.997 558.998l-120 105l-119 -105h-37l123 167h67l123 -167h-37z" />
    <glyph glyph-name="Cdotaccent" unicode="&#x10a;" horiz-adv-x="667" 
d="M624 98l-9.00195 -58.9971c-16 -12.667 -43.5 -25.334 -82.5 -38.001s-80.833 -19 -125.5 -19c-108 0 -195.833 31.833 -263.5 95.5s-101.5 151.167 -101.5 262.5s34.333 198.833 103 262.5s159.334 95.5 272.001 95.5c78.667 0 151 -15.333 217 -46
c-6 -11.333 -13 -37.333 -21 -78l-6 -2c-20 22 -46.333 42.333 -79 61s-69.667 28 -111 28c-82.667 0 -149.5 -26.833 -200.5 -80.5s-76.5 -133.834 -76.5 -240.501s25.5 -186.834 76.5 -240.501s117.833 -80.5 200.5 -80.5c28.667 0 57.834 5.5 87.501 16.5
s51.5 21.167 65.5 30.5s30.667 21.333 50 36zM331.998 806.003c0 14 5 26 15 36s22 15 36 15s26 -5 36 -15s15 -22 15 -36s-5 -26 -15 -36s-22 -15 -36 -15s-26 5 -36 15s-15 22 -15 36z" />
    <glyph glyph-name="cdotaccent" unicode="&#x10b;" 
d="M42 234c0 81.333 24.9971 143.164 74.9971 185.497s110 63.5 180 63.5c34.667 0 66.834 -4.33301 96.501 -13s51.167 -19 64.5 -31c-10 -22.667 -17.333 -44.667 -22 -66h-8c-11.333 20 -28.333 38 -51 54s-48.334 24 -77.001 24c-58 0 -100.833 -19.667 -128.5 -59
s-41.5 -91.666 -41.5 -156.999c0 -68 14.833 -119.667 44.5 -155s72.5 -53 128.5 -53c26 0 53 6.66699 81 20s51 30.333 69 51l5 -3c-2.66699 -15.333 -4.66699 -31.666 -6 -48.999c-21.333 -17.333 -47.166 -31.833 -77.499 -43.5s-60.166 -17.5 -89.499 -17.5
c-65.333 0 -122.166 20.833 -170.499 62.5s-72.5 103.834 -72.5 186.501zM211.997 633.998c0 14 5 26 15 36s22 15 36 15s26 -5 36 -15s15 -22 15 -36s-5 -26 -15 -36s-22 -15 -36 -15s-26 5 -36 15s-15 22 -15 36z" />
    <glyph glyph-name="Ccaron" unicode="&#x10c;" horiz-adv-x="667" 
d="M624 98l-9.00195 -58.9971c-16 -12.667 -43.5 -25.334 -82.5 -38.001s-80.833 -19 -125.5 -19c-108 0 -195.833 31.833 -263.5 95.5s-101.5 151.167 -101.5 262.5s34.333 198.833 103 262.5s159.334 95.5 272.001 95.5c78.667 0 151 -15.333 217 -46
c-6 -11.333 -13 -37.333 -21 -78l-6 -2c-20 22 -46.333 42.333 -79 61s-69.667 28 -111 28c-82.667 0 -149.5 -26.833 -200.5 -80.5s-76.5 -133.834 -76.5 -240.501s25.5 -186.834 76.5 -240.501s117.833 -80.5 200.5 -80.5c28.667 0 57.834 5.5 87.501 16.5
s51.5 21.167 65.5 30.5s30.667 21.333 50 36zM382.998 793.003l119 105h37l-123 -167h-67l-123 167h37z" />
    <glyph glyph-name="ccaron" unicode="&#x10d;" 
d="M42 234c0 81.333 24.9971 143.164 74.9971 185.497s110 63.5 180 63.5c34.667 0 66.834 -4.33301 96.501 -13s51.167 -19 64.5 -31c-10 -22.667 -17.333 -44.667 -22 -66h-8c-11.333 20 -28.333 38 -51 54s-48.334 24 -77.001 24c-58 0 -100.833 -19.667 -128.5 -59
s-41.5 -91.666 -41.5 -156.999c0 -68 14.833 -119.667 44.5 -155s72.5 -53 128.5 -53c26 0 53 6.66699 81 20s51 30.333 69 51l5 -3c-2.66699 -15.333 -4.66699 -31.666 -6 -48.999c-21.333 -17.333 -47.166 -31.833 -77.499 -43.5s-60.166 -17.5 -89.499 -17.5
c-65.333 0 -122.166 20.833 -170.499 62.5s-72.5 103.834 -72.5 186.501zM262.997 620.998l119 105h37l-123 -167h-67l-123 167h37z" />
    <glyph glyph-name="Dcaron" unicode="&#x10e;" horiz-adv-x="778" 
d="M180 426l0.000976562 -171.999c0 -72 2 -142.667 6 -212c31.333 -6.66699 75 -10 131 -10c32 0 61.667 2.66699 89 8s54.833 15.166 82.5 29.499s51.167 33.166 70.5 56.499s35 54.5 47 93.5s18 83.833 18 134.5c0 56 -6.83301 103.5 -20.5 142.5
s-33.834 68.833 -60.501 89.5s-56.167 35.334 -88.5 44.001s-70.5 13 -114.5 13c-48 0 -99.333 -3.33301 -154 -10c-4 -64 -6 -133 -6 -207zM98.001 254.001l-0.00292969 172.001c0 58 -2.66699 144.333 -8 259c55.333 -3.33301 105.666 -5 150.999 -5
c16.667 0 41.834 0.833008 75.501 2.5s58.834 2.5 75.501 2.5c220 0 330 -110.333 330 -331c0 -51.333 -7.66699 -97.833 -23 -139.5s-35.166 -75.834 -59.499 -102.501s-52.666 -49 -84.999 -67s-64.833 -30.833 -97.5 -38.5s-65.667 -11.5 -99 -11.5
c-14.667 0 -37 0.833008 -67 2.5s-52.333 2.5 -67 2.5c-39.333 0 -84 -1.66699 -134 -5c5.33301 114.667 8 201 8 259zM348.998 793.002l119 105h37l-123 -167h-67l-123 167h37z" />
    <glyph glyph-name="dcaron" unicode="&#x10f;" horiz-adv-x="556" 
d="M413 -5l3 97.999h-2c-13.333 -28 -34 -53 -62 -75s-63.667 -33 -107 -33c-56 0 -103.833 20.833 -143.5 62.5s-59.5 102.834 -59.5 183.501c0 80 21.5 142 64.5 186s93.167 66 150.5 66c74 0 125.333 -33.333 154 -100h2c0 188.667 -1.33301 311.667 -4 369
c26.667 -3.33301 41.667 -5 45 -5c1.33301 0 16.333 1.66699 45 5c-8 -74.667 -12 -247 -12 -517l3 -240c-25.333 3.33301 -38.333 5 -39 5c-2 -0 -14.667 -1.66699 -38 -5zM130 224.999c0 -72.667 13.332 -124.668 39.999 -156.001s59.334 -47 98.001 -47
c48.667 0 85.667 21.833 111 65.5s38 95.834 38 156.501c0 63.333 -12.5 112 -37.5 146s-61.167 51 -108.5 51c-46 0 -81 -20 -105 -60s-36 -92 -36 -156zM540.999 550.998l41 156.001c8 26.667 22.333 40 43 40c8.66699 0 16.167 -2.66699 22.5 -8s9.5 -12.666 9.5 -21.999
c0 -8.66699 -5.16699 -22.834 -15.5 -42.501s-34.5 -61.834 -72.5 -126.501z" />
    <glyph glyph-name="Dcroat" unicode="&#x110;" horiz-adv-x="778" 
d="M180 365l0.000976562 -110.999c0 -72 2 -142.667 6 -212c31.333 -6.66699 75 -10 131 -10c32 0 61.667 2.66699 89 8s54.833 15.166 82.5 29.499s51.167 33.166 70.5 56.499s35 54.5 47 93.5s18 83.833 18 134.5c0 56 -6.83301 103.5 -20.5 142.5
s-33.834 68.833 -60.501 89.5s-56.167 35.334 -88.5 44.001s-70.5 13 -114.5 13c-48 0 -99.333 -3.33301 -154 -10c-4 -64 -6 -133 -6 -207v-24c66.667 0 130.667 1 192 3c-2 -7.33301 -3 -14.333 -3 -21c0 -7.33301 1 -15 3 -23c-54 2.66699 -118 4 -192 4zM98.001 402.001
l-0.00292969 24.001c0 58 -2.66699 144.333 -8 259c55.333 -3.33301 105.666 -5 150.999 -5c16.667 0 41.834 0.833008 75.501 2.5s58.834 2.5 75.501 2.5c220 0 330 -110.333 330 -331c0 -51.333 -7.66699 -97.833 -23 -139.5s-35.166 -75.834 -59.499 -102.501
s-52.666 -49 -84.999 -67s-64.833 -30.833 -97.5 -38.5s-65.667 -11.5 -99 -11.5c-14.667 0 -37 0.833008 -67 2.5s-52.333 2.5 -67 2.5c-39.333 0 -84 -1.66699 -134 -5c5.33301 114.667 8 201 8 259v111c-40.667 0 -73.334 -0.666992 -98.001 -2
c1.33301 9.33301 2 16.333 2 21c0 4 -0.666992 10.667 -2 20c24.667 -1.33301 57.334 -2 98.001 -2z" />
    <glyph glyph-name="dcroat" unicode="&#x111;" horiz-adv-x="556" 
d="M257 594v51.999l155 -3c-1.33301 53.333 -2.33301 89.666 -3 108.999c26.667 -3.33301 41.667 -5 45 -5c1.33301 0 16.333 1.66699 45 5c-2.66699 -23.333 -4.66699 -59.333 -6 -108c26 0 46.333 0.666992 61 2v-52l-63 2c-2.66699 -99.333 -4 -219.666 -4 -360.999
l3 -240c-25.333 3.33301 -38.333 5 -39 5c-2 0 -14.667 -1.66699 -38 -5l3 98h-2c-13.333 -28 -34 -53 -62 -75s-63.667 -33 -107 -33c-56 0 -103.833 20.833 -143.5 62.5s-59.5 102.834 -59.5 183.501c0 80 21.5 142 64.5 186s93.167 66 150.5 66
c74 0 125.333 -33.333 154 -100h2c0 96 -0.333008 167 -1 213c-75.333 0 -127 -0.666992 -155 -2zM130 224.999c0 -72.667 13.332 -124.668 39.999 -156.001s59.334 -47 98.001 -47c48.667 0 85.667 21.833 111 65.5s38 95.834 38 156.501c0 63.333 -12.5 112 -37.5 146
s-61.167 51 -108.5 51c-46 0 -81 -20 -105 -60s-36 -92 -36 -156z" />
    <glyph glyph-name="Emacron" unicode="&#x112;" 
d="M98 255v171.999c0 58.667 -2.66699 144.667 -8 258c66.667 -3.33301 126.334 -5 179.001 -5c53.333 0 112.666 1.66699 177.999 5c-2 -10 -3 -20 -3 -30s1 -20 3 -30c-121.333 8.66699 -209 13 -263 13c0 -9.33301 -0.666992 -28.166 -2 -56.499s-2 -51.833 -2 -70.5
c0 -19.333 0.166992 -44.666 0.5 -75.999s0.5 -50 0.5 -56c83.333 0 164.333 3.33301 243 10c-2 -10 -3 -20.333 -3 -31c0 -10 1 -20 3 -30c-59.333 6 -140.333 9 -243 9c-0.666992 -16 -1 -64.333 -1 -145c0 -66.667 0.666992 -116.667 2 -150
c134.667 0 224.667 4.33301 270 13c-2 -8.66699 -3 -19 -3 -31c0 -10.667 1 -20.334 3 -29.001c-65.333 3.33301 -125.333 5 -180 5c-53.333 -0 -114 -1.66699 -182 -5c5.33301 116 8 202.667 8 260zM131 775.999v52h273v-52h-273z" />
    <glyph glyph-name="emacron" unicode="&#x113;" 
d="M35 220c0 82 19.9951 146.334 59.9951 193.001s96.333 70 169 70c66.667 0 117.834 -19.333 153.501 -58s53.5 -87.334 53.5 -146.001c0 -8.66699 -0.666992 -21.667 -2 -39c-16 0 -38.5 0.333008 -67.5 1s-55.333 1.16699 -79 1.5s-46.167 0.5 -67.5 0.5
c-13.333 0 -27.166 -0.166992 -41.499 -0.5s-30.333 -0.833008 -48 -1.5s-31.5 -1 -41.5 -1c-0.666992 -6.66699 -1 -16 -1 -28c0 -54 15.333 -98.333 46 -133s73 -52 127 -52c26 0 53 6.66699 81 20s51 30.333 69 51l5 -3l-6 -49
c-21.333 -17.333 -47.166 -31.833 -77.499 -43.5s-60.166 -17.5 -89.499 -17.5c-71.333 0 -129.666 22.333 -174.999 67s-68 100.667 -68 168zM265.995 451.001c-44 0 -77.5 -17.833 -100.5 -53.5s-36.167 -75.5 -39.5 -119.5c82 -2 125.333 -3 130 -3s49 1 133 3
c0 20.667 -1.66699 40 -5 58s-9 36.167 -17 54.5s-20.667 33 -38 44s-38.333 16.5 -63 16.5zM127.995 604.001v52h273v-52h-273z" />
    <glyph glyph-name="Ebreve" unicode="&#x114;" 
d="M98 255v171.999c0 58.667 -2.66699 144.667 -8 258c66.667 -3.33301 126.334 -5 179.001 -5c53.333 0 112.666 1.66699 177.999 5c-2 -10 -3 -20 -3 -30s1 -20 3 -30c-121.333 8.66699 -209 13 -263 13c0 -9.33301 -0.666992 -28.166 -2 -56.499s-2 -51.833 -2 -70.5
c0 -19.333 0.166992 -44.666 0.5 -75.999s0.5 -50 0.5 -56c83.333 0 164.333 3.33301 243 10c-2 -10 -3 -20.333 -3 -31c0 -10 1 -20 3 -30c-59.333 6 -140.333 9 -243 9c-0.666992 -16 -1 -64.333 -1 -145c0 -66.667 0.666992 -116.667 2 -150
c134.667 0 224.667 4.33301 270 13c-2 -8.66699 -3 -19 -3 -31c0 -10.667 1 -20.334 3 -29.001c-65.333 3.33301 -125.333 5 -180 5c-53.333 -0 -114 -1.66699 -182 -5c5.33301 116 8 202.667 8 260zM123 888.999l32.002 0.000976562c11.333 -64 47.333 -96 108 -96
c32.667 0 56.667 7.66699 72 23s27.666 39.666 36.999 72.999h32c0 -44.667 -12.167 -82.167 -36.5 -112.5s-58.833 -45.5 -103.5 -45.5s-79.334 15 -104.001 45s-37 67.667 -37 113z" />
    <glyph glyph-name="ebreve" unicode="&#x115;" 
d="M35 220c0 82 19.9951 146.334 59.9951 193.001s96.333 70 169 70c66.667 0 117.834 -19.333 153.501 -58s53.5 -87.334 53.5 -146.001c0 -8.66699 -0.666992 -21.667 -2 -39c-16 0 -38.5 0.333008 -67.5 1s-55.333 1.16699 -79 1.5s-46.167 0.5 -67.5 0.5
c-13.333 0 -27.166 -0.166992 -41.499 -0.5s-30.333 -0.833008 -48 -1.5s-31.5 -1 -41.5 -1c-0.666992 -6.66699 -1 -16 -1 -28c0 -54 15.333 -98.333 46 -133s73 -52 127 -52c26 0 53 6.66699 81 20s51 30.333 69 51l5 -3l-6 -49
c-21.333 -17.333 -47.166 -31.833 -77.499 -43.5s-60.166 -17.5 -89.499 -17.5c-71.333 0 -129.666 22.333 -174.999 67s-68 100.667 -68 168zM265.995 451.001c-44 0 -77.5 -17.833 -100.5 -53.5s-36.167 -75.5 -39.5 -119.5c82 -2 125.333 -3 130 -3s49 1 133 3
c0 20.667 -1.66699 40 -5 58s-9 36.167 -17 54.5s-20.667 33 -38 44s-38.333 16.5 -63 16.5zM123.995 717.001l32.002 0.000976562c11.333 -64 47.333 -96 108 -96c32.667 0 56.667 7.66699 72 23s27.666 39.666 36.999 72.999h32c0 -44.667 -12.167 -82.167 -36.5 -112.5
s-58.833 -45.5 -103.5 -45.5s-79.334 15 -104.001 45s-37 67.667 -37 113z" />
    <glyph glyph-name="Edotaccent" unicode="&#x116;" 
d="M98 255v171.999c0 58.667 -2.66699 144.667 -8 258c66.667 -3.33301 126.334 -5 179.001 -5c53.333 0 112.666 1.66699 177.999 5c-2 -10 -3 -20 -3 -30s1 -20 3 -30c-121.333 8.66699 -209 13 -263 13c0 -9.33301 -0.666992 -28.166 -2 -56.499s-2 -51.833 -2 -70.5
c0 -19.333 0.166992 -44.666 0.5 -75.999s0.5 -50 0.5 -56c83.333 0 164.333 3.33301 243 10c-2 -10 -3 -20.333 -3 -31c0 -10 1 -20 3 -30c-59.333 6 -140.333 9 -243 9c-0.666992 -16 -1 -64.333 -1 -145c0 -66.667 0.666992 -116.667 2 -150
c134.667 0 224.667 4.33301 270 13c-2 -8.66699 -3 -19 -3 -31c0 -10.667 1 -20.334 3 -29.001c-65.333 3.33301 -125.333 5 -180 5c-53.333 -0 -114 -1.66699 -182 -5c5.33301 116 8 202.667 8 260zM214 805.999c0 14 5 26 15 36s22 15 36 15s26 -5 36 -15s15 -22 15 -36
s-5 -26 -15 -36s-22 -15 -36 -15s-26 5 -36 15s-15 22 -15 36z" />
    <glyph glyph-name="edotaccent" unicode="&#x117;" 
d="M35 220c0 82 19.9951 146.334 59.9951 193.001s96.333 70 169 70c66.667 0 117.834 -19.333 153.501 -58s53.5 -87.334 53.5 -146.001c0 -8.66699 -0.666992 -21.667 -2 -39c-16 0 -38.5 0.333008 -67.5 1s-55.333 1.16699 -79 1.5s-46.167 0.5 -67.5 0.5
c-13.333 0 -27.166 -0.166992 -41.499 -0.5s-30.333 -0.833008 -48 -1.5s-31.5 -1 -41.5 -1c-0.666992 -6.66699 -1 -16 -1 -28c0 -54 15.333 -98.333 46 -133s73 -52 127 -52c26 0 53 6.66699 81 20s51 30.333 69 51l5 -3l-6 -49
c-21.333 -17.333 -47.166 -31.833 -77.499 -43.5s-60.166 -17.5 -89.499 -17.5c-71.333 0 -129.666 22.333 -174.999 67s-68 100.667 -68 168zM265.995 451.001c-44 0 -77.5 -17.833 -100.5 -53.5s-36.167 -75.5 -39.5 -119.5c82 -2 125.333 -3 130 -3s49 1 133 3
c0 20.667 -1.66699 40 -5 58s-9 36.167 -17 54.5s-20.667 33 -38 44s-38.333 16.5 -63 16.5zM213.995 634.001c0 14 5 26 15 36s22 15 36 15s26 -5 36 -15s15 -22 15 -36s-5 -26 -15 -36s-22 -15 -36 -15s-26 5 -36 15s-15 22 -15 36z" />
    <glyph glyph-name="Eogonek" unicode="&#x118;" 
d="M98 255l-0.000976562 171.999c0 58.667 -2.66699 144.667 -8 258c66.667 -3.33301 126.334 -5 179.001 -5c53.333 0 112.666 1.66699 177.999 5c-2 -10 -3 -20 -3 -30s1 -20 3 -30c-121.333 8.66699 -209 13 -263 13c0 -9.33301 -0.666992 -28.166 -2 -56.499
s-2 -51.833 -2 -70.5c0 -19.333 0.166992 -44.666 0.5 -75.999s0.5 -50 0.5 -56c83.333 0 164.333 3.33301 243 10c-2 -10 -3 -20.333 -3 -31c0 -10 1 -20 3 -30c-59.333 6 -140.333 9 -243 9c-0.666992 -16 -1 -64.333 -1 -145c0 -66.667 0.666992 -116.667 2 -150
c134.667 0 224.667 4.33301 270 13c-2 -8.66699 -3 -19 -3 -31c0 -10.667 1 -20.334 3 -29.001l-70 3c-34.667 -32 -58 -57 -70 -75s-18 -35 -18 -51c0 -20 6.66699 -34.833 20 -44.5s29.333 -14.5 48 -14.5c8.66699 0 19 2 31 6l11 -33c-14 -6.66699 -33.333 -10 -58 -10
c-31.333 0 -58.166 7.5 -80.499 22.5s-33.5 35.833 -33.5 62.5c0 38 37 84.333 111 139h-71c-53.333 -0 -114 -1.66699 -182 -5c5.33301 116 8 202.667 8 260z" />
    <glyph glyph-name="eogonek" unicode="&#x119;" 
d="M35 220c0 82 19.9961 146.334 59.9961 193.001s96.333 70 169 70c66.667 0 117.834 -19.333 153.501 -58s53.5 -87.334 53.5 -146.001c0 -8.66699 -0.666992 -21.667 -2 -39c-16 0 -38.5 0.333008 -67.5 1s-55.333 1.16699 -79 1.5s-46.167 0.5 -67.5 0.5
c-13.333 0 -27.166 -0.166992 -41.499 -0.5s-30.333 -0.833008 -48 -1.5s-31.5 -1 -41.5 -1c-0.666992 -6.66699 -1 -16 -1 -28c0 -54 15.333 -98.333 46 -133s73 -52 127 -52c26 0 53 6.66699 81 20s51 30.333 69 51l5 -3l-6 -49c-34 -26.667 -72.333 -45 -115 -55
c-31.333 -30 -52.5 -53.5 -63.5 -70.5s-16.5 -33.167 -16.5 -48.5c0 -20 6.66699 -34.833 20 -44.5s29.333 -14.5 48 -14.5c8.66699 0 19 2 31 6l11 -33c-14 -6.66699 -33.333 -10 -58 -10c-31.333 0 -58.166 7.5 -80.499 22.5s-33.5 35.833 -33.5 62.5
c0 34.667 30.667 76 92 124h-2c-71.333 0 -129.666 22.333 -174.999 67s-68 100.667 -68 168zM265.996 451.001c-44 0 -77.5 -17.833 -100.5 -53.5s-36.167 -75.5 -39.5 -119.5c82 -2 125.333 -3 130 -3s49 1 133 3c0 20.667 -1.66699 40 -5 58s-9 36.167 -17 54.5
s-20.667 33 -38 44s-38.333 16.5 -63 16.5z" />
    <glyph glyph-name="Ecaron" unicode="&#x11a;" 
d="M98 255v171.999c0 58.667 -2.66699 144.667 -8 258c66.667 -3.33301 126.334 -5 179.001 -5c53.333 0 112.666 1.66699 177.999 5c-2 -10 -3 -20 -3 -30s1 -20 3 -30c-121.333 8.66699 -209 13 -263 13c0 -9.33301 -0.666992 -28.166 -2 -56.499s-2 -51.833 -2 -70.5
c0 -19.333 0.166992 -44.666 0.5 -75.999s0.5 -50 0.5 -56c83.333 0 164.333 3.33301 243 10c-2 -10 -3 -20.333 -3 -31c0 -10 1 -20 3 -30c-59.333 6 -140.333 9 -243 9c-0.666992 -16 -1 -64.333 -1 -145c0 -66.667 0.666992 -116.667 2 -150
c134.667 0 224.667 4.33301 270 13c-2 -8.66699 -3 -19 -3 -31c0 -10.667 1 -20.334 3 -29.001c-65.333 3.33301 -125.333 5 -180 5c-53.333 -0 -114 -1.66699 -182 -5c5.33301 116 8 202.667 8 260zM273 792.999l119 105h37l-123 -167h-67l-123 167h37z" />
    <glyph glyph-name="ecaron" unicode="&#x11b;" 
d="M35 220c0 82 19.9951 146.334 59.9951 193.001s96.333 70 169 70c66.667 0 117.834 -19.333 153.501 -58s53.5 -87.334 53.5 -146.001c0 -8.66699 -0.666992 -21.667 -2 -39c-16 0 -38.5 0.333008 -67.5 1s-55.333 1.16699 -79 1.5s-46.167 0.5 -67.5 0.5
c-13.333 0 -27.166 -0.166992 -41.499 -0.5s-30.333 -0.833008 -48 -1.5s-31.5 -1 -41.5 -1c-0.666992 -6.66699 -1 -16 -1 -28c0 -54 15.333 -98.333 46 -133s73 -52 127 -52c26 0 53 6.66699 81 20s51 30.333 69 51l5 -3l-6 -49
c-21.333 -17.333 -47.166 -31.833 -77.499 -43.5s-60.166 -17.5 -89.499 -17.5c-71.333 0 -129.666 22.333 -174.999 67s-68 100.667 -68 168zM265.995 451.001c-44 0 -77.5 -17.833 -100.5 -53.5s-36.167 -75.5 -39.5 -119.5c82 -2 125.333 -3 130 -3s49 1 133 3
c0 20.667 -1.66699 40 -5 58s-9 36.167 -17 54.5s-20.667 33 -38 44s-38.333 16.5 -63 16.5zM264.995 621.001l119 105h37l-123 -167h-67l-123 167h37z" />
    <glyph glyph-name="Gcircumflex" unicode="&#x11c;" horiz-adv-x="778" 
d="M683 563l-11.9971 0.000976562c-22.667 27.333 -53.334 50.5 -92.001 69.5s-81.334 28.5 -128.001 28.5c-87.333 0 -158 -26.833 -212 -80.5s-81 -133.834 -81 -240.501c0 -98.667 26.333 -176 79 -232s125.667 -84 219 -84c72 0 125.333 10.667 160 32
c1.33301 53.333 2 93.666 2 120.999c0 21.333 -1.66699 67 -5 137c14.667 -3.33301 30.667 -5 48 -5c18 0 32.333 1.66699 43 5c-2.66699 -40 -4 -107.667 -4 -203c0 -8.66699 0.166992 -22 0.5 -40s0.5 -31.667 0.5 -41c-32.667 -11.333 -74.334 -22.166 -125.001 -32.499
s-94 -15.5 -130 -15.5c-120.667 0 -215.167 30.833 -283.5 92.5s-102.5 150.167 -102.5 265.5c0 112 35.167 199.667 105.5 263s165.5 95 285.5 95c97.333 0 182.333 -19.333 255 -58c-12 -21.333 -19.667 -47 -23 -77zM538.003 731.001l-120 105l-119 -105h-37l123 167h67
l123 -167h-37z" />
    <glyph glyph-name="gcircumflex" unicode="&#x11d;" 
d="M50 320c0 52.667 18 92.999 54 120.999s81.667 42 137 42c6 0 33 -1.33301 81 -4c40 -2.66699 63.333 -4 70 -4c39.333 0 66.333 1.66699 81 5c-1.33301 -9.33301 -2 -16.333 -2 -21s0.666992 -11.667 2 -21c-64 5.33301 -101 8 -111 8l-2 -2
c20 -10.667 36.5 -28 49.5 -52s19.5 -48.667 19.5 -74c0 -49.333 -16.833 -88.333 -50.5 -117s-78.834 -43 -135.501 -43c-6 0 -15 0.333008 -27 1s-21.333 1 -28 1c-12.667 0 -24 -4.5 -34 -13.5s-15 -19.833 -15 -32.5c0 -18 4.33301 -30.833 13 -38.5
s24 -11.834 46 -12.501l110 -3c58 -1.33301 101 -13.5 129 -36.5s42 -53.5 42 -91.5c0 -52.667 -20.167 -99.667 -60.5 -141s-99.166 -62 -176.499 -62c-64 0 -114.833 12.833 -152.5 38.5s-56.5 60.834 -56.5 105.501c0 33.333 10.5 61.5 31.5 84.5
s46.167 38.833 75.5 47.5v2c-42 12 -63 38.667 -63 80c0 20.667 7.33301 38.834 22 54.501s31 25.167 49 28.5v2c-65.333 28.667 -98 78 -98 148zM351 324.999c0 40.667 -9.83398 72.333 -29.501 95s-46.167 34 -79.5 34c-35.333 0 -63.166 -12.167 -83.499 -36.5
s-30.5 -56.833 -30.5 -97.5c0 -42.667 9.5 -76 28.5 -100s47.167 -36 84.5 -36c36 0 63.333 13.5 82 40.5s28 60.5 28 100.5zM404.999 -111.002c0 38.667 -11.834 66.832 -35.501 84.499s-62.167 26.5 -115.5 26.5c-104.667 0 -157 -38.667 -157 -116
c0 -43.333 13.333 -75.166 40 -95.499s62.334 -30.5 107.001 -30.5c44 0 81.833 11.333 113.5 34s47.5 55 47.5 97zM355.998 558.996l-120 105l-119 -105h-37l123 167h67l123 -167h-37z" />
    <glyph glyph-name="Gbreve" unicode="&#x11e;" horiz-adv-x="778" 
d="M683 563l-11.9971 0.000976562c-22.667 27.333 -53.334 50.5 -92.001 69.5s-81.334 28.5 -128.001 28.5c-87.333 0 -158 -26.833 -212 -80.5s-81 -133.834 -81 -240.501c0 -98.667 26.333 -176 79 -232s125.667 -84 219 -84c72 0 125.333 10.667 160 32
c1.33301 53.333 2 93.666 2 120.999c0 21.333 -1.66699 67 -5 137c14.667 -3.33301 30.667 -5 48 -5c18 0 32.333 1.66699 43 5c-2.66699 -40 -4 -107.667 -4 -203c0 -8.66699 0.166992 -22 0.5 -40s0.5 -31.667 0.5 -41c-32.667 -11.333 -74.334 -22.166 -125.001 -32.499
s-94 -15.5 -130 -15.5c-120.667 0 -215.167 30.833 -283.5 92.5s-102.5 150.167 -102.5 265.5c0 112 35.167 199.667 105.5 263s165.5 95 285.5 95c97.333 0 182.333 -19.333 255 -58c-12 -21.333 -19.667 -47 -23 -77zM278.003 889.001l32.002 0.000976562
c11.333 -64 47.333 -96 108 -96c32.667 0 56.667 7.66699 72 23s27.666 39.666 36.999 72.999h32c0 -44.667 -12.167 -82.167 -36.5 -112.5s-58.833 -45.5 -103.5 -45.5s-79.334 15 -104.001 45s-37 67.667 -37 113z" />
    <glyph glyph-name="gbreve" unicode="&#x11f;" 
d="M50 320c0 52.667 18 92.999 54 120.999s81.667 42 137 42c6 0 33 -1.33301 81 -4c40 -2.66699 63.333 -4 70 -4c39.333 0 66.333 1.66699 81 5c-1.33301 -9.33301 -2 -16.333 -2 -21s0.666992 -11.667 2 -21c-64 5.33301 -101 8 -111 8l-2 -2
c20 -10.667 36.5 -28 49.5 -52s19.5 -48.667 19.5 -74c0 -49.333 -16.833 -88.333 -50.5 -117s-78.834 -43 -135.501 -43c-6 0 -15 0.333008 -27 1s-21.333 1 -28 1c-12.667 0 -24 -4.5 -34 -13.5s-15 -19.833 -15 -32.5c0 -18 4.33301 -30.833 13 -38.5
s24 -11.834 46 -12.501l110 -3c58 -1.33301 101 -13.5 129 -36.5s42 -53.5 42 -91.5c0 -52.667 -20.167 -99.667 -60.5 -141s-99.166 -62 -176.499 -62c-64 0 -114.833 12.833 -152.5 38.5s-56.5 60.834 -56.5 105.501c0 33.333 10.5 61.5 31.5 84.5
s46.167 38.833 75.5 47.5v2c-42 12 -63 38.667 -63 80c0 20.667 7.33301 38.834 22 54.501s31 25.167 49 28.5v2c-65.333 28.667 -98 78 -98 148zM351 324.999c0 40.667 -9.83398 72.333 -29.501 95s-46.167 34 -79.5 34c-35.333 0 -63.166 -12.167 -83.499 -36.5
s-30.5 -56.833 -30.5 -97.5c0 -42.667 9.5 -76 28.5 -100s47.167 -36 84.5 -36c36 0 63.333 13.5 82 40.5s28 60.5 28 100.5zM404.999 -111.002c0 38.667 -11.834 66.832 -35.501 84.499s-62.167 26.5 -115.5 26.5c-104.667 0 -157 -38.667 -157 -116
c0 -43.333 13.333 -75.166 40 -95.499s62.334 -30.5 107.001 -30.5c44 0 81.833 11.333 113.5 34s47.5 55 47.5 97zM95.998 716.996l32.002 0.000976562c11.333 -64 47.333 -96 108 -96c32.667 0 56.667 7.66699 72 23s27.666 39.666 36.999 72.999h32
c0 -44.667 -12.167 -82.167 -36.5 -112.5s-58.833 -45.5 -103.5 -45.5s-79.334 15 -104.001 45s-37 67.667 -37 113z" />
    <glyph glyph-name="Gdotaccent" unicode="&#x120;" horiz-adv-x="778" 
d="M683 563l-11.9971 0.000976562c-22.667 27.333 -53.334 50.5 -92.001 69.5s-81.334 28.5 -128.001 28.5c-87.333 0 -158 -26.833 -212 -80.5s-81 -133.834 -81 -240.501c0 -98.667 26.333 -176 79 -232s125.667 -84 219 -84c72 0 125.333 10.667 160 32
c1.33301 53.333 2 93.666 2 120.999c0 21.333 -1.66699 67 -5 137c14.667 -3.33301 30.667 -5 48 -5c18 0 32.333 1.66699 43 5c-2.66699 -40 -4 -107.667 -4 -203c0 -8.66699 0.166992 -22 0.5 -40s0.5 -31.667 0.5 -41c-32.667 -11.333 -74.334 -22.166 -125.001 -32.499
s-94 -15.5 -130 -15.5c-120.667 0 -215.167 30.833 -283.5 92.5s-102.5 150.167 -102.5 265.5c0 112 35.167 199.667 105.5 263s165.5 95 285.5 95c97.333 0 182.333 -19.333 255 -58c-12 -21.333 -19.667 -47 -23 -77zM368.003 806.001c0 14 5 26 15 36s22 15 36 15
s26 -5 36 -15s15 -22 15 -36s-5 -26 -15 -36s-22 -15 -36 -15s-26 5 -36 15s-15 22 -15 36z" />
    <glyph glyph-name="gdotaccent" unicode="&#x121;" 
d="M50 320c0 52.667 18 92.999 54 120.999s81.667 42 137 42c6 0 33 -1.33301 81 -4c40 -2.66699 63.333 -4 70 -4c39.333 0 66.333 1.66699 81 5c-1.33301 -9.33301 -2 -16.333 -2 -21s0.666992 -11.667 2 -21c-64 5.33301 -101 8 -111 8l-2 -2
c20 -10.667 36.5 -28 49.5 -52s19.5 -48.667 19.5 -74c0 -49.333 -16.833 -88.333 -50.5 -117s-78.834 -43 -135.501 -43c-6 0 -15 0.333008 -27 1s-21.333 1 -28 1c-12.667 0 -24 -4.5 -34 -13.5s-15 -19.833 -15 -32.5c0 -18 4.33301 -30.833 13 -38.5
s24 -11.834 46 -12.501l110 -3c58 -1.33301 101 -13.5 129 -36.5s42 -53.5 42 -91.5c0 -52.667 -20.167 -99.667 -60.5 -141s-99.166 -62 -176.499 -62c-64 0 -114.833 12.833 -152.5 38.5s-56.5 60.834 -56.5 105.501c0 33.333 10.5 61.5 31.5 84.5
s46.167 38.833 75.5 47.5v2c-42 12 -63 38.667 -63 80c0 20.667 7.33301 38.834 22 54.501s31 25.167 49 28.5v2c-65.333 28.667 -98 78 -98 148zM351 324.999c0 40.667 -9.83398 72.333 -29.501 95s-46.167 34 -79.5 34c-35.333 0 -63.166 -12.167 -83.499 -36.5
s-30.5 -56.833 -30.5 -97.5c0 -42.667 9.5 -76 28.5 -100s47.167 -36 84.5 -36c36 0 63.333 13.5 82 40.5s28 60.5 28 100.5zM404.999 -111.002c0 38.667 -11.834 66.832 -35.501 84.499s-62.167 26.5 -115.5 26.5c-104.667 0 -157 -38.667 -157 -116
c0 -43.333 13.333 -75.166 40 -95.499s62.334 -30.5 107.001 -30.5c44 0 81.833 11.333 113.5 34s47.5 55 47.5 97zM192.998 633.996c0 14 5 26 15 36s22 15 36 15s26 -5 36 -15s15 -22 15 -36s-5 -26 -15 -36s-22 -15 -36 -15s-26 5 -36 15s-15 22 -15 36z" />
    <glyph glyph-name="Gcommaaccent" unicode="&#x122;" horiz-adv-x="778" 
d="M683 563l-11.9971 0.000976562c-22.667 27.333 -53.334 50.5 -92.001 69.5s-81.334 28.5 -128.001 28.5c-87.333 0 -158 -26.833 -212 -80.5s-81 -133.834 -81 -240.501c0 -98.667 26.333 -176 79 -232s125.667 -84 219 -84c72 0 125.333 10.667 160 32
c1.33301 53.333 2 93.666 2 120.999c0 21.333 -1.66699 67 -5 137c14.667 -3.33301 30.667 -5 48 -5c18 0 32.333 1.66699 43 5c-2.66699 -40 -4 -107.667 -4 -203c0 -8.66699 0.166992 -22 0.5 -40s0.5 -31.667 0.5 -41c-32.667 -11.333 -74.334 -22.166 -125.001 -32.499
s-94 -15.5 -130 -15.5c-120.667 0 -215.167 30.833 -283.5 92.5s-102.5 150.167 -102.5 265.5c0 112 35.167 199.667 105.5 263s165.5 95 285.5 95c97.333 0 182.333 -19.333 255 -58c-12 -21.333 -19.667 -47 -23 -77zM364.003 -216.999l42.001 133.001
c7.33301 24 21 36 41 36c9.33301 0 17.333 -2.83301 24 -8.5s10 -12.834 10 -21.501c0 -12 -5.83301 -26.5 -17.5 -43.5s-38.834 -51.167 -81.501 -102.5z" />
    <glyph glyph-name="gcommaaccent" unicode="&#x123;" 
d="M50 320c0 52.667 18 92.999 54 120.999s81.667 42 137 42c6 0 33 -1.33301 81 -4c40 -2.66699 63.333 -4 70 -4c39.333 0 66.333 1.66699 81 5c-1.33301 -9.33301 -2 -16.333 -2 -21s0.666992 -11.667 2 -21c-64 5.33301 -101 8 -111 8l-2 -2
c20 -10.667 36.5 -28 49.5 -52s19.5 -48.667 19.5 -74c0 -49.333 -16.833 -88.333 -50.5 -117s-78.834 -43 -135.501 -43c-6 0 -15 0.333008 -27 1s-21.333 1 -28 1c-12.667 0 -24 -4.5 -34 -13.5s-15 -19.833 -15 -32.5c0 -18 4.33301 -30.833 13 -38.5
s24 -11.834 46 -12.501l110 -3c58 -1.33301 101 -13.5 129 -36.5s42 -53.5 42 -91.5c0 -52.667 -20.167 -99.667 -60.5 -141s-99.166 -62 -176.499 -62c-64 0 -114.833 12.833 -152.5 38.5s-56.5 60.834 -56.5 105.501c0 33.333 10.5 61.5 31.5 84.5
s46.167 38.833 75.5 47.5v2c-42 12 -63 38.667 -63 80c0 20.667 7.33301 38.834 22 54.501s31 25.167 49 28.5v2c-65.333 28.667 -98 78 -98 148zM351 324.999c0 40.667 -9.83398 72.333 -29.501 95s-46.167 34 -79.5 34c-35.333 0 -63.166 -12.167 -83.499 -36.5
s-30.5 -56.833 -30.5 -97.5c0 -42.667 9.5 -76 28.5 -100s47.167 -36 84.5 -36c36 0 63.333 13.5 82 40.5s28 60.5 28 100.5zM404.999 -111.002c0 38.667 -11.834 66.832 -35.501 84.499s-62.167 26.5 -115.5 26.5c-104.667 0 -157 -38.667 -157 -116
c0 -43.333 13.333 -75.166 40 -95.499s62.334 -30.5 107.001 -30.5c44 0 81.833 11.333 113.5 34s47.5 55 47.5 97zM326.998 737.996l-42.001 -133.001c-7.33301 -24 -21 -36 -41 -36c-9.33301 0 -17.333 2.83301 -24 8.5s-10 12.834 -10 21.501
c0 12 5.83301 26.5 17.5 43.5s38.834 51.167 81.501 102.5z" />
    <glyph glyph-name="Hcircumflex" unicode="&#x124;" horiz-adv-x="778" 
d="M598 391l0.00390625 35c0 58 -2.66699 144.333 -8 259c18.667 -3.33301 35 -5 49 -5s30.333 1.66699 49 5c-5.33301 -114.667 -8 -201 -8 -259v-172c0 -58 2.66699 -144.333 8 -259c-18.667 3.33301 -35 5 -49 5s-30.333 -1.66699 -49 -5c5.33301 114.667 8 201 8 259v90
c-93.333 1.33301 -163 2 -209 2s-115.667 -0.666992 -209 -2v-90c0 -58 2.66699 -144.333 8 -259c-18.667 3.33301 -35 5 -49 5s-30.333 -1.66699 -49 -5c5.33301 114.667 8 201 8 259v172c0 58 -2.66699 144.333 -8 259c18.667 -3.33301 35 -5 49 -5s30.333 1.66699 49 5
c-5.33301 -114.667 -8 -201 -8 -259v-35c15.333 0 37.166 -0.333008 65.499 -1s54.166 -1.16699 77.499 -1.5s45.333 -0.5 66 -0.5s42.667 0.166992 66 0.5s49.166 0.833008 77.499 1.5s50.166 1 65.499 1zM508.004 731l-120 105l-119 -105h-37l123 167h67l123 -167h-37z
" />
    <glyph glyph-name="hcircumflex" unicode="&#x125;" horiz-adv-x="556" 
d="M84 283v181c0 132.667 -2.66699 228.667 -8 288c16.667 -3.33301 31.667 -5 45 -5s28.333 1.66699 45 5c-5.33301 -59.333 -8 -153.666 -8 -282.999v-76h2c38.667 60 92 90 160 90c44 0 81.667 -13.333 113 -40s47 -71.334 47 -134.001c0 -18 -0.666992 -47.5 -2 -88.5
s-2 -73.167 -2 -96.5c0 -57.333 0.666992 -100.333 2 -129c-16.667 3.33301 -30.667 5 -42 5c-12 -0 -25.667 -1.66699 -41 -5c0 10.667 1.16699 43 3.5 97s3.5 96 3.5 126v61c0 48 -9.83301 85.333 -29.5 112s-46.167 40 -79.5 40c-90 0 -135 -54.667 -135 -164
c0 -122 2.66699 -212.667 8 -272c-16.667 3.33301 -31.667 5 -45 5s-28.333 -1.66699 -45 -5c5.33301 59.333 8 155.333 8 288zM382 798l-120 105l-119 -105h-37l123 167h67l123 -167h-37z" />
    <glyph glyph-name="Hbar" unicode="&#x126;" horiz-adv-x="778" 
d="M188 685c-2.66699 -47.333 -4.33398 -83.666 -5.00098 -108.999c15.333 0 37 -0.333008 65 -1s53.333 -1.16699 76 -1.5s44.334 -0.5 65.001 -0.5s42.334 0.166992 65.001 0.5s48 0.833008 76 1.5s49.667 1 65 1c-2.66699 47.333 -4.33398 83.666 -5.00098 108.999
c18.667 -3.33301 35 -5 49 -5s30.333 1.66699 49 5c-5.33301 -114.667 -8 -201 -8 -259v-172c0 -58 2.66699 -144.333 8 -259c-18.667 3.33301 -35 5 -49 5s-30.333 -1.66699 -49 -5c5.33301 114.667 8 201 8 259v90c-93.333 1.33301 -163 2 -209 2
s-115.667 -0.666992 -209 -2v-90c0 -58 2.66699 -144.333 8 -259c-18.667 3.33301 -35 5 -49 5s-30.333 -1.66699 -49 -5c5.33301 114.667 8 201 8 259v172c0 58 -2.66699 144.333 -8 259c18.667 -3.33301 35 -5 49 -5s30.333 1.66699 49 5zM598 391l0.00292969 34.999
c0 22 -0.666992 56.333 -2 103c-92 1.33301 -161 2 -207 2c-45.333 0 -114.666 -0.666992 -207.999 -2c-0.666992 -23.333 -1 -57.666 -1 -102.999v-35c15.333 0 37.166 -0.333008 65.499 -1s54.166 -1.16699 77.499 -1.5s45.333 -0.5 66 -0.5s42.667 0.166992 66 0.5
s49.166 0.833008 77.499 1.5s50.166 1 65.499 1z" />
    <glyph glyph-name="hbar" unicode="&#x127;" horiz-adv-x="556" 
d="M84 283l0.000976562 181c0 57.333 -0.333008 101.333 -1 132c-27.333 0 -48 -0.666992 -62 -2v52c14 -1.33301 34 -2 60 -2c-0.666992 38 -2.33398 74 -5.00098 108c16.667 -3.33301 31.667 -5 45 -5s28.333 1.66699 45 5
c-0.666992 -9.33301 -2.66699 -45.666 -6 -108.999c46.667 0 100 1 160 3v-52c-28 1.33301 -81.667 2 -161 2c-0.666992 -30 -1 -72.333 -1 -127v-76h2c38.667 60 92 90 160 90c44 0 81.667 -13.333 113 -40s47 -71.334 47 -134.001c0 -18 -0.666992 -47.5 -2 -88.5
s-2 -73.167 -2 -96.5c0 -57.333 0.666992 -100.333 2 -129c-16.667 3.33301 -30.667 5 -42 5c-12 -0 -25.667 -1.66699 -41 -5c0 10.667 1.16699 43 3.5 97s3.5 96 3.5 126v61c0 48 -9.83301 85.333 -29.5 112s-46.167 40 -79.5 40c-90 0 -135 -54.667 -135 -164
c0 -122 2.66699 -212.667 8 -272c-16.667 3.33301 -31.667 5 -45 5s-28.333 -1.66699 -45 -5c5.33301 59.333 8 155.333 8 288z" />
    <glyph glyph-name="Itilde" unicode="&#x128;" horiz-adv-x="278" 
d="M5 756h-30.001c4.66699 27.333 15.834 51.333 33.501 72s41.167 31 70.5 31c17.333 0 41.666 -7.66699 72.999 -23s53.333 -23 66 -23c28 0 47 16.667 57 50h29c-1.33301 -10 -4.16602 -20.333 -8.49902 -31s-10.333 -22.167 -18 -34.5s-18.667 -22.333 -33 -30
s-30.833 -11.5 -49.5 -11.5c-20 0 -44 7.66699 -72 23s-49.667 23 -65 23s-26.5 -3.16699 -33.5 -9.5s-13.5 -18.5 -19.5 -36.5zM97.999 254v172c0 58 -2.66699 144.333 -8 259c18.667 -3.33301 35 -5 49 -5s30.333 1.66699 49 5c-5.33301 -114.667 -8 -201 -8 -259v-172
c0 -58 2.66699 -144.333 8 -259c-18.667 3.33301 -35 5 -49 5s-30.333 -1.66699 -49 -5c5.33301 114.667 8 201 8 259z" />
    <glyph glyph-name="itilde" unicode="&#x129;" horiz-adv-x="278" 
d="M6 584h-30.001c4.66699 27.333 15.834 51.333 33.501 72s41.167 31 70.5 31c17.333 0 41.666 -7.66699 72.999 -23s53.333 -23 66 -23c28 0 47 16.667 57 50h29c-1.33301 -10 -4.16602 -20.333 -8.49902 -31s-10.333 -22.167 -18 -34.5s-18.667 -22.333 -33 -30
s-30.833 -11.5 -49.5 -11.5c-20 0 -44 7.66699 -72 23s-49.667 23 -65 23s-26.5 -3.16699 -33.5 -9.5s-13.5 -18.5 -19.5 -36.5zM101.999 182v104c0 74 -2.66699 136.333 -8 187c16.667 -3.33301 31.667 -5 45 -5s28.333 1.66699 45 5c-5.33301 -50.667 -8 -113 -8 -187
v-104c0 -74 2.66699 -136.333 8 -187c-16.667 3.33301 -31.667 5 -45 5s-28.333 -1.66699 -45 -5c5.33301 50.667 8 113 8 187z" />
    <glyph glyph-name="Imacron" unicode="&#x12a;" horiz-adv-x="278" 
d="M98 254v172c0 58 -2.66699 144.333 -8 259c18.667 -3.33301 35 -5 49 -5s30.333 1.66699 49 5c-5.33301 -114.667 -8 -201 -8 -259v-172c0 -58 2.66699 -144.333 8 -259c-18.667 3.33301 -35 5 -49 5s-30.333 -1.66699 -49 -5c5.33301 114.667 8 201 8 259zM2 776v52h273
v-52h-273z" />
    <glyph glyph-name="imacron" unicode="&#x12b;" horiz-adv-x="278" 
d="M102 182v104c0 74 -2.66699 136.333 -8 187c16.667 -3.33301 31.667 -5 45 -5s28.333 1.66699 45 5c-5.33301 -50.667 -8 -113 -8 -187v-104c0 -74 2.66699 -136.333 8 -187c-16.667 3.33301 -31.667 5 -45 5s-28.333 -1.66699 -45 -5c5.33301 50.667 8 113 8 187zM4 604
v52h273v-52h-273z" />
    <glyph glyph-name="Ibreve" unicode="&#x12c;" horiz-adv-x="278" 
d="M98 254v172c0 58 -2.66699 144.333 -8 259c18.667 -3.33301 35 -5 49 -5s30.333 1.66699 49 5c-5.33301 -114.667 -8 -201 -8 -259v-172c0 -58 2.66699 -144.333 8 -259c-18.667 3.33301 -35 5 -49 5s-30.333 -1.66699 -49 -5c5.33301 114.667 8 201 8 259zM-4 889
l32.002 0.000976562c11.333 -64 47.333 -96 108 -96c32.667 0 56.667 7.66699 72 23s27.666 39.666 36.999 72.999h32c0 -44.667 -12.167 -82.167 -36.5 -112.5s-58.833 -45.5 -103.5 -45.5s-79.334 15 -104.001 45s-37 67.667 -37 113z" />
    <glyph glyph-name="ibreve" unicode="&#x12d;" horiz-adv-x="278" 
d="M102 182v104c0 74 -2.66699 136.333 -8 187c16.667 -3.33301 31.667 -5 45 -5s28.333 1.66699 45 5c-5.33301 -50.667 -8 -113 -8 -187v-104c0 -74 2.66699 -136.333 8 -187c-16.667 3.33301 -31.667 5 -45 5s-28.333 -1.66699 -45 -5c5.33301 50.667 8 113 8 187z
M-4 717l32.002 0.000976562c11.333 -64 47.333 -96 108 -96c32.667 0 56.667 7.66699 72 23s27.666 39.666 36.999 72.999h32c0 -44.667 -12.167 -82.167 -36.5 -112.5s-58.833 -45.5 -103.5 -45.5s-79.334 15 -104.001 45s-37 67.667 -37 113z" />
    <glyph glyph-name="Iogonek" unicode="&#x12e;" horiz-adv-x="278" 
d="M139 0c-14 0 -30.333 -1.66602 -49 -4.99902c5.33301 114.667 8 201 8 259v172c0 58 -2.66699 144.333 -8 259c18.667 -3.33301 35 -5 49 -5s30.333 1.66699 49 5c-5.33301 -114.667 -8 -201 -8 -259v-172c0 -58 2.66699 -144.333 8 -259
c-5.33301 1.33301 -9.33301 2 -12 2c-34.667 -32 -57.834 -57 -69.501 -75s-17.5 -34.667 -17.5 -50c0 -20 6.66699 -34.833 20 -44.5s29.333 -14.5 48 -14.5c8.66699 0 19 2 31 6l11 -33c-14 -6.66699 -33.333 -10 -58 -10c-31.333 0 -58.166 7.5 -80.499 22.5
s-33.5 35.833 -33.5 62.5c0 37.333 37.333 83.666 112 138.999z" />
    <glyph glyph-name="iogonek" unicode="&#x12f;" horiz-adv-x="278" 
d="M139 0c-13.333 0 -28.334 -1.66602 -45.001 -4.99902c5.33301 50.667 8 113 8 187v104c0 74 -2.66699 136.333 -8 187c16.667 -3.33301 31.667 -5 45 -5s28.333 1.66699 45 5c-5.33301 -50.667 -8 -113 -8 -187v-104c0 -74 2.66699 -136.333 8 -187
c-1.33301 0.666992 -3 1 -5 1s-3.33301 0.333008 -4 1c-34 -32 -56.833 -57 -68.5 -75s-17.5 -34.667 -17.5 -50c0 -20 6.66699 -34.833 20 -44.5s29.333 -14.5 48 -14.5c8.66699 0 19 2 31 6l11 -33c-14 -6.66699 -33.333 -10 -58 -10c-31.333 0 -58.166 7.5 -80.499 22.5
s-33.5 35.833 -33.5 62.5c0 37.333 37.333 83.666 112 138.999zM87.999 647.001c0 14 5 26 15 36s22 15 36 15s26 -5 36 -15s15 -22 15 -36s-5 -26 -15 -36s-22 -15 -36 -15s-26 5 -36 15s-15 22 -15 36z" />
    <glyph glyph-name="Idotaccent" unicode="&#x130;" horiz-adv-x="278" 
d="M98 254v172c0 58 -2.66699 144.333 -8 259c18.667 -3.33301 35 -5 49 -5s30.333 1.66699 49 5c-5.33301 -114.667 -8 -201 -8 -259v-172c0 -58 2.66699 -144.333 8 -259c-18.667 3.33301 -35 5 -49 5s-30.333 -1.66699 -49 -5c5.33301 114.667 8 201 8 259zM90 806
c0 14 5 26 15 36s22 15 36 15s26 -5 36 -15s15 -22 15 -36s-5 -26 -15 -36s-22 -15 -36 -15s-26 5 -36 15s-15 22 -15 36z" />
    <glyph glyph-name="dotlessi" unicode="&#x131;" horiz-adv-x="278" 
d="M102 182v104c0 74 -2.66699 136.333 -8 187c16.667 -3.33301 31.667 -5 45 -5s28.333 1.66699 45 5c-5.33301 -50.667 -8 -113 -8 -187v-104c0 -74 2.66699 -136.333 8 -187c-16.667 3.33301 -31.667 5 -45 5s-28.333 -1.66699 -45 -5c5.33301 50.667 8 113 8 187z" />
    <glyph glyph-name="Jcircumflex" unicode="&#x134;" horiz-adv-x="278" 
d="M-22 -144l-8 28c22.667 0 42 4.5 58 13.5s28.5 20.5 37.5 34.5s16 33.167 21 57.5s8.16699 48.333 9.5 72s2 53.5 2 89.5v275c0 58 -2.66699 144.333 -8 259c18.667 -3.33301 35 -5 49 -5s30.333 1.66699 49 5c-5.33301 -114.667 -8 -201 -8 -259
c0 -42 0.5 -104.333 1.5 -187s1.5 -139 1.5 -169c0 -60.667 -19 -111.5 -57 -152.5s-87.333 -61.5 -148 -61.5zM258 731l-120 105l-119 -105h-37l123 167h67l123 -167h-37z" />
    <glyph glyph-name="jcircumflex" unicode="&#x135;" horiz-adv-x="278" 
d="M102 -51l-0.000976562 296.997c0 100.667 -2.66699 176.334 -8 227.001c16.667 -3.33301 31.667 -5 45 -5s28.333 1.66699 45 5c-5.33301 -50.667 -8 -113 -8 -187v-104c0 -25.333 0.666992 -63.666 2 -114.999s2 -89.666 2 -114.999c0 -23.333 -0.5 -41.5 -1.5 -54.5
s-3.83301 -28.167 -8.5 -45.5s-12 -33 -22 -47c-15.333 -22 -35.666 -40 -60.999 -54s-53.333 -21.333 -84 -22l-7 34c6.66699 -1.33301 12 -2 16 -2c60 0 90 62.667 90 188zM258.999 558.997l-120 105l-119 -105h-37l123 167h67l123 -167h-37z" />
    <glyph glyph-name="Kcommaaccent" unicode="&#x136;" horiz-adv-x="611" 
d="M90 -5c5.33301 114.667 7.99707 200.999 7.99707 258.999v172c0 58 -2.66699 144.333 -8 259c18.667 -3.33301 35 -5 49 -5s30.333 1.66699 49 5c-5.33301 -114.667 -8 -201 -8 -259v-55c0 -5.33301 2 -8 6 -8c2.66699 0 7.33398 3 14.001 9
c74 64.667 174.333 169 301 313c14.667 -3.33301 28.334 -5 41.001 -5c14 0 30 1.66699 48 5l-173.5 -161c-64.333 -62 -113.166 -112.333 -146.499 -151l331 -378c-22 3.33301 -42 5 -60 5c-16.667 0 -35 -1.66699 -55 -5c-158.667 194.667 -255 309.334 -289 344.001
c-5.33301 5.33301 -9.33301 8 -12 8c-3.33301 0 -5 -2 -5 -6v-87c0 -58 2.66699 -144.333 8 -259c-18.667 3.33301 -35 5 -49 5s-30.333 -1.66699 -49 -5zM223.997 -217.001l42.001 133.001c7.33301 24 21 36 41 36c9.33301 0 17.333 -2.83301 24 -8.5
s10 -12.834 10 -21.501c0 -12 -5.83301 -26.5 -17.5 -43.5s-38.834 -51.167 -81.501 -102.5z" />
    <glyph glyph-name="kcommaaccent" unicode="&#x137;" 
d="M84 283l0.000976562 181.002c0 132.667 -2.66699 228.667 -8 288c16.667 -3.33301 31.667 -5 45 -5s28.333 1.66699 45 5c-5.33301 -59.333 -8 -155.333 -8 -288v-182c0 -12.667 4 -19 12 -19c5.33301 0 18.333 7.66699 39 23c12.667 9.33301 39 34.333 79 75
s75 78 105 112c12 -3.33301 24.667 -5 38 -5c8 0 24.667 1.66699 50 5c-90.667 -73.333 -167.334 -140.333 -230.001 -201l241 -277c-25.333 3.33301 -44.333 5 -57 5c-15.333 0 -32.333 -1.66699 -51 -5c-65.333 85.333 -132.333 164.666 -201 237.999
c-5.33301 6.66699 -10.333 10 -15 10c-6.66699 0 -10 -4 -10 -12v-60c0 -64.667 2.66699 -123.334 8 -176.001c-16.667 3.33301 -31.667 5 -45 5s-28.333 -1.66699 -45 -5c5.33301 59.333 8 155.333 8 288zM181.001 -216.998l42.001 133.001c7.33301 24 21 36 41 36
c9.33301 0 17.333 -2.83301 24 -8.5s10 -12.834 10 -21.501c0 -12 -5.83301 -26.5 -17.5 -43.5s-38.834 -51.167 -81.501 -102.5z" />
    <glyph glyph-name="kgreenlandic" unicode="&#x138;" 
d="M76 -5c2.66699 84.667 4.00098 174.334 4.00098 269.001c0 82.667 -1.33301 152.334 -4 209.001c16.667 -3.33301 31.667 -5 45 -5s28.333 1.66699 45 5c-5.33301 -59.333 -8 -123 -8 -191c0 -12.667 4 -19 12 -19c5.33301 0 18.333 7.66699 39 23
c12.667 9.33301 39 34.333 79 75s75 78 105 112c12 -3.33301 24.667 -5 38 -5c8 0 24.667 1.66699 50 5c-90.667 -73.333 -167.334 -140.333 -230.001 -201l241 -277c-25.333 3.33301 -44.333 5 -57 5c-15.333 0 -32.333 -1.66699 -51 -5
c-65.333 85.333 -132.333 164.666 -201 237.999c-5.33301 6.66699 -10.333 10 -15 10c-6.66699 0 -10 -4 -10 -12v-60c0 -64.667 2.66699 -123.334 8 -176.001c-16.667 3.33301 -31.667 5 -45 5s-28.333 -1.66699 -45 -5z" />
    <glyph glyph-name="Lacute" unicode="&#x139;" 
d="M98 254l0.000976562 172c0 58 -2.66699 144.333 -8 259c18.667 -3.33301 35 -5 49 -5s30.333 1.66699 49 5c-5.33301 -114.667 -8 -201 -8 -259c0 -60 1 -188 3 -384c117.333 0 209.333 4.33301 276 13c-3.33301 -11.333 -5 -21.333 -5 -30s1.66699 -18.667 5 -30
c-68 3.33301 -129.333 5 -184 5s-116.334 -1.66699 -185.001 -5c5.33301 114.667 8 201 8 259zM70.001 731l147.001 149c16 16 31 24 45 24c7.33301 0 14.666 -3 21.999 -9s11 -13.667 11 -23c0 -16 -12 -31.667 -36 -47l-147 -94h-42z" />
    <glyph glyph-name="lacute" unicode="&#x13a;" horiz-adv-x="278" 
d="M102 283v181c0 132.667 -2.66699 228.667 -8 288c16.667 -3.33301 31.667 -5 45 -5s28.333 1.66699 45 5c-5.33301 -59.333 -8 -155.333 -8 -288v-181c0 -132.667 2.66699 -228.667 8 -288c-16.667 3.33301 -31.667 5 -45 5s-28.333 -1.66699 -45 -5
c5.33301 59.333 8 155.333 8 288zM84 771l147.001 149c16 16 31 24 45 24c7.33301 0 14.666 -3 21.999 -9s11 -13.667 11 -23c0 -16 -12 -31.667 -36 -47l-147 -94h-42z" />
    <glyph glyph-name="Lcommaaccent" unicode="&#x13b;" 
d="M98 254l0.000976562 172c0 58 -2.66699 144.333 -8 259c18.667 -3.33301 35 -5 49 -5s30.333 1.66699 49 5c-5.33301 -114.667 -8 -201 -8 -259c0 -60 1 -188 3 -384c117.333 0 209.333 4.33301 276 13c-3.33301 -11.333 -5 -21.333 -5 -30s1.66699 -18.667 5 -30
c-68 3.33301 -129.333 5 -184 5s-116.334 -1.66699 -185.001 -5c5.33301 114.667 8 201 8 259zM198.001 -217l42.001 133.001c7.33301 24 21 36 41 36c9.33301 0 17.333 -2.83301 24 -8.5s10 -12.834 10 -21.501c0 -12 -5.83301 -26.5 -17.5 -43.5
s-38.834 -51.167 -81.501 -102.5z" />
    <glyph glyph-name="lcommaaccent" unicode="&#x13c;" horiz-adv-x="278" 
d="M102 283v181c0 132.667 -2.66699 228.667 -8 288c16.667 -3.33301 31.667 -5 45 -5s28.333 1.66699 45 5c-5.33301 -59.333 -8 -155.333 -8 -288v-181c0 -132.667 2.66699 -228.667 8 -288c-16.667 3.33301 -31.667 5 -45 5s-28.333 -1.66699 -45 -5
c5.33301 59.333 8 155.333 8 288zM71 -217l42.001 133.001c7.33301 24 21 36 41 36c9.33301 0 17.333 -2.83301 24 -8.5s10 -12.834 10 -21.501c0 -12 -5.83301 -26.5 -17.5 -43.5s-38.834 -51.167 -81.501 -102.5z" />
    <glyph glyph-name="Lcaron" unicode="&#x13d;" 
d="M98 254l0.000976562 172c0 58 -2.66699 144.333 -8 259c18.667 -3.33301 35 -5 49 -5s30.333 1.66699 49 5c-5.33301 -114.667 -8 -201 -8 -259c0 -60 1 -188 3 -384c117.333 0 209.333 4.33301 276 13c-3.33301 -11.333 -5 -21.333 -5 -30s1.66699 -18.667 5 -30
c-68 3.33301 -129.333 5 -184 5s-116.334 -1.66699 -185.001 -5c5.33301 114.667 8 201 8 259zM269.001 551l41 156.001c8 26.667 22.333 40 43 40c8.66699 0 16.167 -2.66699 22.5 -8s9.5 -12.666 9.5 -21.999c0 -8.66699 -5.16699 -22.834 -15.5 -42.501
s-34.5 -61.834 -72.5 -126.501z" />
    <glyph glyph-name="lcaron" unicode="&#x13e;" horiz-adv-x="278" 
d="M102 283v181c0 132.667 -2.66699 228.667 -8 288c16.667 -3.33301 31.667 -5 45 -5s28.333 1.66699 45 5c-5.33301 -59.333 -8 -155.333 -8 -288v-181c0 -132.667 2.66699 -228.667 8 -288c-16.667 3.33301 -31.667 5 -45 5s-28.333 -1.66699 -45 -5
c5.33301 59.333 8 155.333 8 288zM216 551l41 156.001c8 26.667 22.333 40 43 40c8.66699 0 16.167 -2.66699 22.5 -8s9.5 -12.666 9.5 -21.999c0 -8.66699 -5.16699 -22.834 -15.5 -42.501s-34.5 -61.834 -72.5 -126.501z" />
    <glyph glyph-name="Ldot" unicode="&#x13f;" 
d="M98 254l0.000976562 172c0 58 -2.66699 144.333 -8 259c18.667 -3.33301 35 -5 49 -5s30.333 1.66699 49 5c-5.33301 -114.667 -8 -201 -8 -259c0 -60 1 -188 3 -384c117.333 0 209.333 4.33301 276 13c-3.33301 -11.333 -5 -21.333 -5 -30s1.66699 -18.667 5 -30
c-68 3.33301 -129.333 5 -184 5s-116.334 -1.66699 -185.001 -5c5.33301 114.667 8 201 8 259zM333.001 352c0 14 5 26 15 36s22 15 36 15s26 -5 36 -15s15 -22 15 -36s-5 -26 -15 -36s-22 -15 -36 -15s-26 5 -36 15s-15 22 -15 36z" />
    <glyph glyph-name="ldot" unicode="&#x140;" horiz-adv-x="389" 
d="M102 283v181c0 132.667 -2.66699 228.667 -8 288c16.667 -3.33301 31.667 -5 45 -5s28.333 1.66699 45 5c-5.33301 -59.333 -8 -155.333 -8 -288v-181c0 -132.667 2.66699 -228.667 8 -288c-16.667 3.33301 -31.667 5 -45 5s-28.333 -1.66699 -45 -5
c5.33301 59.333 8 155.333 8 288zM272 352c0 14 5 26 15 36s22 15 36 15s26 -5 36 -15s15 -22 15 -36s-5 -26 -15 -36s-22 -15 -36 -15s-26 5 -36 15s-15 22 -15 36z" />
    <glyph glyph-name="Lslash" unicode="&#x141;" 
d="M98 337l0.000976562 89c0 58 -2.66699 144.333 -8 259c18.667 -3.33301 35 -5 49 -5s30.333 1.66699 49 5c-5.33301 -114.667 -8 -201 -8 -259v-39c25.333 14.667 60 36.667 104 66c5.33301 -13.333 11.666 -25.333 18.999 -36c-19.333 -10 -60.333 -33 -123 -69v-90
c0 -30 1 -102 3 -216c117.333 0 209.333 4.33301 276 13c-3.33301 -11.333 -5 -21.333 -5 -30s1.66699 -18.667 5 -30c-68 3.33301 -129.333 5 -184 5s-116.334 -1.66699 -185.001 -5c5.33301 114.667 8 201 8 259v43c-40.667 -24 -67.667 -42 -81 -54
c-5.33301 12 -12.666 24.333 -21.999 37z" />
    <glyph glyph-name="lslash" unicode="&#x142;" horiz-adv-x="278" 
d="M102 283l-0.000976562 44l-71 -46c-6.66699 13.333 -13 23 -19 29l90 55v99c0 132.667 -2.66699 228.667 -8 288c16.667 -3.33301 31.667 -5 45 -5s28.333 1.66699 45 5c-5.33301 -59.333 -8 -155.333 -8 -288v-51l72 48c0 -10 6 -20.333 18 -31
c-2 -1.33301 -13.167 -7.83301 -33.5 -19.5s-39.166 -23.167 -56.499 -34.5v-93c0 -132.667 2.66699 -228.667 8 -288c-16.667 3.33301 -31.667 5 -45 5s-28.333 -1.66699 -45 -5c5.33301 59.333 8 155.333 8 288z" />
    <glyph glyph-name="Nacute" unicode="&#x143;" horiz-adv-x="778" 
d="M675 -18l-14.002 -0.000976562c-91.333 107.333 -259.666 291.666 -504.999 552.999c-2 -74 -3 -141.667 -3 -203c0 -176.667 3 -289 9 -337c-12 3.33301 -23.667 5 -35 5c-10 0 -22.333 -1.66699 -37 -5c4 24 8.5 86.333 13.5 187s7.5 183.334 7.5 248.001
c0 148.667 -1 238 -3 268h16c264.667 -287.333 433.334 -467.666 506.001 -540.999c0 249.333 -2.66699 425.333 -8 528c12 -3.33301 23.333 -5 34 -5c9.33301 0 20 1.66699 32 5c-3.33301 -30.667 -6.83301 -84.667 -10.5 -162s-5.5 -135 -5.5 -173
c0 -155.333 1 -278 3 -368zM325.998 730.999l147.001 149c16 16 31 24 45 24c7.33301 0 14.666 -3 21.999 -9s11 -13.667 11 -23c0 -16 -12 -31.667 -36 -47l-147 -94h-42z" />
    <glyph glyph-name="nacute" unicode="&#x144;" horiz-adv-x="556" 
d="M402 279c0 48 -9.83301 85.335 -29.5 112.002s-46.167 40 -79.5 40c-90 0 -135 -54.667 -135 -164v-85c0 -74 2.66699 -136.333 8 -187c-16.667 3.33301 -31.667 5 -45 5s-28.333 -1.66699 -45 -5c5.33301 50.667 8 113 8 187v104c0 74 -2.66699 136.333 -8 187
c16.667 -3.33301 31.667 -5 45 -5c10 0 23.333 1.66699 40 5c-2 -26.667 -3 -53.334 -3 -80.001h2c38.667 60 92 90 160 90c44 0 81.667 -13.333 113 -40s47 -71.334 47 -134.001c0 -18 -0.666992 -47.5 -2 -88.5s-2 -73.167 -2 -96.5c0 -57.333 0.666992 -100.333 2 -129
c-16.667 3.33301 -30.667 5 -42 5c-12 -0 -25.667 -1.66699 -41 -5c0 10.667 1.16699 43 3.5 97s3.5 96 3.5 126v61zM223 559.002l147.001 149.001c16 16 31 24 45 24c7.33301 0 14.666 -3 21.999 -9s11 -13.667 11 -23c0 -16.667 -12 -32.334 -36 -47.001l-147 -94h-42z
" />
    <glyph glyph-name="Ncommaaccent" unicode="&#x145;" horiz-adv-x="778" 
d="M675 -18l-14.002 -0.000976562c-91.333 107.333 -259.666 291.666 -504.999 552.999c-2 -74 -3 -141.667 -3 -203c0 -176.667 3 -289 9 -337c-12 3.33301 -23.667 5 -35 5c-10 0 -22.333 -1.66699 -37 -5c4 24 8.5 86.333 13.5 187s7.5 183.334 7.5 248.001
c0 148.667 -1 238 -3 268h16c264.667 -287.333 433.334 -467.666 506.001 -540.999c0 249.333 -2.66699 425.333 -8 528c12 -3.33301 23.333 -5 34 -5c9.33301 0 20 1.66699 32 5c-3.33301 -30.667 -6.83301 -84.667 -10.5 -162s-5.5 -135 -5.5 -173
c0 -155.333 1 -278 3 -368zM311.998 -217.001l42.001 133.001c7.33301 24 21 36 41 36c9.33301 0 17.333 -2.83301 24 -8.5s10 -12.834 10 -21.501c0 -12 -5.83301 -26.5 -17.5 -43.5s-38.834 -51.167 -81.501 -102.5z" />
    <glyph glyph-name="ncommaaccent" unicode="&#x146;" horiz-adv-x="556" 
d="M402 279c0 48 -9.83301 85.335 -29.5 112.002s-46.167 40 -79.5 40c-90 0 -135 -54.667 -135 -164v-85c0 -74 2.66699 -136.333 8 -187c-16.667 3.33301 -31.667 5 -45 5s-28.333 -1.66699 -45 -5c5.33301 50.667 8 113 8 187v104c0 74 -2.66699 136.333 -8 187
c16.667 -3.33301 31.667 -5 45 -5c10 0 23.333 1.66699 40 5c-2 -26.667 -3 -53.334 -3 -80.001h2c38.667 60 92 90 160 90c44 0 81.667 -13.333 113 -40s47 -71.334 47 -134.001c0 -18 -0.666992 -47.5 -2 -88.5s-2 -73.167 -2 -96.5c0 -57.333 0.666992 -100.333 2 -129
c-16.667 3.33301 -30.667 5 -42 5c-12 -0 -25.667 -1.66699 -41 -5c0 10.667 1.16699 43 3.5 97s3.5 96 3.5 126v61zM204 -216.998l42.001 133.001c7.33301 24 21 36 41 36c9.33301 0 17.333 -2.83301 24 -8.5s10 -12.834 10 -21.501c0 -12 -5.83301 -26.5 -17.5 -43.5
s-38.834 -51.167 -81.501 -102.5z" />
    <glyph glyph-name="Ncaron" unicode="&#x147;" horiz-adv-x="778" 
d="M675 -18l-14.002 -0.000976562c-91.333 107.333 -259.666 291.666 -504.999 552.999c-2 -74 -3 -141.667 -3 -203c0 -176.667 3 -289 9 -337c-12 3.33301 -23.667 5 -35 5c-10 0 -22.333 -1.66699 -37 -5c4 24 8.5 86.333 13.5 187s7.5 183.334 7.5 248.001
c0 148.667 -1 238 -3 268h16c264.667 -287.333 433.334 -467.666 506.001 -540.999c0 249.333 -2.66699 425.333 -8 528c12 -3.33301 23.333 -5 34 -5c9.33301 0 20 1.66699 32 5c-3.33301 -30.667 -6.83301 -84.667 -10.5 -162s-5.5 -135 -5.5 -173
c0 -155.333 1 -278 3 -368zM388.998 792.999l119 105h37l-123 -167h-67l-123 167h37z" />
    <glyph glyph-name="ncaron" unicode="&#x148;" horiz-adv-x="556" 
d="M402 279c0 48 -9.83301 85.335 -29.5 112.002s-46.167 40 -79.5 40c-90 0 -135 -54.667 -135 -164v-85c0 -74 2.66699 -136.333 8 -187c-16.667 3.33301 -31.667 5 -45 5s-28.333 -1.66699 -45 -5c5.33301 50.667 8 113 8 187v104c0 74 -2.66699 136.333 -8 187
c16.667 -3.33301 31.667 -5 45 -5c10 0 23.333 1.66699 40 5c-2 -26.667 -3 -53.334 -3 -80.001h2c38.667 60 92 90 160 90c44 0 81.667 -13.333 113 -40s47 -71.334 47 -134.001c0 -18 -0.666992 -47.5 -2 -88.5s-2 -73.167 -2 -96.5c0 -57.333 0.666992 -100.333 2 -129
c-16.667 3.33301 -30.667 5 -42 5c-12 -0 -25.667 -1.66699 -41 -5c0 10.667 1.16699 43 3.5 97s3.5 96 3.5 126v61zM278 621.002l119 105h37l-123 -167h-67l-123 167h37z" />
    <glyph glyph-name="Eng" unicode="&#x14a;" horiz-adv-x="778" 
d="M624 -80l-0.00195312 116.001l-129.5 142.5l-164 173l-137.5 144.5l-37 39v-12c-2 -76 -3 -139.667 -3 -191c0 -176.667 3 -289 9 -337c-12 3.33301 -23.667 5 -35 5c-10 0 -22.333 -1.66699 -37 -5c4 24 8.5 86.333 13.5 187s7.5 183.334 7.5 248.001
c0 148.667 -1 238 -3 268h16l500 -531l-5 296c-0.666992 78 -5 153.667 -13 227c16.667 -3.33301 31.667 -5 45 -5c6.66699 0 18.334 1.66699 35.001 5c-4 -37.333 -6 -77.333 -6 -120c0 -8 0.333008 -19.5 1 -34.5s1 -25.833 1 -32.5v-580
c0 -4.66699 0.333008 -17.334 1 -38.001s0.666992 -34.5 0 -41.5s-2.83398 -17.333 -6.50098 -31s-9.16699 -25.834 -16.5 -36.501c-15.333 -22 -35.666 -40 -60.999 -54s-53.333 -21.333 -84 -22l-7 34c6.66699 -1.33301 12 -2 16 -2c24 0 43.833 10 59.5 30
s26.334 43.333 32.001 70s8.5 56 8.5 88z" />
    <glyph glyph-name="eng" unicode="&#x14b;" horiz-adv-x="556" 
d="M481 9l0.999023 -56.998c0 -23.333 -0.5 -41.5 -1.5 -54.5s-3.83301 -28.167 -8.5 -45.5s-12 -33 -22 -47c-15.333 -22 -35.666 -40 -60.999 -54s-53.333 -21.333 -84 -22l-7 34c6.66699 -1.33301 12 -2 16 -2c58.667 0 88 57.333 88 172v346
c0 48 -9.83301 85.333 -29.5 112s-46.167 40 -79.5 40c-90 0 -135 -54.667 -135 -164v-85c0 -74 2.66699 -136.333 8 -187c-16.667 3.33301 -31.667 5 -45 5s-28.333 -1.66699 -45 -5c5.33301 50.667 8 113 8 187v104c0 74 -2.66699 136.333 -8 187
c16.667 -3.33301 31.667 -5 45 -5c10 0 23.333 1.66699 40 5c-2 -26.667 -3 -53.334 -3 -80.001h2c38.667 60 92 90 160 90c44.667 0 82.667 -13.333 114 -40s47 -71.334 47 -134.001v-300z" />
    <glyph glyph-name="Omacron" unicode="&#x14c;" horiz-adv-x="833" 
d="M693 340c0 106.667 -25.5 186.832 -76.5 240.499s-117.833 80.5 -200.5 80.5s-149.334 -27 -200.001 -81s-76 -134 -76 -240s25.333 -186 76 -240s117.334 -81 200.001 -81s149.5 26.833 200.5 80.5s76.5 133.834 76.5 240.501zM42 339.998
c0 111.333 34.333 198.833 103 262.5s159 95.5 271 95.5c112.667 0 203.334 -31.833 272.001 -95.5s103 -151.167 103 -262.5s-34.333 -198.833 -103 -262.5s-159.334 -95.5 -272.001 -95.5c-112 0 -202.333 31.833 -271 95.5s-103 151.167 -103 262.5zM280 775.998v52h273
v-52h-273z" />
    <glyph glyph-name="omacron" unicode="&#x14d;" horiz-adv-x="556" 
d="M35 234c0 43.333 7.16699 81.666 21.5 114.999s33.333 59.333 57 78s49.334 32.667 77.001 42s56.834 14 87.501 14s59.834 -4.66699 87.501 -14s53.334 -23.333 77.001 -42s42.667 -44.667 57 -78s21.5 -71.666 21.5 -114.999s-7.16699 -81.666 -21.5 -114.999
s-33.333 -59.333 -57 -78s-49.334 -32.667 -77.001 -42s-56.834 -14 -87.501 -14s-59.834 4.66699 -87.501 14s-53.334 23.333 -77.001 42s-42.667 44.667 -57 78s-21.5 71.666 -21.5 114.999zM123 234c0 -63.333 12.167 -115.333 36.5 -156s63.833 -61 118.5 -61
s94.167 20.333 118.5 61s36.5 92.667 36.5 156s-12.167 115.333 -36.5 156s-63.833 61 -118.5 61s-94.167 -20.333 -118.5 -61s-36.5 -92.667 -36.5 -156zM143 604v52h273v-52h-273z" />
    <glyph glyph-name="Obreve" unicode="&#x14e;" horiz-adv-x="833" 
d="M693 340c0 106.667 -25.5 186.832 -76.5 240.499s-117.833 80.5 -200.5 80.5s-149.334 -27 -200.001 -81s-76 -134 -76 -240s25.333 -186 76 -240s117.334 -81 200.001 -81s149.5 26.833 200.5 80.5s76.5 133.834 76.5 240.501zM42 339.998
c0 111.333 34.333 198.833 103 262.5s159 95.5 271 95.5c112.667 0 203.334 -31.833 272.001 -95.5s103 -151.167 103 -262.5s-34.333 -198.833 -103 -262.5s-159.334 -95.5 -272.001 -95.5c-112 0 -202.333 31.833 -271 95.5s-103 151.167 -103 262.5zM276 888.998
l32.002 0.000976562c11.333 -64 47.333 -96 108 -96c32.667 0 56.667 7.66699 72 23s27.666 39.666 36.999 72.999h32c0 -44.667 -12.167 -82.167 -36.5 -112.5s-58.833 -45.5 -103.5 -45.5s-79.334 15 -104.001 45s-37 67.667 -37 113z" />
    <glyph glyph-name="obreve" unicode="&#x14f;" horiz-adv-x="556" 
d="M35 234c0 43.333 7.16699 81.666 21.5 114.999s33.333 59.333 57 78s49.334 32.667 77.001 42s56.834 14 87.501 14s59.834 -4.66699 87.501 -14s53.334 -23.333 77.001 -42s42.667 -44.667 57 -78s21.5 -71.666 21.5 -114.999s-7.16699 -81.666 -21.5 -114.999
s-33.333 -59.333 -57 -78s-49.334 -32.667 -77.001 -42s-56.834 -14 -87.501 -14s-59.834 4.66699 -87.501 14s-53.334 23.333 -77.001 42s-42.667 44.667 -57 78s-21.5 71.666 -21.5 114.999zM123 234c0 -63.333 12.167 -115.333 36.5 -156s63.833 -61 118.5 -61
s94.167 20.333 118.5 61s36.5 92.667 36.5 156s-12.167 115.333 -36.5 156s-63.833 61 -118.5 61s-94.167 -20.333 -118.5 -61s-36.5 -92.667 -36.5 -156zM139 717l32.002 0.000976562c11.333 -64 47.333 -96 108 -96c32.667 0 56.667 7.66699 72 23
s27.666 39.666 36.999 72.999h32c0 -44.667 -12.167 -82.167 -36.5 -112.5s-58.833 -45.5 -103.5 -45.5s-79.334 15 -104.001 45s-37 67.667 -37 113z" />
    </font>
</defs>
</svg>
